M48
INCH,TZ
T1C0.013
T2C0.013
T3C0.040
T4C0.118
%
G90
G05
T1
X53583Y-42735
X53592Y-43065
X54273Y-42775
X54291Y-45246
X54499Y-45693
X54518Y-42303
X54897Y-42627
X54951Y-41870
X54970Y-43376
X55276Y-45846
X55405Y-41381
X55674Y-45621
X55708Y-46123
X55807Y-42825
X55837Y-43465
X55837Y-43927
X55915Y-45866
X55925Y-41841
X56014Y-45285
X56093Y-39173
X56093Y-39685
X56624Y-42874
X56683Y-37805
X56703Y-37156
X57156Y-37175
X57156Y-37776
X57500Y-42766
X57648Y-46407
X57766Y-45148
X58041Y-46801
X58287Y-41171
X58502Y-44756
X58778Y-45031
X59086Y-44277
X59127Y-40121
X59142Y-45316
X59144Y-41752
X59332Y-44602
X59782Y-44624
X59783Y-42136
X59882Y-47441
X59911Y-49341
X60173Y-40171
X60187Y-38337
X60541Y-36535
X60645Y-41605
X60680Y-41263
X60936Y-42235
X60974Y-49370
X61989Y-38902
X62382Y-38396
X62433Y-38741
X62835Y-38494
X63053Y-37625
X63376Y-38955
T2
X60694Y-39611
X60732Y-45402
X60838Y-40142
X60866Y-44973
X60895Y-45689
X60948Y-39830
X61001Y-44544
X61008Y-40494
X61030Y-45260
X61135Y-44115
X61164Y-44830
X61191Y-46132
X61198Y-40226
X61248Y-39161
X61269Y-43686
X61298Y-44401
X61299Y-40690
X61318Y-41566
X61404Y-43257
X61433Y-43972
X61447Y-41870
X61476Y-42369
X61538Y-42827
X61567Y-43543
X61577Y-39136
X61701Y-43114
X61729Y-42121
X61836Y-42685
X61870Y-42420
X61980Y-39350
X63404Y-46042
X63794Y-45727
X63873Y-42355
X63873Y-42685
X63981Y-45998
X64008Y-41926
X64008Y-43114
X64142Y-43543
X64142Y-41553
X64171Y-42212
X64171Y-42827
X64191Y-40138
X64239Y-45791
X64259Y-41103
X64276Y-43972
X64305Y-43257
X64332Y-41823
X64360Y-40748
X64411Y-44401
X64426Y-46061
X64440Y-43686
X64452Y-41371
X64469Y-39783
X64545Y-44830
X64547Y-40118
X64557Y-40463
X64574Y-44115
X64679Y-45260
X64708Y-44544
X64814Y-45689
X64843Y-44973
X64977Y-45402
T3
X51732Y-39333
X51732Y-40333
X51732Y-41333
X51732Y-42333
X51732Y-43333
X51732Y-44333
X51732Y-45333
X51732Y-46333
X52732Y-39333
X52732Y-40333
X52732Y-41333
X52732Y-42333
X52732Y-43333
X52732Y-44333
X52732Y-45333
X52732Y-46333
X54281Y-36053
X54370Y-47982
X54370Y-48982
X55281Y-36053
X56281Y-36053
X57281Y-36053
T4
X52264Y-36516
X52264Y-48524
X64272Y-36516
X64272Y-48524
T0
M30
