G04 #@! TF.FileFunction,Paste,Top*
%FSLAX46Y46*%
G04 Gerber Fmt 4.6, Leading zero omitted, Abs format (unit mm)*
G04 Created by KiCad (PCBNEW 4.0.1-stable) date Tuesday, May 31, 2016 'PMt' 08:28:30 PM*
%MOMM*%
G01*
G04 APERTURE LIST*
%ADD10C,0.100000*%
%ADD11R,1.501140X0.398780*%
%ADD12R,1.200000X0.750000*%
%ADD13R,0.797560X0.797560*%
%ADD14R,0.900000X1.200000*%
%ADD15R,0.650000X1.060000*%
%ADD16R,0.700000X0.200000*%
G04 APERTURE END LIST*
D10*
D11*
X158080960Y-94250000D03*
X158080960Y-93599760D03*
X158080960Y-92949520D03*
X155419040Y-92949520D03*
X155419040Y-93599760D03*
X155419040Y-94250000D03*
X163661920Y-98250000D03*
X163661920Y-97599760D03*
X163661920Y-96949520D03*
X161000000Y-96949520D03*
X161000000Y-97599760D03*
X161000000Y-98250000D03*
X158080960Y-96700000D03*
X158080960Y-96049760D03*
X158080960Y-95399520D03*
X155419040Y-95399520D03*
X155419040Y-96049760D03*
X155419040Y-96700000D03*
D12*
X150325000Y-100775000D03*
X148425000Y-100775000D03*
D10*
G36*
X148619365Y-95701220D02*
X147487994Y-94569849D01*
X148902207Y-93155636D01*
X150033578Y-94287007D01*
X148619365Y-95701220D01*
X148619365Y-95701220D01*
G37*
G36*
X151447793Y-92872792D02*
X150316422Y-91741421D01*
X151730635Y-90327208D01*
X152862006Y-91458579D01*
X151447793Y-92872792D01*
X151447793Y-92872792D01*
G37*
D13*
X158750000Y-124999300D03*
X158750000Y-123500700D03*
X156000000Y-124998600D03*
X156000000Y-123500000D03*
X153250000Y-124999300D03*
X153250000Y-123500700D03*
D14*
X158750000Y-121600000D03*
X158750000Y-119400000D03*
X156000000Y-121600000D03*
X156000000Y-119400000D03*
X153250000Y-121600000D03*
X153250000Y-119400000D03*
D15*
X150325000Y-96700000D03*
X149375000Y-96700000D03*
X148425000Y-96700000D03*
X148425000Y-98900000D03*
X150325000Y-98900000D03*
D16*
X161190000Y-100200000D03*
X161190000Y-100600000D03*
X161190000Y-101000000D03*
X161190000Y-101400000D03*
X161190000Y-101800000D03*
X161190000Y-102200000D03*
X161190000Y-102600000D03*
X161190000Y-103000000D03*
X161190000Y-103400000D03*
X161190000Y-103800000D03*
X161190000Y-107800000D03*
X161190000Y-107400000D03*
X161190000Y-107000000D03*
X161190000Y-106600000D03*
X161190000Y-106200000D03*
X161190000Y-105800000D03*
X161190000Y-105400000D03*
X161190000Y-105000000D03*
X161190000Y-104600000D03*
X161190000Y-104200000D03*
X161190000Y-108200000D03*
X161190000Y-108600000D03*
X161190000Y-109000000D03*
X161190000Y-109400000D03*
X161190000Y-109800000D03*
X161190000Y-110200000D03*
X161190000Y-110600000D03*
X161190000Y-111000000D03*
X161190000Y-111400000D03*
X161190000Y-111800000D03*
X161190000Y-115800000D03*
X161190000Y-115400000D03*
X161190000Y-115000000D03*
X161190000Y-114600000D03*
X161190000Y-114200000D03*
X161190000Y-113800000D03*
X161190000Y-113400000D03*
X161190000Y-113000000D03*
X161190000Y-112600000D03*
X161190000Y-112200000D03*
X158110000Y-112200000D03*
X158110000Y-112600000D03*
X158110000Y-113000000D03*
X158110000Y-113400000D03*
X158110000Y-113800000D03*
X158110000Y-114200000D03*
X158110000Y-114600000D03*
X158110000Y-115000000D03*
X158110000Y-115400000D03*
X158110000Y-115800000D03*
X158110000Y-111800000D03*
X158110000Y-111400000D03*
X158110000Y-111000000D03*
X158110000Y-110600000D03*
X158110000Y-110200000D03*
X158110000Y-109800000D03*
X158110000Y-109400000D03*
X158110000Y-109000000D03*
X158110000Y-108600000D03*
X158110000Y-108200000D03*
X158110000Y-104200000D03*
X158110000Y-104600000D03*
X158110000Y-105000000D03*
X158110000Y-105400000D03*
X158110000Y-105800000D03*
X158110000Y-106200000D03*
X158110000Y-106600000D03*
X158110000Y-107000000D03*
X158110000Y-107400000D03*
X158110000Y-107800000D03*
X158110000Y-103800000D03*
X158110000Y-103400000D03*
X158110000Y-103000000D03*
X158110000Y-102600000D03*
X158110000Y-102200000D03*
X158110000Y-101800000D03*
X158110000Y-101400000D03*
X158110000Y-101000000D03*
X158110000Y-100600000D03*
X158110000Y-100200000D03*
D14*
X147500000Y-111200000D03*
X147500000Y-113400000D03*
X149200000Y-111200000D03*
X149200000Y-113400000D03*
M02*
