M48
INCH,TZ
T1C0.013
T2C0.013
T3C0.040
T4C0.118
%
G90
G05
T1
X53287Y-39843
X53385Y-42697
X53386Y-40925
X53642Y-42461
X53858Y-43209
X54134Y-40886
X54213Y-44213
X54298Y-42778
X54390Y-45827
X54449Y-43950
X54462Y-43384
X54882Y-37638
X55098Y-44705
X55335Y-42106
X55405Y-41381
X55492Y-46220
X55900Y-44121
X55925Y-41841
X55965Y-45059
X56093Y-39173
X56093Y-39685
X56221Y-43477
X56240Y-43957
X56657Y-43439
X56673Y-36850
X56683Y-37805
X56831Y-42539
X56949Y-46732
X57008Y-47933
X57021Y-37020
X57067Y-42067
X57156Y-37785
X57598Y-45787
X57717Y-44193
X57756Y-37165
X57956Y-45609
X58054Y-46821
X58287Y-41171
X58346Y-45236
X58687Y-45242
X58720Y-48543
X58831Y-45906
X59094Y-45709
X59127Y-40121
X59144Y-41752
X59325Y-45456
X59590Y-45261
X59764Y-48504
X59783Y-42136
X59882Y-47441
X59911Y-49341
X60169Y-39240
X60173Y-40171
X60541Y-36535
X60645Y-41605
X60680Y-41263
X60928Y-42235
X60974Y-49370
X61989Y-38888
X62382Y-38396
X62433Y-38741
X62835Y-38494
X63053Y-37625
X63376Y-38955
T2
X60732Y-45402
X60818Y-39496
X60838Y-40142
X60866Y-44973
X60895Y-45689
X60946Y-39827
X61001Y-44544
X61003Y-40466
X61030Y-45260
X61135Y-44115
X61164Y-44830
X61191Y-46132
X61211Y-40210
X61269Y-43686
X61274Y-39135
X61289Y-41530
X61298Y-44401
X61299Y-40690
X61398Y-42343
X61404Y-43257
X61433Y-43972
X61497Y-41785
X61538Y-42827
X61567Y-43543
X61603Y-39135
X61701Y-43114
X61729Y-42059
X61836Y-42685
X61870Y-42420
X61994Y-39336
X63404Y-46042
X63794Y-45727
X63873Y-42355
X63873Y-42685
X63981Y-45998
X64008Y-41926
X64008Y-43114
X64142Y-43543
X64142Y-41553
X64171Y-42212
X64171Y-42827
X64191Y-40138
X64239Y-45791
X64259Y-41103
X64276Y-43972
X64305Y-43257
X64332Y-41823
X64360Y-40748
X64411Y-44401
X64426Y-46061
X64440Y-43686
X64452Y-41371
X64469Y-39783
X64545Y-44830
X64547Y-40118
X64557Y-40463
X64574Y-44115
X64679Y-45260
X64708Y-44544
X64814Y-45689
X64843Y-44973
X64977Y-45402
T3
X51732Y-39333
X51732Y-40333
X51732Y-41333
X51732Y-42333
X51732Y-43333
X51732Y-44333
X51732Y-45333
X51732Y-46333
X52732Y-39333
X52732Y-40333
X52732Y-41333
X52732Y-42333
X52732Y-43333
X52732Y-44333
X52732Y-45333
X52732Y-46333
X54281Y-36053
X54370Y-47982
X54370Y-48982
X55281Y-36053
X56281Y-36053
X57281Y-36053
T4
X52264Y-36516
X52264Y-48524
X64272Y-36516
X64272Y-48524
T0
M30
