G04 #@! TF.FileFunction,Legend,Top*
%FSLAX46Y46*%
G04 Gerber Fmt 4.6, Leading zero omitted, Abs format (unit mm)*
G04 Created by KiCad (PCBNEW 4.0.1-stable) date Wednesday, February 10, 2016 'AMt' 10:32:58 AM*
%MOMM*%
G01*
G04 APERTURE LIST*
%ADD10C,0.100000*%
%ADD11C,0.200000*%
%ADD12C,0.150000*%
%ADD13C,0.010000*%
G04 APERTURE END LIST*
D10*
D11*
X140000000Y-98925000D02*
X140000000Y-119175000D01*
X141182619Y-121265000D02*
X141061667Y-121204524D01*
X140880238Y-121204524D01*
X140698810Y-121265000D01*
X140577857Y-121385952D01*
X140517381Y-121506905D01*
X140456905Y-121748810D01*
X140456905Y-121930238D01*
X140517381Y-122172143D01*
X140577857Y-122293095D01*
X140698810Y-122414048D01*
X140880238Y-122474524D01*
X141001190Y-122474524D01*
X141182619Y-122414048D01*
X141243095Y-122353571D01*
X141243095Y-121930238D01*
X141001190Y-121930238D01*
X140558096Y-123754524D02*
X139953334Y-123754524D01*
X139892858Y-124359286D01*
X139953334Y-124298810D01*
X140074286Y-124238333D01*
X140376667Y-124238333D01*
X140497620Y-124298810D01*
X140558096Y-124359286D01*
X140618572Y-124480238D01*
X140618572Y-124782619D01*
X140558096Y-124903571D01*
X140497620Y-124964048D01*
X140376667Y-125024524D01*
X140074286Y-125024524D01*
X139953334Y-124964048D01*
X139892858Y-124903571D01*
X140981429Y-123754524D02*
X141404763Y-125024524D01*
X141828096Y-123754524D01*
X149457381Y-121215000D02*
X149336429Y-121154524D01*
X149155000Y-121154524D01*
X148973572Y-121215000D01*
X148852619Y-121335952D01*
X148792143Y-121456905D01*
X148731667Y-121698810D01*
X148731667Y-121880238D01*
X148792143Y-122122143D01*
X148852619Y-122243095D01*
X148973572Y-122364048D01*
X149155000Y-122424524D01*
X149275952Y-122424524D01*
X149457381Y-122364048D01*
X149517857Y-122303571D01*
X149517857Y-121880238D01*
X149275952Y-121880238D01*
X150062143Y-122424524D02*
X150062143Y-121154524D01*
X150787857Y-122424524D01*
X150787857Y-121154524D01*
X151392619Y-122424524D02*
X151392619Y-121154524D01*
X151695000Y-121154524D01*
X151876428Y-121215000D01*
X151997381Y-121335952D01*
X152057857Y-121456905D01*
X152118333Y-121698810D01*
X152118333Y-121880238D01*
X152057857Y-122122143D01*
X151997381Y-122243095D01*
X151876428Y-122364048D01*
X151695000Y-122424524D01*
X151392619Y-122424524D01*
X148617143Y-124440714D02*
X149584762Y-124440714D01*
X149100952Y-124924524D02*
X149100952Y-123956905D01*
X150794286Y-123654524D02*
X150189524Y-123654524D01*
X150129048Y-124259286D01*
X150189524Y-124198810D01*
X150310476Y-124138333D01*
X150612857Y-124138333D01*
X150733810Y-124198810D01*
X150794286Y-124259286D01*
X150854762Y-124380238D01*
X150854762Y-124682619D01*
X150794286Y-124803571D01*
X150733810Y-124864048D01*
X150612857Y-124924524D01*
X150310476Y-124924524D01*
X150189524Y-124864048D01*
X150129048Y-124803571D01*
X151217619Y-123654524D02*
X151640953Y-124924524D01*
X152064286Y-123654524D01*
D12*
X143096429Y-120178571D02*
X143239286Y-120226190D01*
X143286905Y-120273810D01*
X143334524Y-120369048D01*
X143334524Y-120511905D01*
X143286905Y-120607143D01*
X143239286Y-120654762D01*
X143144048Y-120702381D01*
X142763095Y-120702381D01*
X142763095Y-119702381D01*
X143096429Y-119702381D01*
X143191667Y-119750000D01*
X143239286Y-119797619D01*
X143286905Y-119892857D01*
X143286905Y-119988095D01*
X143239286Y-120083333D01*
X143191667Y-120130952D01*
X143096429Y-120178571D01*
X142763095Y-120178571D01*
X144191667Y-120035714D02*
X144191667Y-120702381D01*
X143763095Y-120035714D02*
X143763095Y-120559524D01*
X143810714Y-120654762D01*
X143905952Y-120702381D01*
X144048810Y-120702381D01*
X144144048Y-120654762D01*
X144191667Y-120607143D01*
X144572619Y-120035714D02*
X145096429Y-120035714D01*
X144572619Y-120702381D01*
X145096429Y-120702381D01*
X145382143Y-120035714D02*
X145905953Y-120035714D01*
X145382143Y-120702381D01*
X145905953Y-120702381D01*
X146667858Y-120654762D02*
X146572620Y-120702381D01*
X146382143Y-120702381D01*
X146286905Y-120654762D01*
X146239286Y-120559524D01*
X146239286Y-120178571D01*
X146286905Y-120083333D01*
X146382143Y-120035714D01*
X146572620Y-120035714D01*
X146667858Y-120083333D01*
X146715477Y-120178571D01*
X146715477Y-120273810D01*
X146239286Y-120369048D01*
X147144048Y-120702381D02*
X147144048Y-120035714D01*
X147144048Y-120226190D02*
X147191667Y-120130952D01*
X147239286Y-120083333D01*
X147334524Y-120035714D01*
X147429763Y-120035714D01*
D11*
X143015714Y-94958809D02*
X143015714Y-93991190D01*
X137865714Y-94933809D02*
X137865714Y-93966190D01*
X146224524Y-98113810D02*
X144954524Y-98113810D01*
X144954524Y-97630001D01*
X145015000Y-97509048D01*
X145075476Y-97448572D01*
X145196429Y-97388096D01*
X145377857Y-97388096D01*
X145498810Y-97448572D01*
X145559286Y-97509048D01*
X145619762Y-97630001D01*
X145619762Y-98113810D01*
X144954524Y-96964762D02*
X146224524Y-96662381D01*
X145317381Y-96420477D01*
X146224524Y-96178572D01*
X144954524Y-95876191D01*
X146224524Y-95392381D02*
X144954524Y-95392381D01*
X145861667Y-94969048D01*
X144954524Y-94545714D01*
X146224524Y-94545714D01*
X144954524Y-93336190D02*
X144954524Y-93940952D01*
X145559286Y-94001428D01*
X145498810Y-93940952D01*
X145438333Y-93820000D01*
X145438333Y-93517619D01*
X145498810Y-93396666D01*
X145559286Y-93336190D01*
X145680238Y-93275714D01*
X145982619Y-93275714D01*
X146103571Y-93336190D01*
X146164048Y-93396666D01*
X146224524Y-93517619D01*
X146224524Y-93820000D01*
X146164048Y-93940952D01*
X146103571Y-94001428D01*
X140899524Y-98188810D02*
X139629524Y-98188810D01*
X139629524Y-97705001D01*
X139690000Y-97584048D01*
X139750476Y-97523572D01*
X139871429Y-97463096D01*
X140052857Y-97463096D01*
X140173810Y-97523572D01*
X140234286Y-97584048D01*
X140294762Y-97705001D01*
X140294762Y-98188810D01*
X139629524Y-97039762D02*
X140899524Y-96737381D01*
X139992381Y-96495477D01*
X140899524Y-96253572D01*
X139629524Y-95951191D01*
X140899524Y-95467381D02*
X139629524Y-95467381D01*
X140536667Y-95044048D01*
X139629524Y-94620714D01*
X140899524Y-94620714D01*
X139629524Y-93471666D02*
X139629524Y-93713571D01*
X139690000Y-93834523D01*
X139750476Y-93895000D01*
X139931905Y-94015952D01*
X140173810Y-94076428D01*
X140657619Y-94076428D01*
X140778571Y-94015952D01*
X140839048Y-93955476D01*
X140899524Y-93834523D01*
X140899524Y-93592619D01*
X140839048Y-93471666D01*
X140778571Y-93411190D01*
X140657619Y-93350714D01*
X140355238Y-93350714D01*
X140234286Y-93411190D01*
X140173810Y-93471666D01*
X140113333Y-93592619D01*
X140113333Y-93834523D01*
X140173810Y-93955476D01*
X140234286Y-94015952D01*
X140355238Y-94076428D01*
X140686190Y-118449524D02*
X140686190Y-117179524D01*
X141169999Y-117179524D01*
X141290952Y-117240000D01*
X141351428Y-117300476D01*
X141411904Y-117421429D01*
X141411904Y-117602857D01*
X141351428Y-117723810D01*
X141290952Y-117784286D01*
X141169999Y-117844762D01*
X140686190Y-117844762D01*
X141835238Y-117179524D02*
X142137619Y-118449524D01*
X142379523Y-117542381D01*
X142621428Y-118449524D01*
X142923809Y-117179524D01*
X143407619Y-118449524D02*
X143407619Y-117179524D01*
X143830952Y-118086667D01*
X144254286Y-117179524D01*
X144254286Y-118449524D01*
X145524286Y-118449524D02*
X144798572Y-118449524D01*
X145161429Y-118449524D02*
X145161429Y-117179524D01*
X145040477Y-117360952D01*
X144919524Y-117481905D01*
X144798572Y-117542381D01*
X141666191Y-115215714D02*
X142633810Y-115215714D01*
X140586190Y-113074524D02*
X140586190Y-111804524D01*
X141069999Y-111804524D01*
X141190952Y-111865000D01*
X141251428Y-111925476D01*
X141311904Y-112046429D01*
X141311904Y-112227857D01*
X141251428Y-112348810D01*
X141190952Y-112409286D01*
X141069999Y-112469762D01*
X140586190Y-112469762D01*
X141735238Y-111804524D02*
X142037619Y-113074524D01*
X142279523Y-112167381D01*
X142521428Y-113074524D01*
X142823809Y-111804524D01*
X143307619Y-113074524D02*
X143307619Y-111804524D01*
X143730952Y-112711667D01*
X144154286Y-111804524D01*
X144154286Y-113074524D01*
X144698572Y-111925476D02*
X144759048Y-111865000D01*
X144880000Y-111804524D01*
X145182381Y-111804524D01*
X145303334Y-111865000D01*
X145363810Y-111925476D01*
X145424286Y-112046429D01*
X145424286Y-112167381D01*
X145363810Y-112348810D01*
X144638096Y-113074524D01*
X145424286Y-113074524D01*
X141741191Y-110040714D02*
X142708810Y-110040714D01*
X140636190Y-108149524D02*
X140636190Y-106879524D01*
X141119999Y-106879524D01*
X141240952Y-106940000D01*
X141301428Y-107000476D01*
X141361904Y-107121429D01*
X141361904Y-107302857D01*
X141301428Y-107423810D01*
X141240952Y-107484286D01*
X141119999Y-107544762D01*
X140636190Y-107544762D01*
X141785238Y-106879524D02*
X142087619Y-108149524D01*
X142329523Y-107242381D01*
X142571428Y-108149524D01*
X142873809Y-106879524D01*
X143357619Y-108149524D02*
X143357619Y-106879524D01*
X143780952Y-107786667D01*
X144204286Y-106879524D01*
X144204286Y-108149524D01*
X144688096Y-106879524D02*
X145474286Y-106879524D01*
X145050953Y-107363333D01*
X145232381Y-107363333D01*
X145353334Y-107423810D01*
X145413810Y-107484286D01*
X145474286Y-107605238D01*
X145474286Y-107907619D01*
X145413810Y-108028571D01*
X145353334Y-108089048D01*
X145232381Y-108149524D01*
X144869524Y-108149524D01*
X144748572Y-108089048D01*
X144688096Y-108028571D01*
X141691191Y-104990714D02*
X142658810Y-104990714D01*
X140686190Y-103049524D02*
X140686190Y-101779524D01*
X141169999Y-101779524D01*
X141290952Y-101840000D01*
X141351428Y-101900476D01*
X141411904Y-102021429D01*
X141411904Y-102202857D01*
X141351428Y-102323810D01*
X141290952Y-102384286D01*
X141169999Y-102444762D01*
X140686190Y-102444762D01*
X141835238Y-101779524D02*
X142137619Y-103049524D01*
X142379523Y-102142381D01*
X142621428Y-103049524D01*
X142923809Y-101779524D01*
X143407619Y-103049524D02*
X143407619Y-101779524D01*
X143830952Y-102686667D01*
X144254286Y-101779524D01*
X144254286Y-103049524D01*
X145403334Y-102202857D02*
X145403334Y-103049524D01*
X145100953Y-101719048D02*
X144798572Y-102626190D01*
X145584762Y-102626190D01*
X141866191Y-100015714D02*
X142833810Y-100015714D01*
X136616191Y-117840714D02*
X137583810Y-117840714D01*
X135472381Y-114404524D02*
X136198096Y-114404524D01*
X135835239Y-115674524D02*
X135835239Y-114404524D01*
X137226191Y-115674524D02*
X136621429Y-115674524D01*
X136621429Y-114404524D01*
X137649524Y-115674524D02*
X137649524Y-114404524D01*
X138072857Y-115311667D01*
X138496191Y-114404524D01*
X138496191Y-115674524D01*
X135331667Y-113124524D02*
X135331667Y-111854524D01*
X135815476Y-111854524D01*
X135936429Y-111915000D01*
X135996905Y-111975476D01*
X136057381Y-112096429D01*
X136057381Y-112277857D01*
X135996905Y-112398810D01*
X135936429Y-112459286D01*
X135815476Y-112519762D01*
X135331667Y-112519762D01*
X136601667Y-113124524D02*
X136601667Y-111854524D01*
X137085476Y-111854524D01*
X137206429Y-111915000D01*
X137266905Y-111975476D01*
X137327381Y-112096429D01*
X137327381Y-112277857D01*
X137266905Y-112398810D01*
X137206429Y-112459286D01*
X137085476Y-112519762D01*
X136601667Y-112519762D01*
X137871667Y-113124524D02*
X137871667Y-111854524D01*
X138295000Y-112761667D01*
X138718334Y-111854524D01*
X138718334Y-113124524D01*
X136516191Y-110240714D02*
X137483810Y-110240714D01*
X136658096Y-106854524D02*
X136053334Y-106854524D01*
X135992858Y-107459286D01*
X136053334Y-107398810D01*
X136174286Y-107338333D01*
X136476667Y-107338333D01*
X136597620Y-107398810D01*
X136658096Y-107459286D01*
X136718572Y-107580238D01*
X136718572Y-107882619D01*
X136658096Y-108003571D01*
X136597620Y-108064048D01*
X136476667Y-108124524D01*
X136174286Y-108124524D01*
X136053334Y-108064048D01*
X135992858Y-108003571D01*
X137081429Y-106854524D02*
X137504763Y-108124524D01*
X137928096Y-106854524D01*
X135397381Y-105464048D02*
X135578809Y-105524524D01*
X135881190Y-105524524D01*
X136002143Y-105464048D01*
X136062619Y-105403571D01*
X136123095Y-105282619D01*
X136123095Y-105161667D01*
X136062619Y-105040714D01*
X136002143Y-104980238D01*
X135881190Y-104919762D01*
X135639286Y-104859286D01*
X135518333Y-104798810D01*
X135457857Y-104738333D01*
X135397381Y-104617381D01*
X135397381Y-104496429D01*
X135457857Y-104375476D01*
X135518333Y-104315000D01*
X135639286Y-104254524D01*
X135941666Y-104254524D01*
X136123095Y-104315000D01*
X137393095Y-105524524D02*
X136969762Y-104919762D01*
X136667381Y-105524524D02*
X136667381Y-104254524D01*
X137151190Y-104254524D01*
X137272143Y-104315000D01*
X137332619Y-104375476D01*
X137393095Y-104496429D01*
X137393095Y-104677857D01*
X137332619Y-104798810D01*
X137272143Y-104859286D01*
X137151190Y-104919762D01*
X136667381Y-104919762D01*
X137816429Y-104254524D02*
X138663095Y-105524524D01*
X138663095Y-104254524D02*
X137816429Y-105524524D01*
X135377620Y-101804524D02*
X136163810Y-101804524D01*
X135740477Y-102288333D01*
X135921905Y-102288333D01*
X136042858Y-102348810D01*
X136103334Y-102409286D01*
X136163810Y-102530238D01*
X136163810Y-102832619D01*
X136103334Y-102953571D01*
X136042858Y-103014048D01*
X135921905Y-103074524D01*
X135559048Y-103074524D01*
X135438096Y-103014048D01*
X135377620Y-102953571D01*
X136526667Y-101804524D02*
X136950001Y-103074524D01*
X137373334Y-101804524D01*
X137675715Y-101804524D02*
X138461905Y-101804524D01*
X138038572Y-102288333D01*
X138220000Y-102288333D01*
X138340953Y-102348810D01*
X138401429Y-102409286D01*
X138461905Y-102530238D01*
X138461905Y-102832619D01*
X138401429Y-102953571D01*
X138340953Y-103014048D01*
X138220000Y-103074524D01*
X137857143Y-103074524D01*
X137736191Y-103014048D01*
X137675715Y-102953571D01*
X136466191Y-99915714D02*
X137433810Y-99915714D01*
D12*
X158033334Y-117202381D02*
X158652382Y-117202381D01*
X158319048Y-117583333D01*
X158461906Y-117583333D01*
X158557144Y-117630952D01*
X158604763Y-117678571D01*
X158652382Y-117773810D01*
X158652382Y-118011905D01*
X158604763Y-118107143D01*
X158557144Y-118154762D01*
X158461906Y-118202381D01*
X158176191Y-118202381D01*
X158080953Y-118154762D01*
X158033334Y-118107143D01*
X159080953Y-118202381D02*
X159080953Y-117535714D01*
X159080953Y-117630952D02*
X159128572Y-117583333D01*
X159223810Y-117535714D01*
X159366668Y-117535714D01*
X159461906Y-117583333D01*
X159509525Y-117678571D01*
X159509525Y-118202381D01*
X159509525Y-117678571D02*
X159557144Y-117583333D01*
X159652382Y-117535714D01*
X159795239Y-117535714D01*
X159890477Y-117583333D01*
X159938096Y-117678571D01*
X159938096Y-118202381D01*
X160414286Y-118202381D02*
X160414286Y-117535714D01*
X160414286Y-117630952D02*
X160461905Y-117583333D01*
X160557143Y-117535714D01*
X160700001Y-117535714D01*
X160795239Y-117583333D01*
X160842858Y-117678571D01*
X160842858Y-118202381D01*
X160842858Y-117678571D02*
X160890477Y-117583333D01*
X160985715Y-117535714D01*
X161128572Y-117535714D01*
X161223810Y-117583333D01*
X161271429Y-117678571D01*
X161271429Y-118202381D01*
X158728660Y-94920560D02*
X159297620Y-94920560D01*
X159297620Y-94920560D02*
X159297620Y-94509080D01*
X164309620Y-98920560D02*
X164878580Y-98920560D01*
X164878580Y-98920560D02*
X164878580Y-98509080D01*
X158728660Y-97370560D02*
X159297620Y-97370560D01*
X159297620Y-97370560D02*
X159297620Y-96959080D01*
X149725000Y-101375000D02*
X149025000Y-101375000D01*
X149025000Y-100175000D02*
X149725000Y-100175000D01*
X150157322Y-91582323D02*
X148743109Y-92996536D01*
X150192678Y-94446105D02*
X151606891Y-93031892D01*
X158200000Y-123150000D02*
X158200000Y-125050000D01*
X159300000Y-123150000D02*
X159300000Y-125050000D01*
X158750000Y-124050000D02*
X158750000Y-124500000D01*
X159000000Y-124000000D02*
X158500000Y-124000000D01*
X158750000Y-124000000D02*
X159000000Y-124250000D01*
X159000000Y-124250000D02*
X158500000Y-124250000D01*
X158500000Y-124250000D02*
X158750000Y-124000000D01*
X155450000Y-123149300D02*
X155450000Y-125049300D01*
X156550000Y-123149300D02*
X156550000Y-125049300D01*
X156000000Y-124049300D02*
X156000000Y-124499300D01*
X156250000Y-123999300D02*
X155750000Y-123999300D01*
X156000000Y-123999300D02*
X156250000Y-124249300D01*
X156250000Y-124249300D02*
X155750000Y-124249300D01*
X155750000Y-124249300D02*
X156000000Y-123999300D01*
X152700000Y-123150000D02*
X152700000Y-125050000D01*
X153800000Y-123150000D02*
X153800000Y-125050000D01*
X153250000Y-124050000D02*
X153250000Y-124500000D01*
X153500000Y-124000000D02*
X153000000Y-124000000D01*
X153250000Y-124000000D02*
X153500000Y-124250000D01*
X153500000Y-124250000D02*
X153000000Y-124250000D01*
X153000000Y-124250000D02*
X153250000Y-124000000D01*
X132416000Y-99651000D02*
X132924000Y-99651000D01*
X132416000Y-100159000D02*
X132924000Y-100159000D01*
X132416000Y-105239000D02*
X132924000Y-105239000D01*
X132416000Y-104731000D02*
X132924000Y-104731000D01*
X132416000Y-102699000D02*
X132924000Y-102699000D01*
X132416000Y-102191000D02*
X132924000Y-102191000D01*
X132416000Y-107271000D02*
X132924000Y-107271000D01*
X132416000Y-107779000D02*
X132924000Y-107779000D01*
X132416000Y-109811000D02*
X132924000Y-109811000D01*
X132416000Y-110319000D02*
X132924000Y-110319000D01*
X132416000Y-117939000D02*
X132924000Y-117939000D01*
X132416000Y-117431000D02*
X132924000Y-117431000D01*
X132416000Y-112351000D02*
X132924000Y-112351000D01*
X132416000Y-112859000D02*
X132924000Y-112859000D01*
X132416000Y-114891000D02*
X132924000Y-114891000D01*
X132416000Y-115399000D02*
X132924000Y-115399000D01*
X129876000Y-102699000D02*
X130384000Y-102699000D01*
X129876000Y-102191000D02*
X130384000Y-102191000D01*
X129876000Y-100159000D02*
X130384000Y-100159000D01*
X129876000Y-99651000D02*
X130384000Y-99651000D01*
X129876000Y-104731000D02*
X130384000Y-104731000D01*
X129876000Y-105239000D02*
X130384000Y-105239000D01*
X129876000Y-107271000D02*
X130384000Y-107271000D01*
X129876000Y-107779000D02*
X130384000Y-107779000D01*
X129876000Y-117939000D02*
X130384000Y-117939000D01*
X129876000Y-117431000D02*
X130384000Y-117431000D01*
X129876000Y-115399000D02*
X130384000Y-115399000D01*
X129876000Y-114891000D02*
X130384000Y-114891000D01*
X129876000Y-109811000D02*
X130384000Y-109811000D01*
X129876000Y-110319000D02*
X130384000Y-110319000D01*
X129876000Y-112351000D02*
X130384000Y-112351000D01*
X129876000Y-112859000D02*
X130384000Y-112859000D01*
X133940000Y-119235000D02*
X135090000Y-119235000D01*
X135090000Y-119235000D02*
X135090000Y-117685000D01*
X127336000Y-117812000D02*
X121367000Y-117812000D01*
X121367000Y-117812000D02*
X121367000Y-117558000D01*
X121367000Y-117558000D02*
X127209000Y-117558000D01*
X127209000Y-117558000D02*
X127209000Y-117685000D01*
X127209000Y-117685000D02*
X121367000Y-117685000D01*
X129876000Y-108795000D02*
X127336000Y-108795000D01*
X129876000Y-108795000D02*
X129876000Y-106255000D01*
X129876000Y-106255000D02*
X127336000Y-106255000D01*
X127336000Y-107779000D02*
X121240000Y-107779000D01*
X121240000Y-107779000D02*
X121240000Y-107271000D01*
X121240000Y-107271000D02*
X127336000Y-107271000D01*
X127336000Y-106255000D02*
X127336000Y-108795000D01*
X127336000Y-103715000D02*
X127336000Y-106255000D01*
X121240000Y-104731000D02*
X127336000Y-104731000D01*
X121240000Y-105239000D02*
X121240000Y-104731000D01*
X127336000Y-105239000D02*
X121240000Y-105239000D01*
X129876000Y-103715000D02*
X127336000Y-103715000D01*
X129876000Y-106255000D02*
X129876000Y-103715000D01*
X129876000Y-106255000D02*
X127336000Y-106255000D01*
X129876000Y-101175000D02*
X127336000Y-101175000D01*
X129876000Y-101175000D02*
X129876000Y-98635000D01*
X129876000Y-98635000D02*
X127336000Y-98635000D01*
X127336000Y-100159000D02*
X121240000Y-100159000D01*
X121240000Y-100159000D02*
X121240000Y-99651000D01*
X121240000Y-99651000D02*
X127336000Y-99651000D01*
X127336000Y-98635000D02*
X127336000Y-101175000D01*
X127336000Y-101175000D02*
X127336000Y-103715000D01*
X121240000Y-102191000D02*
X127336000Y-102191000D01*
X121240000Y-102699000D02*
X121240000Y-102191000D01*
X127336000Y-102699000D02*
X121240000Y-102699000D01*
X129876000Y-101175000D02*
X127336000Y-101175000D01*
X129876000Y-103715000D02*
X129876000Y-101175000D01*
X129876000Y-103715000D02*
X127336000Y-103715000D01*
X129876000Y-113875000D02*
X127336000Y-113875000D01*
X129876000Y-113875000D02*
X129876000Y-111335000D01*
X129876000Y-111335000D02*
X127336000Y-111335000D01*
X127336000Y-112859000D02*
X121240000Y-112859000D01*
X121240000Y-112859000D02*
X121240000Y-112351000D01*
X121240000Y-112351000D02*
X127336000Y-112351000D01*
X127336000Y-111335000D02*
X127336000Y-113875000D01*
X127336000Y-108795000D02*
X127336000Y-111335000D01*
X121240000Y-109811000D02*
X127336000Y-109811000D01*
X121240000Y-110319000D02*
X121240000Y-109811000D01*
X127336000Y-110319000D02*
X121240000Y-110319000D01*
X129876000Y-108795000D02*
X127336000Y-108795000D01*
X129876000Y-111335000D02*
X129876000Y-108795000D01*
X129876000Y-111335000D02*
X127336000Y-111335000D01*
X129876000Y-116415000D02*
X127336000Y-116415000D01*
X129876000Y-116415000D02*
X129876000Y-113875000D01*
X129876000Y-113875000D02*
X127336000Y-113875000D01*
X127336000Y-115399000D02*
X121240000Y-115399000D01*
X121240000Y-115399000D02*
X121240000Y-114891000D01*
X121240000Y-114891000D02*
X127336000Y-114891000D01*
X127336000Y-113875000D02*
X127336000Y-116415000D01*
X127336000Y-116415000D02*
X127336000Y-118955000D01*
X121240000Y-117431000D02*
X127336000Y-117431000D01*
X121240000Y-117939000D02*
X121240000Y-117431000D01*
X127336000Y-117939000D02*
X121240000Y-117939000D01*
X129876000Y-116415000D02*
X127336000Y-116415000D01*
X129876000Y-118955000D02*
X129876000Y-116415000D01*
X129876000Y-118955000D02*
X127336000Y-118955000D01*
X136800000Y-120325000D02*
X136800000Y-121875000D01*
X138100000Y-120325000D02*
X136800000Y-120325000D01*
X142291000Y-121748000D02*
X148133000Y-121748000D01*
X148133000Y-121748000D02*
X148133000Y-122002000D01*
X148133000Y-122002000D02*
X142291000Y-122002000D01*
X142291000Y-122002000D02*
X142291000Y-121875000D01*
X142291000Y-121875000D02*
X148133000Y-121875000D01*
X139624000Y-121621000D02*
X139243000Y-121621000D01*
X139624000Y-122129000D02*
X139243000Y-122129000D01*
X139624000Y-124161000D02*
X139243000Y-124161000D01*
X139624000Y-124669000D02*
X139243000Y-124669000D01*
X139624000Y-120605000D02*
X142164000Y-120605000D01*
X139624000Y-123145000D02*
X142164000Y-123145000D01*
X139624000Y-123145000D02*
X139624000Y-125685000D01*
X139624000Y-125685000D02*
X142164000Y-125685000D01*
X142164000Y-124161000D02*
X148260000Y-124161000D01*
X148260000Y-124161000D02*
X148260000Y-124669000D01*
X148260000Y-124669000D02*
X142164000Y-124669000D01*
X142164000Y-125685000D02*
X142164000Y-123145000D01*
X142164000Y-123145000D02*
X142164000Y-120605000D01*
X148260000Y-122129000D02*
X142164000Y-122129000D01*
X148260000Y-121621000D02*
X148260000Y-122129000D01*
X142164000Y-121621000D02*
X148260000Y-121621000D01*
X139624000Y-123145000D02*
X142164000Y-123145000D01*
X139624000Y-120605000D02*
X139624000Y-123145000D01*
X159425000Y-120000000D02*
X159425000Y-121000000D01*
X158075000Y-121000000D02*
X158075000Y-120000000D01*
X156675000Y-120000000D02*
X156675000Y-121000000D01*
X155325000Y-121000000D02*
X155325000Y-120000000D01*
X153925000Y-120000000D02*
X153925000Y-121000000D01*
X152575000Y-121000000D02*
X152575000Y-120000000D01*
X151175000Y-97500000D02*
G75*
G03X151175000Y-97500000I-100000J0D01*
G01*
X150825000Y-98050000D02*
X150825000Y-97550000D01*
X147925000Y-98050000D02*
X150825000Y-98050000D01*
X147925000Y-97550000D02*
X147925000Y-98050000D01*
X150825000Y-97550000D02*
X147925000Y-97550000D01*
X136325000Y-92875000D02*
X137875000Y-92875000D01*
X136325000Y-91575000D02*
X136325000Y-92875000D01*
X137748000Y-87384000D02*
X137748000Y-81542000D01*
X137748000Y-81542000D02*
X138002000Y-81542000D01*
X138002000Y-81542000D02*
X138002000Y-87384000D01*
X138002000Y-87384000D02*
X137875000Y-87384000D01*
X137875000Y-87384000D02*
X137875000Y-81542000D01*
X137621000Y-90051000D02*
X137621000Y-90432000D01*
X138129000Y-90051000D02*
X138129000Y-90432000D01*
X140161000Y-90051000D02*
X140161000Y-90432000D01*
X140669000Y-90051000D02*
X140669000Y-90432000D01*
X142701000Y-90051000D02*
X142701000Y-90432000D01*
X143209000Y-90051000D02*
X143209000Y-90432000D01*
X145749000Y-90051000D02*
X145749000Y-90432000D01*
X145241000Y-90051000D02*
X145241000Y-90432000D01*
X136605000Y-90051000D02*
X136605000Y-87511000D01*
X139145000Y-90051000D02*
X139145000Y-87511000D01*
X139145000Y-90051000D02*
X141685000Y-90051000D01*
X141685000Y-90051000D02*
X141685000Y-87511000D01*
X140161000Y-87511000D02*
X140161000Y-81415000D01*
X140161000Y-81415000D02*
X140669000Y-81415000D01*
X140669000Y-81415000D02*
X140669000Y-87511000D01*
X141685000Y-87511000D02*
X139145000Y-87511000D01*
X139145000Y-87511000D02*
X136605000Y-87511000D01*
X138129000Y-81415000D02*
X138129000Y-87511000D01*
X137621000Y-81415000D02*
X138129000Y-81415000D01*
X137621000Y-87511000D02*
X137621000Y-81415000D01*
X139145000Y-90051000D02*
X139145000Y-87511000D01*
X136605000Y-90051000D02*
X139145000Y-90051000D01*
X144225000Y-90051000D02*
X144225000Y-87511000D01*
X144225000Y-90051000D02*
X146765000Y-90051000D01*
X146765000Y-90051000D02*
X146765000Y-87511000D01*
X145241000Y-87511000D02*
X145241000Y-81415000D01*
X145241000Y-81415000D02*
X145749000Y-81415000D01*
X145749000Y-81415000D02*
X145749000Y-87511000D01*
X146765000Y-87511000D02*
X144225000Y-87511000D01*
X144225000Y-87511000D02*
X141685000Y-87511000D01*
X143209000Y-81415000D02*
X143209000Y-87511000D01*
X142701000Y-81415000D02*
X143209000Y-81415000D01*
X142701000Y-87511000D02*
X142701000Y-81415000D01*
X144225000Y-90051000D02*
X144225000Y-87511000D01*
X141685000Y-90051000D02*
X144225000Y-90051000D01*
X141685000Y-90051000D02*
X141685000Y-87511000D01*
D13*
G36*
X164839070Y-117777658D02*
X164908232Y-117778043D01*
X164970121Y-117779188D01*
X165026356Y-117781220D01*
X165078552Y-117784266D01*
X165128328Y-117788454D01*
X165177301Y-117793914D01*
X165227089Y-117800771D01*
X165279308Y-117809155D01*
X165313649Y-117815182D01*
X165343800Y-117820951D01*
X165374837Y-117827480D01*
X165405330Y-117834408D01*
X165433847Y-117841376D01*
X165458956Y-117848024D01*
X165479228Y-117853992D01*
X165493231Y-117858922D01*
X165498705Y-117861682D01*
X165500725Y-117863976D01*
X165501880Y-117868015D01*
X165502055Y-117874819D01*
X165501133Y-117885413D01*
X165498998Y-117900820D01*
X165495532Y-117922063D01*
X165490620Y-117950166D01*
X165485197Y-117980340D01*
X165479549Y-118011379D01*
X165474318Y-118039788D01*
X165469741Y-118064304D01*
X165466056Y-118083665D01*
X165463499Y-118096609D01*
X165462381Y-118101658D01*
X165461550Y-118103133D01*
X165459579Y-118104411D01*
X165455869Y-118105504D01*
X165449817Y-118106428D01*
X165440823Y-118107196D01*
X165428286Y-118107823D01*
X165411605Y-118108322D01*
X165390179Y-118108709D01*
X165363406Y-118108997D01*
X165330687Y-118109201D01*
X165291420Y-118109335D01*
X165245004Y-118109412D01*
X165190838Y-118109448D01*
X165132699Y-118109456D01*
X165065477Y-118109526D01*
X165003664Y-118109732D01*
X164947711Y-118110069D01*
X164898072Y-118110530D01*
X164855198Y-118111109D01*
X164819542Y-118111802D01*
X164791556Y-118112601D01*
X164771692Y-118113502D01*
X164762438Y-118114235D01*
X164691944Y-118126190D01*
X164626081Y-118145682D01*
X164565113Y-118172483D01*
X164509302Y-118206362D01*
X164458911Y-118247089D01*
X164414202Y-118294434D01*
X164375437Y-118348168D01*
X164342880Y-118408061D01*
X164316794Y-118473882D01*
X164304658Y-118514965D01*
X164291127Y-118576874D01*
X164283039Y-118637291D01*
X164280375Y-118695156D01*
X164283119Y-118749414D01*
X164291252Y-118799006D01*
X164304757Y-118842876D01*
X164310390Y-118855918D01*
X164327200Y-118886166D01*
X164350305Y-118919432D01*
X164378344Y-118954173D01*
X164409955Y-118988848D01*
X164443779Y-119021912D01*
X164478451Y-119051824D01*
X164493719Y-119063658D01*
X164516817Y-119079730D01*
X164546774Y-119098732D01*
X164582318Y-119119942D01*
X164622180Y-119142637D01*
X164665088Y-119166094D01*
X164709772Y-119189589D01*
X164754961Y-119212401D01*
X164756631Y-119213225D01*
X164804959Y-119237354D01*
X164846449Y-119258827D01*
X164882469Y-119278470D01*
X164914386Y-119297107D01*
X164943565Y-119315564D01*
X164971376Y-119334666D01*
X164999183Y-119355237D01*
X165024000Y-119374624D01*
X165084946Y-119427307D01*
X165137668Y-119481920D01*
X165182789Y-119539318D01*
X165220933Y-119600356D01*
X165252722Y-119665889D01*
X165271161Y-119713840D01*
X165281537Y-119745573D01*
X165289417Y-119774807D01*
X165295100Y-119803621D01*
X165298880Y-119834091D01*
X165301055Y-119868295D01*
X165301920Y-119908312D01*
X165301959Y-119929789D01*
X165297842Y-120024877D01*
X165286217Y-120118875D01*
X165267359Y-120210901D01*
X165241544Y-120300073D01*
X165209047Y-120385508D01*
X165170145Y-120466325D01*
X165125112Y-120541642D01*
X165099353Y-120578354D01*
X165080248Y-120602383D01*
X165056178Y-120630011D01*
X165029087Y-120659207D01*
X165000919Y-120687943D01*
X164973618Y-120714186D01*
X164949128Y-120735908D01*
X164945962Y-120738532D01*
X164896310Y-120776137D01*
X164843067Y-120810145D01*
X164783714Y-120842151D01*
X164776684Y-120845628D01*
X164701617Y-120878871D01*
X164621793Y-120907185D01*
X164536599Y-120930716D01*
X164445421Y-120949610D01*
X164347645Y-120964014D01*
X164242658Y-120974072D01*
X164235263Y-120974601D01*
X164208758Y-120976002D01*
X164175092Y-120977082D01*
X164136008Y-120977839D01*
X164093252Y-120978275D01*
X164048567Y-120978391D01*
X164003699Y-120978187D01*
X163960391Y-120977665D01*
X163920388Y-120976824D01*
X163885436Y-120975667D01*
X163860947Y-120974431D01*
X163727534Y-120962910D01*
X163599601Y-120945275D01*
X163517824Y-120930258D01*
X163487010Y-120923672D01*
X163457362Y-120916694D01*
X163430097Y-120909674D01*
X163406433Y-120902962D01*
X163387586Y-120896906D01*
X163374775Y-120891856D01*
X163369217Y-120888162D01*
X163369087Y-120887577D01*
X163369989Y-120882245D01*
X163372259Y-120869323D01*
X163375685Y-120849991D01*
X163380060Y-120825431D01*
X163385171Y-120796823D01*
X163390810Y-120765349D01*
X163390964Y-120764494D01*
X163412298Y-120645584D01*
X163787017Y-120643783D01*
X163855342Y-120643435D01*
X163915386Y-120643082D01*
X163967779Y-120642710D01*
X164013153Y-120642305D01*
X164052139Y-120641854D01*
X164085368Y-120641341D01*
X164113469Y-120640754D01*
X164137076Y-120640078D01*
X164156818Y-120639300D01*
X164173327Y-120638405D01*
X164187233Y-120637381D01*
X164199168Y-120636213D01*
X164209762Y-120634886D01*
X164212982Y-120634425D01*
X164286760Y-120621270D01*
X164353058Y-120604513D01*
X164412691Y-120583809D01*
X164466476Y-120558811D01*
X164515228Y-120529173D01*
X164559764Y-120494548D01*
X164574922Y-120480796D01*
X164618429Y-120433774D01*
X164656632Y-120380060D01*
X164689211Y-120320349D01*
X164715850Y-120255335D01*
X164736231Y-120185714D01*
X164750034Y-120112180D01*
X164752467Y-120092855D01*
X164755338Y-120031845D01*
X164749759Y-119973620D01*
X164735713Y-119918135D01*
X164713182Y-119865340D01*
X164682148Y-119815189D01*
X164642594Y-119767633D01*
X164622859Y-119747873D01*
X164602307Y-119728909D01*
X164582025Y-119711570D01*
X164560935Y-119695159D01*
X164537962Y-119678976D01*
X164512030Y-119662323D01*
X164482063Y-119644503D01*
X164446985Y-119624815D01*
X164405721Y-119602562D01*
X164370151Y-119583813D01*
X164303124Y-119548493D01*
X164243536Y-119516526D01*
X164190751Y-119487490D01*
X164144136Y-119460960D01*
X164103056Y-119436514D01*
X164066878Y-119413727D01*
X164034968Y-119392176D01*
X164006690Y-119371438D01*
X163981412Y-119351088D01*
X163958499Y-119330704D01*
X163937317Y-119309861D01*
X163917232Y-119288137D01*
X163903335Y-119271999D01*
X163857202Y-119212015D01*
X163819055Y-119151180D01*
X163788559Y-119088536D01*
X163765373Y-119023123D01*
X163749161Y-118953983D01*
X163739584Y-118880156D01*
X163736304Y-118800684D01*
X163736300Y-118797930D01*
X163739955Y-118697233D01*
X163750946Y-118600071D01*
X163769144Y-118506800D01*
X163794421Y-118417779D01*
X163826648Y-118333365D01*
X163865696Y-118253916D01*
X163911436Y-118179790D01*
X163963740Y-118111344D01*
X163996406Y-118075045D01*
X164061357Y-118013375D01*
X164131621Y-117958857D01*
X164207202Y-117911490D01*
X164288100Y-117871273D01*
X164374319Y-117838205D01*
X164465861Y-117812284D01*
X164512766Y-117802171D01*
X164544475Y-117796123D01*
X164572471Y-117791147D01*
X164598119Y-117787142D01*
X164622789Y-117784005D01*
X164647846Y-117781633D01*
X164674660Y-117779923D01*
X164704596Y-117778773D01*
X164739023Y-117778080D01*
X164779307Y-117777741D01*
X164826817Y-117777653D01*
X164839070Y-117777658D01*
X164839070Y-117777658D01*
G37*
X164839070Y-117777658D02*
X164908232Y-117778043D01*
X164970121Y-117779188D01*
X165026356Y-117781220D01*
X165078552Y-117784266D01*
X165128328Y-117788454D01*
X165177301Y-117793914D01*
X165227089Y-117800771D01*
X165279308Y-117809155D01*
X165313649Y-117815182D01*
X165343800Y-117820951D01*
X165374837Y-117827480D01*
X165405330Y-117834408D01*
X165433847Y-117841376D01*
X165458956Y-117848024D01*
X165479228Y-117853992D01*
X165493231Y-117858922D01*
X165498705Y-117861682D01*
X165500725Y-117863976D01*
X165501880Y-117868015D01*
X165502055Y-117874819D01*
X165501133Y-117885413D01*
X165498998Y-117900820D01*
X165495532Y-117922063D01*
X165490620Y-117950166D01*
X165485197Y-117980340D01*
X165479549Y-118011379D01*
X165474318Y-118039788D01*
X165469741Y-118064304D01*
X165466056Y-118083665D01*
X165463499Y-118096609D01*
X165462381Y-118101658D01*
X165461550Y-118103133D01*
X165459579Y-118104411D01*
X165455869Y-118105504D01*
X165449817Y-118106428D01*
X165440823Y-118107196D01*
X165428286Y-118107823D01*
X165411605Y-118108322D01*
X165390179Y-118108709D01*
X165363406Y-118108997D01*
X165330687Y-118109201D01*
X165291420Y-118109335D01*
X165245004Y-118109412D01*
X165190838Y-118109448D01*
X165132699Y-118109456D01*
X165065477Y-118109526D01*
X165003664Y-118109732D01*
X164947711Y-118110069D01*
X164898072Y-118110530D01*
X164855198Y-118111109D01*
X164819542Y-118111802D01*
X164791556Y-118112601D01*
X164771692Y-118113502D01*
X164762438Y-118114235D01*
X164691944Y-118126190D01*
X164626081Y-118145682D01*
X164565113Y-118172483D01*
X164509302Y-118206362D01*
X164458911Y-118247089D01*
X164414202Y-118294434D01*
X164375437Y-118348168D01*
X164342880Y-118408061D01*
X164316794Y-118473882D01*
X164304658Y-118514965D01*
X164291127Y-118576874D01*
X164283039Y-118637291D01*
X164280375Y-118695156D01*
X164283119Y-118749414D01*
X164291252Y-118799006D01*
X164304757Y-118842876D01*
X164310390Y-118855918D01*
X164327200Y-118886166D01*
X164350305Y-118919432D01*
X164378344Y-118954173D01*
X164409955Y-118988848D01*
X164443779Y-119021912D01*
X164478451Y-119051824D01*
X164493719Y-119063658D01*
X164516817Y-119079730D01*
X164546774Y-119098732D01*
X164582318Y-119119942D01*
X164622180Y-119142637D01*
X164665088Y-119166094D01*
X164709772Y-119189589D01*
X164754961Y-119212401D01*
X164756631Y-119213225D01*
X164804959Y-119237354D01*
X164846449Y-119258827D01*
X164882469Y-119278470D01*
X164914386Y-119297107D01*
X164943565Y-119315564D01*
X164971376Y-119334666D01*
X164999183Y-119355237D01*
X165024000Y-119374624D01*
X165084946Y-119427307D01*
X165137668Y-119481920D01*
X165182789Y-119539318D01*
X165220933Y-119600356D01*
X165252722Y-119665889D01*
X165271161Y-119713840D01*
X165281537Y-119745573D01*
X165289417Y-119774807D01*
X165295100Y-119803621D01*
X165298880Y-119834091D01*
X165301055Y-119868295D01*
X165301920Y-119908312D01*
X165301959Y-119929789D01*
X165297842Y-120024877D01*
X165286217Y-120118875D01*
X165267359Y-120210901D01*
X165241544Y-120300073D01*
X165209047Y-120385508D01*
X165170145Y-120466325D01*
X165125112Y-120541642D01*
X165099353Y-120578354D01*
X165080248Y-120602383D01*
X165056178Y-120630011D01*
X165029087Y-120659207D01*
X165000919Y-120687943D01*
X164973618Y-120714186D01*
X164949128Y-120735908D01*
X164945962Y-120738532D01*
X164896310Y-120776137D01*
X164843067Y-120810145D01*
X164783714Y-120842151D01*
X164776684Y-120845628D01*
X164701617Y-120878871D01*
X164621793Y-120907185D01*
X164536599Y-120930716D01*
X164445421Y-120949610D01*
X164347645Y-120964014D01*
X164242658Y-120974072D01*
X164235263Y-120974601D01*
X164208758Y-120976002D01*
X164175092Y-120977082D01*
X164136008Y-120977839D01*
X164093252Y-120978275D01*
X164048567Y-120978391D01*
X164003699Y-120978187D01*
X163960391Y-120977665D01*
X163920388Y-120976824D01*
X163885436Y-120975667D01*
X163860947Y-120974431D01*
X163727534Y-120962910D01*
X163599601Y-120945275D01*
X163517824Y-120930258D01*
X163487010Y-120923672D01*
X163457362Y-120916694D01*
X163430097Y-120909674D01*
X163406433Y-120902962D01*
X163387586Y-120896906D01*
X163374775Y-120891856D01*
X163369217Y-120888162D01*
X163369087Y-120887577D01*
X163369989Y-120882245D01*
X163372259Y-120869323D01*
X163375685Y-120849991D01*
X163380060Y-120825431D01*
X163385171Y-120796823D01*
X163390810Y-120765349D01*
X163390964Y-120764494D01*
X163412298Y-120645584D01*
X163787017Y-120643783D01*
X163855342Y-120643435D01*
X163915386Y-120643082D01*
X163967779Y-120642710D01*
X164013153Y-120642305D01*
X164052139Y-120641854D01*
X164085368Y-120641341D01*
X164113469Y-120640754D01*
X164137076Y-120640078D01*
X164156818Y-120639300D01*
X164173327Y-120638405D01*
X164187233Y-120637381D01*
X164199168Y-120636213D01*
X164209762Y-120634886D01*
X164212982Y-120634425D01*
X164286760Y-120621270D01*
X164353058Y-120604513D01*
X164412691Y-120583809D01*
X164466476Y-120558811D01*
X164515228Y-120529173D01*
X164559764Y-120494548D01*
X164574922Y-120480796D01*
X164618429Y-120433774D01*
X164656632Y-120380060D01*
X164689211Y-120320349D01*
X164715850Y-120255335D01*
X164736231Y-120185714D01*
X164750034Y-120112180D01*
X164752467Y-120092855D01*
X164755338Y-120031845D01*
X164749759Y-119973620D01*
X164735713Y-119918135D01*
X164713182Y-119865340D01*
X164682148Y-119815189D01*
X164642594Y-119767633D01*
X164622859Y-119747873D01*
X164602307Y-119728909D01*
X164582025Y-119711570D01*
X164560935Y-119695159D01*
X164537962Y-119678976D01*
X164512030Y-119662323D01*
X164482063Y-119644503D01*
X164446985Y-119624815D01*
X164405721Y-119602562D01*
X164370151Y-119583813D01*
X164303124Y-119548493D01*
X164243536Y-119516526D01*
X164190751Y-119487490D01*
X164144136Y-119460960D01*
X164103056Y-119436514D01*
X164066878Y-119413727D01*
X164034968Y-119392176D01*
X164006690Y-119371438D01*
X163981412Y-119351088D01*
X163958499Y-119330704D01*
X163937317Y-119309861D01*
X163917232Y-119288137D01*
X163903335Y-119271999D01*
X163857202Y-119212015D01*
X163819055Y-119151180D01*
X163788559Y-119088536D01*
X163765373Y-119023123D01*
X163749161Y-118953983D01*
X163739584Y-118880156D01*
X163736304Y-118800684D01*
X163736300Y-118797930D01*
X163739955Y-118697233D01*
X163750946Y-118600071D01*
X163769144Y-118506800D01*
X163794421Y-118417779D01*
X163826648Y-118333365D01*
X163865696Y-118253916D01*
X163911436Y-118179790D01*
X163963740Y-118111344D01*
X163996406Y-118075045D01*
X164061357Y-118013375D01*
X164131621Y-117958857D01*
X164207202Y-117911490D01*
X164288100Y-117871273D01*
X164374319Y-117838205D01*
X164465861Y-117812284D01*
X164512766Y-117802171D01*
X164544475Y-117796123D01*
X164572471Y-117791147D01*
X164598119Y-117787142D01*
X164622789Y-117784005D01*
X164647846Y-117781633D01*
X164674660Y-117779923D01*
X164704596Y-117778773D01*
X164739023Y-117778080D01*
X164779307Y-117777741D01*
X164826817Y-117777653D01*
X164839070Y-117777658D01*
G36*
X163637376Y-117992470D02*
X163630687Y-118030701D01*
X163624507Y-118066275D01*
X163619002Y-118098215D01*
X163614338Y-118125544D01*
X163610682Y-118147286D01*
X163608201Y-118162462D01*
X163607060Y-118170096D01*
X163607004Y-118170728D01*
X163605375Y-118171586D01*
X163600242Y-118172356D01*
X163591212Y-118173044D01*
X163577890Y-118173653D01*
X163559882Y-118174187D01*
X163536792Y-118174651D01*
X163508226Y-118175047D01*
X163473791Y-118175381D01*
X163433091Y-118175656D01*
X163385731Y-118175876D01*
X163331318Y-118176045D01*
X163269457Y-118176168D01*
X163199753Y-118176248D01*
X163121812Y-118176290D01*
X163061155Y-118176298D01*
X162515362Y-118176298D01*
X162513089Y-118186324D01*
X162512023Y-118191967D01*
X162509503Y-118205815D01*
X162505631Y-118227295D01*
X162500510Y-118255838D01*
X162494241Y-118290873D01*
X162486927Y-118331828D01*
X162478669Y-118378132D01*
X162469569Y-118429214D01*
X162459728Y-118484504D01*
X162449250Y-118543429D01*
X162438235Y-118605420D01*
X162426786Y-118669905D01*
X162423837Y-118686526D01*
X162412294Y-118751551D01*
X162401160Y-118814226D01*
X162390537Y-118873980D01*
X162380526Y-118930242D01*
X162371229Y-118982441D01*
X162362749Y-119030007D01*
X162355187Y-119072367D01*
X162348645Y-119108951D01*
X162343225Y-119139189D01*
X162339029Y-119162508D01*
X162336159Y-119178338D01*
X162334716Y-119186108D01*
X162334589Y-119186728D01*
X162332321Y-119196754D01*
X162786669Y-119196754D01*
X162849522Y-119196786D01*
X162909833Y-119196880D01*
X162967009Y-119197030D01*
X163020455Y-119197233D01*
X163069578Y-119197484D01*
X163113783Y-119197779D01*
X163152477Y-119198113D01*
X163185067Y-119198483D01*
X163210958Y-119198883D01*
X163229556Y-119199310D01*
X163240267Y-119199759D01*
X163242765Y-119200096D01*
X163242366Y-119204978D01*
X163240583Y-119217482D01*
X163237614Y-119236459D01*
X163233660Y-119260760D01*
X163228918Y-119289238D01*
X163223588Y-119320743D01*
X163217869Y-119354128D01*
X163211960Y-119388242D01*
X163206060Y-119421939D01*
X163200368Y-119454069D01*
X163195084Y-119483483D01*
X163190405Y-119509033D01*
X163186531Y-119529571D01*
X163183662Y-119543948D01*
X163181996Y-119551015D01*
X163181913Y-119551250D01*
X163180591Y-119552309D01*
X163177160Y-119553248D01*
X163171130Y-119554074D01*
X163162013Y-119554794D01*
X163149320Y-119555416D01*
X163132562Y-119555945D01*
X163111250Y-119556389D01*
X163084895Y-119556755D01*
X163053009Y-119557049D01*
X163015103Y-119557279D01*
X162970687Y-119557451D01*
X162919273Y-119557572D01*
X162860373Y-119557650D01*
X162793496Y-119557691D01*
X162724856Y-119557702D01*
X162270275Y-119557702D01*
X162268010Y-119567728D01*
X162267001Y-119573194D01*
X162264556Y-119586954D01*
X162260758Y-119608525D01*
X162255691Y-119637418D01*
X162249442Y-119673149D01*
X162242094Y-119715232D01*
X162233732Y-119763179D01*
X162224441Y-119816507D01*
X162214305Y-119874727D01*
X162203409Y-119937355D01*
X162191839Y-120003904D01*
X162179678Y-120073889D01*
X162167011Y-120146823D01*
X162153923Y-120222221D01*
X162149766Y-120246175D01*
X162136565Y-120322242D01*
X162123758Y-120395997D01*
X162111431Y-120466954D01*
X162099668Y-120534628D01*
X162088554Y-120598531D01*
X162078173Y-120658179D01*
X162068611Y-120713085D01*
X162059952Y-120762764D01*
X162052280Y-120806729D01*
X162045681Y-120844494D01*
X162040238Y-120875573D01*
X162036038Y-120899481D01*
X162033164Y-120915731D01*
X162031700Y-120923837D01*
X162031546Y-120924623D01*
X162029304Y-120934649D01*
X161762020Y-120934649D01*
X161704371Y-120934613D01*
X161655079Y-120934498D01*
X161613590Y-120934293D01*
X161579349Y-120933985D01*
X161551801Y-120933563D01*
X161530391Y-120933016D01*
X161514566Y-120932332D01*
X161503770Y-120931500D01*
X161497448Y-120930507D01*
X161495046Y-120929343D01*
X161494988Y-120929079D01*
X161495770Y-120924322D01*
X161498042Y-120911101D01*
X161501749Y-120889731D01*
X161506836Y-120860526D01*
X161513247Y-120823800D01*
X161520928Y-120779867D01*
X161529823Y-120729041D01*
X161539877Y-120671637D01*
X161551035Y-120607967D01*
X161563243Y-120538347D01*
X161576444Y-120463090D01*
X161590584Y-120382510D01*
X161605608Y-120296922D01*
X161621461Y-120206640D01*
X161638087Y-120111977D01*
X161655431Y-120013248D01*
X161673439Y-119910767D01*
X161692055Y-119804847D01*
X161711225Y-119695804D01*
X161730892Y-119583950D01*
X161751002Y-119469601D01*
X161768034Y-119372772D01*
X162040829Y-117822035D01*
X163667691Y-117819783D01*
X163637376Y-117992470D01*
X163637376Y-117992470D01*
G37*
X163637376Y-117992470D02*
X163630687Y-118030701D01*
X163624507Y-118066275D01*
X163619002Y-118098215D01*
X163614338Y-118125544D01*
X163610682Y-118147286D01*
X163608201Y-118162462D01*
X163607060Y-118170096D01*
X163607004Y-118170728D01*
X163605375Y-118171586D01*
X163600242Y-118172356D01*
X163591212Y-118173044D01*
X163577890Y-118173653D01*
X163559882Y-118174187D01*
X163536792Y-118174651D01*
X163508226Y-118175047D01*
X163473791Y-118175381D01*
X163433091Y-118175656D01*
X163385731Y-118175876D01*
X163331318Y-118176045D01*
X163269457Y-118176168D01*
X163199753Y-118176248D01*
X163121812Y-118176290D01*
X163061155Y-118176298D01*
X162515362Y-118176298D01*
X162513089Y-118186324D01*
X162512023Y-118191967D01*
X162509503Y-118205815D01*
X162505631Y-118227295D01*
X162500510Y-118255838D01*
X162494241Y-118290873D01*
X162486927Y-118331828D01*
X162478669Y-118378132D01*
X162469569Y-118429214D01*
X162459728Y-118484504D01*
X162449250Y-118543429D01*
X162438235Y-118605420D01*
X162426786Y-118669905D01*
X162423837Y-118686526D01*
X162412294Y-118751551D01*
X162401160Y-118814226D01*
X162390537Y-118873980D01*
X162380526Y-118930242D01*
X162371229Y-118982441D01*
X162362749Y-119030007D01*
X162355187Y-119072367D01*
X162348645Y-119108951D01*
X162343225Y-119139189D01*
X162339029Y-119162508D01*
X162336159Y-119178338D01*
X162334716Y-119186108D01*
X162334589Y-119186728D01*
X162332321Y-119196754D01*
X162786669Y-119196754D01*
X162849522Y-119196786D01*
X162909833Y-119196880D01*
X162967009Y-119197030D01*
X163020455Y-119197233D01*
X163069578Y-119197484D01*
X163113783Y-119197779D01*
X163152477Y-119198113D01*
X163185067Y-119198483D01*
X163210958Y-119198883D01*
X163229556Y-119199310D01*
X163240267Y-119199759D01*
X163242765Y-119200096D01*
X163242366Y-119204978D01*
X163240583Y-119217482D01*
X163237614Y-119236459D01*
X163233660Y-119260760D01*
X163228918Y-119289238D01*
X163223588Y-119320743D01*
X163217869Y-119354128D01*
X163211960Y-119388242D01*
X163206060Y-119421939D01*
X163200368Y-119454069D01*
X163195084Y-119483483D01*
X163190405Y-119509033D01*
X163186531Y-119529571D01*
X163183662Y-119543948D01*
X163181996Y-119551015D01*
X163181913Y-119551250D01*
X163180591Y-119552309D01*
X163177160Y-119553248D01*
X163171130Y-119554074D01*
X163162013Y-119554794D01*
X163149320Y-119555416D01*
X163132562Y-119555945D01*
X163111250Y-119556389D01*
X163084895Y-119556755D01*
X163053009Y-119557049D01*
X163015103Y-119557279D01*
X162970687Y-119557451D01*
X162919273Y-119557572D01*
X162860373Y-119557650D01*
X162793496Y-119557691D01*
X162724856Y-119557702D01*
X162270275Y-119557702D01*
X162268010Y-119567728D01*
X162267001Y-119573194D01*
X162264556Y-119586954D01*
X162260758Y-119608525D01*
X162255691Y-119637418D01*
X162249442Y-119673149D01*
X162242094Y-119715232D01*
X162233732Y-119763179D01*
X162224441Y-119816507D01*
X162214305Y-119874727D01*
X162203409Y-119937355D01*
X162191839Y-120003904D01*
X162179678Y-120073889D01*
X162167011Y-120146823D01*
X162153923Y-120222221D01*
X162149766Y-120246175D01*
X162136565Y-120322242D01*
X162123758Y-120395997D01*
X162111431Y-120466954D01*
X162099668Y-120534628D01*
X162088554Y-120598531D01*
X162078173Y-120658179D01*
X162068611Y-120713085D01*
X162059952Y-120762764D01*
X162052280Y-120806729D01*
X162045681Y-120844494D01*
X162040238Y-120875573D01*
X162036038Y-120899481D01*
X162033164Y-120915731D01*
X162031700Y-120923837D01*
X162031546Y-120924623D01*
X162029304Y-120934649D01*
X161762020Y-120934649D01*
X161704371Y-120934613D01*
X161655079Y-120934498D01*
X161613590Y-120934293D01*
X161579349Y-120933985D01*
X161551801Y-120933563D01*
X161530391Y-120933016D01*
X161514566Y-120932332D01*
X161503770Y-120931500D01*
X161497448Y-120930507D01*
X161495046Y-120929343D01*
X161494988Y-120929079D01*
X161495770Y-120924322D01*
X161498042Y-120911101D01*
X161501749Y-120889731D01*
X161506836Y-120860526D01*
X161513247Y-120823800D01*
X161520928Y-120779867D01*
X161529823Y-120729041D01*
X161539877Y-120671637D01*
X161551035Y-120607967D01*
X161563243Y-120538347D01*
X161576444Y-120463090D01*
X161590584Y-120382510D01*
X161605608Y-120296922D01*
X161621461Y-120206640D01*
X161638087Y-120111977D01*
X161655431Y-120013248D01*
X161673439Y-119910767D01*
X161692055Y-119804847D01*
X161711225Y-119695804D01*
X161730892Y-119583950D01*
X161751002Y-119469601D01*
X161768034Y-119372772D01*
X162040829Y-117822035D01*
X163667691Y-117819783D01*
X163637376Y-117992470D01*
D12*
X161391667Y-125103571D02*
X161058333Y-125103571D01*
X161058333Y-125627381D02*
X161058333Y-124627381D01*
X161534524Y-124627381D01*
X161820238Y-124627381D02*
X162439286Y-124627381D01*
X162105952Y-125008333D01*
X162248810Y-125008333D01*
X162344048Y-125055952D01*
X162391667Y-125103571D01*
X162439286Y-125198810D01*
X162439286Y-125436905D01*
X162391667Y-125532143D01*
X162344048Y-125579762D01*
X162248810Y-125627381D01*
X161963095Y-125627381D01*
X161867857Y-125579762D01*
X161820238Y-125532143D01*
X132491667Y-120778571D02*
X132158333Y-120778571D01*
X132158333Y-121302381D02*
X132158333Y-120302381D01*
X132634524Y-120302381D01*
X132967857Y-120397619D02*
X133015476Y-120350000D01*
X133110714Y-120302381D01*
X133348810Y-120302381D01*
X133444048Y-120350000D01*
X133491667Y-120397619D01*
X133539286Y-120492857D01*
X133539286Y-120588095D01*
X133491667Y-120730952D01*
X132920238Y-121302381D01*
X133539286Y-121302381D01*
X149208334Y-103032143D02*
X149160715Y-103079762D01*
X149017858Y-103127381D01*
X148922620Y-103127381D01*
X148779762Y-103079762D01*
X148684524Y-102984524D01*
X148636905Y-102889286D01*
X148589286Y-102698810D01*
X148589286Y-102555952D01*
X148636905Y-102365476D01*
X148684524Y-102270238D01*
X148779762Y-102175000D01*
X148922620Y-102127381D01*
X149017858Y-102127381D01*
X149160715Y-102175000D01*
X149208334Y-102222619D01*
X150160715Y-103127381D02*
X149589286Y-103127381D01*
X149875000Y-103127381D02*
X149875000Y-102127381D01*
X149779762Y-102270238D01*
X149684524Y-102365476D01*
X149589286Y-102413095D01*
X148683342Y-91758257D02*
X148683342Y-91825600D01*
X148615998Y-91960287D01*
X148548655Y-92027631D01*
X148413967Y-92094975D01*
X148279280Y-92094975D01*
X148178265Y-92061303D01*
X148009907Y-91960288D01*
X147908891Y-91859272D01*
X147807876Y-91690913D01*
X147774204Y-91589898D01*
X147774204Y-91455211D01*
X147841548Y-91320524D01*
X147908891Y-91253180D01*
X148043578Y-91185837D01*
X148110922Y-91185837D01*
X148380295Y-90916463D02*
X148380295Y-90849120D01*
X148413967Y-90748105D01*
X148582326Y-90579745D01*
X148683342Y-90546074D01*
X148750685Y-90546074D01*
X148851700Y-90579745D01*
X148919044Y-90647089D01*
X148986387Y-90781776D01*
X148986387Y-91589898D01*
X149424120Y-91152165D01*
X160702381Y-124988095D02*
X159702381Y-124988095D01*
X159702381Y-124750000D01*
X159750000Y-124607142D01*
X159845238Y-124511904D01*
X159940476Y-124464285D01*
X160130952Y-124416666D01*
X160273810Y-124416666D01*
X160464286Y-124464285D01*
X160559524Y-124511904D01*
X160654762Y-124607142D01*
X160702381Y-124750000D01*
X160702381Y-124988095D01*
X159797619Y-124035714D02*
X159750000Y-123988095D01*
X159702381Y-123892857D01*
X159702381Y-123654761D01*
X159750000Y-123559523D01*
X159797619Y-123511904D01*
X159892857Y-123464285D01*
X159988095Y-123464285D01*
X160130952Y-123511904D01*
X160702381Y-124083333D01*
X160702381Y-123464285D01*
X157952381Y-124987395D02*
X156952381Y-124987395D01*
X156952381Y-124749300D01*
X157000000Y-124606442D01*
X157095238Y-124511204D01*
X157190476Y-124463585D01*
X157380952Y-124415966D01*
X157523810Y-124415966D01*
X157714286Y-124463585D01*
X157809524Y-124511204D01*
X157904762Y-124606442D01*
X157952381Y-124749300D01*
X157952381Y-124987395D01*
X156952381Y-124082633D02*
X156952381Y-123463585D01*
X157333333Y-123796919D01*
X157333333Y-123654061D01*
X157380952Y-123558823D01*
X157428571Y-123511204D01*
X157523810Y-123463585D01*
X157761905Y-123463585D01*
X157857143Y-123511204D01*
X157904762Y-123558823D01*
X157952381Y-123654061D01*
X157952381Y-123939776D01*
X157904762Y-124035014D01*
X157857143Y-124082633D01*
X155202381Y-124988095D02*
X154202381Y-124988095D01*
X154202381Y-124750000D01*
X154250000Y-124607142D01*
X154345238Y-124511904D01*
X154440476Y-124464285D01*
X154630952Y-124416666D01*
X154773810Y-124416666D01*
X154964286Y-124464285D01*
X155059524Y-124511904D01*
X155154762Y-124607142D01*
X155202381Y-124750000D01*
X155202381Y-124988095D01*
X154535714Y-123559523D02*
X155202381Y-123559523D01*
X154154762Y-123797619D02*
X154869048Y-124035714D01*
X154869048Y-123416666D01*
X160752381Y-120666666D02*
X160276190Y-121000000D01*
X160752381Y-121238095D02*
X159752381Y-121238095D01*
X159752381Y-120857142D01*
X159800000Y-120761904D01*
X159847619Y-120714285D01*
X159942857Y-120666666D01*
X160085714Y-120666666D01*
X160180952Y-120714285D01*
X160228571Y-120761904D01*
X160276190Y-120857142D01*
X160276190Y-121238095D01*
X159847619Y-120285714D02*
X159800000Y-120238095D01*
X159752381Y-120142857D01*
X159752381Y-119904761D01*
X159800000Y-119809523D01*
X159847619Y-119761904D01*
X159942857Y-119714285D01*
X160038095Y-119714285D01*
X160180952Y-119761904D01*
X160752381Y-120333333D01*
X160752381Y-119714285D01*
X157902381Y-120641666D02*
X157426190Y-120975000D01*
X157902381Y-121213095D02*
X156902381Y-121213095D01*
X156902381Y-120832142D01*
X156950000Y-120736904D01*
X156997619Y-120689285D01*
X157092857Y-120641666D01*
X157235714Y-120641666D01*
X157330952Y-120689285D01*
X157378571Y-120736904D01*
X157426190Y-120832142D01*
X157426190Y-121213095D01*
X156902381Y-120308333D02*
X156902381Y-119689285D01*
X157283333Y-120022619D01*
X157283333Y-119879761D01*
X157330952Y-119784523D01*
X157378571Y-119736904D01*
X157473810Y-119689285D01*
X157711905Y-119689285D01*
X157807143Y-119736904D01*
X157854762Y-119784523D01*
X157902381Y-119879761D01*
X157902381Y-120165476D01*
X157854762Y-120260714D01*
X157807143Y-120308333D01*
X155177381Y-120641666D02*
X154701190Y-120975000D01*
X155177381Y-121213095D02*
X154177381Y-121213095D01*
X154177381Y-120832142D01*
X154225000Y-120736904D01*
X154272619Y-120689285D01*
X154367857Y-120641666D01*
X154510714Y-120641666D01*
X154605952Y-120689285D01*
X154653571Y-120736904D01*
X154701190Y-120832142D01*
X154701190Y-121213095D01*
X154510714Y-119784523D02*
X155177381Y-119784523D01*
X154129762Y-120022619D02*
X154844048Y-120260714D01*
X154844048Y-119641666D01*
X151377381Y-98511905D02*
X152186905Y-98511905D01*
X152282143Y-98464286D01*
X152329762Y-98416667D01*
X152377381Y-98321429D01*
X152377381Y-98130952D01*
X152329762Y-98035714D01*
X152282143Y-97988095D01*
X152186905Y-97940476D01*
X151377381Y-97940476D01*
X151377381Y-97559524D02*
X151377381Y-96940476D01*
X151758333Y-97273810D01*
X151758333Y-97130952D01*
X151805952Y-97035714D01*
X151853571Y-96988095D01*
X151948810Y-96940476D01*
X152186905Y-96940476D01*
X152282143Y-96988095D01*
X152329762Y-97035714D01*
X152377381Y-97130952D01*
X152377381Y-97416667D01*
X152329762Y-97511905D01*
X152282143Y-97559524D01*
X132641667Y-95053571D02*
X132308333Y-95053571D01*
X132308333Y-95577381D02*
X132308333Y-94577381D01*
X132784524Y-94577381D01*
X133689286Y-95577381D02*
X133117857Y-95577381D01*
X133403571Y-95577381D02*
X133403571Y-94577381D01*
X133308333Y-94720238D01*
X133213095Y-94815476D01*
X133117857Y-94863095D01*
M02*
