G04 #@! TF.FileFunction,Soldermask,Bot*
%FSLAX46Y46*%
G04 Gerber Fmt 4.6, Leading zero omitted, Abs format (unit mm)*
G04 Created by KiCad (PCBNEW 4.0.1-stable) date Wednesday, February 10, 2016 'AMt' 10:32:58 AM*
%MOMM*%
G01*
G04 APERTURE LIST*
%ADD10C,0.100000*%
%ADD11C,2.000000*%
%ADD12R,1.060000X0.630000*%
%ADD13R,1.060000X0.750000*%
%ADD14R,1.600000X1.150000*%
%ADD15R,0.700000X1.150000*%
%ADD16R,1.125000X1.275000*%
%ADD17R,1.300000X1.600000*%
%ADD18C,1.924000*%
%ADD19R,2.127200X2.127200*%
%ADD20O,2.127200X2.127200*%
%ADD21R,2.432000X2.432000*%
%ADD22O,2.432000X2.432000*%
%ADD23R,1.200100X2.200860*%
%ADD24R,1.600000X1.300000*%
%ADD25O,1.210000X0.500000*%
%ADD26O,0.500000X1.210000*%
%ADD27R,2.270000X2.270000*%
%ADD28R,2.127200X2.432000*%
%ADD29O,2.127200X2.432000*%
%ADD30R,1.060400X0.806400*%
%ADD31R,1.850000X0.850000*%
G04 APERTURE END LIST*
D10*
D11*
X134775000Y-94700000D03*
X134775000Y-120775000D03*
X160650000Y-122325000D03*
D12*
X161005000Y-115800000D03*
X158295000Y-115800000D03*
X161005000Y-100200000D03*
X158295000Y-100200000D03*
X161005000Y-115400000D03*
X161005000Y-115000000D03*
X161005000Y-114600000D03*
X161005000Y-114200000D03*
X161005000Y-113800000D03*
X161005000Y-113400000D03*
X161005000Y-113000000D03*
X161005000Y-112600000D03*
X161005000Y-112200000D03*
X161005000Y-111800000D03*
X161005000Y-111400000D03*
X161005000Y-111000000D03*
X161005000Y-110600000D03*
X161005000Y-110200000D03*
X161005000Y-109800000D03*
X161005000Y-109400000D03*
X161005000Y-109000000D03*
X161005000Y-108600000D03*
X161005000Y-108200000D03*
X161005000Y-107800000D03*
X161005000Y-107400000D03*
X161005000Y-107000000D03*
X161005000Y-106600000D03*
X161005000Y-106200000D03*
X161005000Y-105800000D03*
X161005000Y-105400000D03*
X161005000Y-105000000D03*
X161005000Y-104600000D03*
X161005000Y-104200000D03*
X161005000Y-103800000D03*
X161005000Y-103400000D03*
X161005000Y-103000000D03*
X161005000Y-102600000D03*
X161005000Y-102200000D03*
X161005000Y-101800000D03*
X161005000Y-101400000D03*
X161005000Y-101000000D03*
X161005000Y-100600000D03*
D13*
X161005000Y-99725000D03*
X158295000Y-99725000D03*
X161005000Y-116275000D03*
X158295000Y-116275000D03*
D12*
X158295000Y-100600000D03*
X158295000Y-101000000D03*
X158295000Y-101400000D03*
X158295000Y-101800000D03*
X158295000Y-102200000D03*
X158295000Y-102600000D03*
X158295000Y-103000000D03*
X158295000Y-103400000D03*
X158295000Y-103800000D03*
X158295000Y-104200000D03*
X158295000Y-104600000D03*
X158295000Y-105000000D03*
X158295000Y-105400000D03*
X158295000Y-105800000D03*
X158295000Y-106200000D03*
X158295000Y-106600000D03*
X158295000Y-107000000D03*
X158295000Y-107400000D03*
X158295000Y-107800000D03*
X158295000Y-108200000D03*
X158295000Y-108600000D03*
X158295000Y-109000000D03*
X158295000Y-109400000D03*
X158295000Y-109800000D03*
X158295000Y-110200000D03*
X158295000Y-110600000D03*
X158295000Y-111000000D03*
X158295000Y-111400000D03*
X158295000Y-111800000D03*
X158295000Y-112200000D03*
X158295000Y-112600000D03*
X158295000Y-113000000D03*
X158295000Y-113400000D03*
X158295000Y-113800000D03*
X158295000Y-114200000D03*
X158295000Y-114600000D03*
X158295000Y-115000000D03*
X158295000Y-115400000D03*
D14*
X153575000Y-108125000D03*
X151675000Y-108125000D03*
D15*
X152850000Y-106050000D03*
X152350000Y-106050000D03*
X151850000Y-106050000D03*
X151350000Y-106050000D03*
X151350000Y-103150000D03*
X151850000Y-103150000D03*
X152350000Y-103150000D03*
X152850000Y-103150000D03*
D16*
X151737500Y-104162500D03*
X152462500Y-104162500D03*
X151737500Y-105037500D03*
X152462500Y-105037500D03*
D17*
X152850000Y-98650000D03*
X152850000Y-100850000D03*
D18*
X158550000Y-91250000D03*
D19*
X133940000Y-117685000D03*
D20*
X131400000Y-117685000D03*
X133940000Y-115145000D03*
X131400000Y-115145000D03*
X133940000Y-112605000D03*
X131400000Y-112605000D03*
X133940000Y-110065000D03*
X131400000Y-110065000D03*
X133940000Y-107525000D03*
X131400000Y-107525000D03*
X133940000Y-104985000D03*
X131400000Y-104985000D03*
X133940000Y-102445000D03*
X131400000Y-102445000D03*
X133940000Y-99905000D03*
X131400000Y-99905000D03*
D21*
X138100000Y-121875000D03*
D22*
X138100000Y-124415000D03*
D23*
X143325000Y-115373860D03*
X145225000Y-115373860D03*
X144275000Y-118376140D03*
D24*
X143875000Y-105775000D03*
X146075000Y-105775000D03*
D25*
X141945000Y-113900000D03*
D26*
X141150000Y-114945000D03*
X140650000Y-114945000D03*
X140150000Y-114945000D03*
X139650000Y-114945000D03*
X139150000Y-114945000D03*
D25*
X138355000Y-113900000D03*
X138355000Y-112400000D03*
D26*
X139150000Y-111355000D03*
X139650000Y-111355000D03*
X140150000Y-111355000D03*
X140650000Y-111355000D03*
X141150000Y-111355000D03*
D25*
X141945000Y-112400000D03*
D27*
X140150000Y-113150000D03*
D28*
X137875000Y-91575000D03*
D29*
X140415000Y-91575000D03*
X142955000Y-91575000D03*
X145495000Y-91575000D03*
D30*
X139591000Y-117089600D03*
X139591000Y-118410400D03*
X139591000Y-117750000D03*
X137559000Y-118410400D03*
X137559000Y-117089600D03*
D31*
X139275000Y-102750000D03*
X139275000Y-102100000D03*
X139275000Y-101450000D03*
X139275000Y-100800000D03*
X139275000Y-100150000D03*
X139275000Y-99500000D03*
X139275000Y-98850000D03*
X139275000Y-98200000D03*
X139275000Y-97550000D03*
X139275000Y-96900000D03*
X145175000Y-96900000D03*
X145175000Y-97550000D03*
X145175000Y-98200000D03*
X145175000Y-98850000D03*
X145175000Y-99500000D03*
X145175000Y-100150000D03*
X145175000Y-100800000D03*
X145175000Y-101450000D03*
X145175000Y-102100000D03*
X145175000Y-102750000D03*
D24*
X143575000Y-112500000D03*
X145775000Y-112500000D03*
M02*
