G04 #@! TF.FileFunction,Paste,Bot*
%FSLAX46Y46*%
G04 Gerber Fmt 4.6, Leading zero omitted, Abs format (unit mm)*
G04 Created by KiCad (PCBNEW 4.0.1-stable) date Tuesday, April 12, 2016 'PMt' 11:02:27 PM*
%MOMM*%
G01*
G04 APERTURE LIST*
%ADD10C,0.100000*%
%ADD11R,0.660000X0.230000*%
%ADD12R,0.660000X0.350000*%
%ADD13R,1.200000X0.750000*%
%ADD14R,0.300000X0.750000*%
%ADD15R,0.435000X0.525000*%
%ADD16R,0.900000X1.200000*%
%ADD17R,0.800100X1.800860*%
%ADD18R,1.200000X0.900000*%
%ADD19R,1.450000X0.450000*%
%ADD20R,0.400000X1.100000*%
%ADD21O,0.890000X0.180000*%
%ADD22O,0.180000X0.890000*%
%ADD23R,0.725000X0.725000*%
G04 APERTURE END LIST*
D10*
D11*
X161005000Y-115800000D03*
X158295000Y-115800000D03*
X161005000Y-100200000D03*
X158295000Y-100200000D03*
X161005000Y-115400000D03*
X161005000Y-115000000D03*
X161005000Y-114600000D03*
X161005000Y-114200000D03*
X161005000Y-113800000D03*
X161005000Y-113400000D03*
X161005000Y-113000000D03*
X161005000Y-112600000D03*
X161005000Y-112200000D03*
X161005000Y-111800000D03*
X161005000Y-111400000D03*
X161005000Y-111000000D03*
X161005000Y-110600000D03*
X161005000Y-110200000D03*
X161005000Y-109800000D03*
X161005000Y-109400000D03*
X161005000Y-109000000D03*
X161005000Y-108600000D03*
X161005000Y-108200000D03*
X161005000Y-107800000D03*
X161005000Y-107400000D03*
X161005000Y-107000000D03*
X161005000Y-106600000D03*
X161005000Y-106200000D03*
X161005000Y-105800000D03*
X161005000Y-105400000D03*
X161005000Y-105000000D03*
X161005000Y-104600000D03*
X161005000Y-104200000D03*
X161005000Y-103800000D03*
X161005000Y-103400000D03*
X161005000Y-103000000D03*
X161005000Y-102600000D03*
X161005000Y-102200000D03*
X161005000Y-101800000D03*
X161005000Y-101400000D03*
X161005000Y-101000000D03*
X161005000Y-100600000D03*
D12*
X161005000Y-99725000D03*
X158295000Y-99725000D03*
X161005000Y-116275000D03*
X158295000Y-116275000D03*
D11*
X158295000Y-100600000D03*
X158295000Y-101000000D03*
X158295000Y-101400000D03*
X158295000Y-101800000D03*
X158295000Y-102200000D03*
X158295000Y-102600000D03*
X158295000Y-103000000D03*
X158295000Y-103400000D03*
X158295000Y-103800000D03*
X158295000Y-104200000D03*
X158295000Y-104600000D03*
X158295000Y-105000000D03*
X158295000Y-105400000D03*
X158295000Y-105800000D03*
X158295000Y-106200000D03*
X158295000Y-106600000D03*
X158295000Y-107000000D03*
X158295000Y-107400000D03*
X158295000Y-107800000D03*
X158295000Y-108200000D03*
X158295000Y-108600000D03*
X158295000Y-109000000D03*
X158295000Y-109400000D03*
X158295000Y-109800000D03*
X158295000Y-110200000D03*
X158295000Y-110600000D03*
X158295000Y-111000000D03*
X158295000Y-111400000D03*
X158295000Y-111800000D03*
X158295000Y-112200000D03*
X158295000Y-112600000D03*
X158295000Y-113000000D03*
X158295000Y-113400000D03*
X158295000Y-113800000D03*
X158295000Y-114200000D03*
X158295000Y-114600000D03*
X158295000Y-115000000D03*
X158295000Y-115400000D03*
D13*
X153575000Y-108125000D03*
X151675000Y-108125000D03*
D14*
X152850000Y-106050000D03*
X152350000Y-106050000D03*
X151850000Y-106050000D03*
X151350000Y-106050000D03*
X151350000Y-103150000D03*
X151850000Y-103150000D03*
X152350000Y-103150000D03*
X152850000Y-103150000D03*
D15*
X151737500Y-104162500D03*
X152462500Y-104162500D03*
X151737500Y-105037500D03*
X152462500Y-105037500D03*
D16*
X152850000Y-98650000D03*
X152850000Y-100850000D03*
D17*
X148900000Y-110150000D03*
X150800000Y-110150000D03*
X149850000Y-113152280D03*
D18*
X143875000Y-105775000D03*
X146075000Y-105775000D03*
D19*
X139275000Y-102750000D03*
X139275000Y-102100000D03*
X139275000Y-101450000D03*
X139275000Y-100800000D03*
X139275000Y-100150000D03*
X139275000Y-99500000D03*
X139275000Y-98850000D03*
X139275000Y-98200000D03*
X139275000Y-97550000D03*
X139275000Y-96900000D03*
X145175000Y-96900000D03*
X145175000Y-97550000D03*
X145175000Y-98200000D03*
X145175000Y-98850000D03*
X145175000Y-99500000D03*
X145175000Y-100150000D03*
X145175000Y-100800000D03*
X145175000Y-101450000D03*
X145175000Y-102100000D03*
X145175000Y-102750000D03*
D18*
X147550000Y-108150000D03*
X149750000Y-108150000D03*
D20*
X139075000Y-118750000D03*
X138425000Y-118750000D03*
X137775000Y-118750000D03*
X137125000Y-118750000D03*
X137125000Y-114450000D03*
X137775000Y-114450000D03*
X138425000Y-114450000D03*
X139075000Y-114450000D03*
D21*
X141845000Y-111000000D03*
D22*
X141050000Y-112045000D03*
X140550000Y-112045000D03*
X140050000Y-112045000D03*
X139550000Y-112045000D03*
X139050000Y-112045000D03*
D21*
X138255000Y-111000000D03*
X138255000Y-109500000D03*
D22*
X139050000Y-108455000D03*
X139550000Y-108455000D03*
X140050000Y-108455000D03*
X140550000Y-108455000D03*
X141050000Y-108455000D03*
D21*
X141845000Y-109500000D03*
D23*
X140550000Y-110750000D03*
X140550000Y-109750000D03*
X139550000Y-109750000D03*
X139550000Y-110750000D03*
M02*
