G04 #@! TF.FileFunction,Copper,L1,Top,Signal*
%FSLAX46Y46*%
G04 Gerber Fmt 4.6, Leading zero omitted, Abs format (unit mm)*
G04 Created by KiCad (PCBNEW 4.0.1-stable) date Wednesday, February 10, 2016 'AMt' 10:32:58 AM*
%MOMM*%
G01*
G04 APERTURE LIST*
%ADD10C,0.100000*%
%ADD11C,0.010000*%
%ADD12C,1.000000*%
%ADD13R,1.501140X0.398780*%
%ADD14R,1.200000X0.750000*%
%ADD15R,0.797560X0.797560*%
%ADD16R,1.727200X1.727200*%
%ADD17O,1.727200X1.727200*%
%ADD18R,2.032000X2.032000*%
%ADD19O,2.032000X2.032000*%
%ADD20R,0.900000X1.200000*%
%ADD21R,0.650000X1.060000*%
%ADD22R,1.727200X2.032000*%
%ADD23O,1.727200X2.032000*%
%ADD24R,0.700000X0.200000*%
%ADD25C,0.685800*%
%ADD26C,0.685801*%
%ADD27C,0.152400*%
%ADD28C,0.254000*%
G04 APERTURE END LIST*
D10*
D11*
G36*
X131647890Y-96018476D02*
X131669607Y-96018821D01*
X131688555Y-96019540D01*
X131705765Y-96020719D01*
X131722270Y-96022441D01*
X131739101Y-96024790D01*
X131757292Y-96027850D01*
X131772352Y-96030645D01*
X131812711Y-96039396D01*
X131854606Y-96050414D01*
X131896059Y-96063125D01*
X131935093Y-96076957D01*
X131942895Y-96079990D01*
X131972503Y-96091780D01*
X132001560Y-96103531D01*
X132030332Y-96115368D01*
X132059083Y-96127414D01*
X132088081Y-96139793D01*
X132117591Y-96152628D01*
X132147879Y-96166043D01*
X132179210Y-96180162D01*
X132211851Y-96195109D01*
X132246067Y-96211008D01*
X132282124Y-96227981D01*
X132320288Y-96246153D01*
X132360824Y-96265648D01*
X132403999Y-96286589D01*
X132450078Y-96309100D01*
X132499327Y-96333305D01*
X132552013Y-96359327D01*
X132608399Y-96387290D01*
X132668754Y-96417318D01*
X132684333Y-96425083D01*
X132736341Y-96450963D01*
X132784400Y-96474774D01*
X132828855Y-96496675D01*
X132870050Y-96516825D01*
X132908331Y-96535383D01*
X132944043Y-96552509D01*
X132977531Y-96568361D01*
X133009140Y-96583099D01*
X133039214Y-96596882D01*
X133068099Y-96609869D01*
X133096140Y-96622221D01*
X133123682Y-96634095D01*
X133151069Y-96645651D01*
X133178648Y-96657048D01*
X133206761Y-96668446D01*
X133235756Y-96680004D01*
X133241784Y-96682386D01*
X133259241Y-96689341D01*
X133275202Y-96695833D01*
X133289121Y-96701627D01*
X133300450Y-96706492D01*
X133308645Y-96710195D01*
X133313158Y-96712503D01*
X133313869Y-96713075D01*
X133312563Y-96715832D01*
X133308180Y-96721251D01*
X133301270Y-96728795D01*
X133292385Y-96737924D01*
X133282075Y-96748099D01*
X133270890Y-96758782D01*
X133259380Y-96769433D01*
X133248096Y-96779515D01*
X133237588Y-96788487D01*
X133233204Y-96792062D01*
X133182211Y-96830188D01*
X133126855Y-96866379D01*
X133067225Y-96900598D01*
X133003406Y-96932810D01*
X132935487Y-96962978D01*
X132863555Y-96991066D01*
X132787696Y-97017040D01*
X132707998Y-97040862D01*
X132624549Y-97062496D01*
X132537435Y-97081907D01*
X132523467Y-97084744D01*
X132463669Y-97095927D01*
X132407688Y-97104711D01*
X132355154Y-97111122D01*
X132305698Y-97115187D01*
X132258950Y-97116931D01*
X132214542Y-97116382D01*
X132172103Y-97113567D01*
X132152375Y-97111425D01*
X132107479Y-97104163D01*
X132066093Y-97093835D01*
X132028274Y-97080475D01*
X131994079Y-97064116D01*
X131963565Y-97044792D01*
X131936788Y-97022535D01*
X131913805Y-96997379D01*
X131894673Y-96969357D01*
X131887520Y-96956186D01*
X131878869Y-96937070D01*
X131871870Y-96916992D01*
X131866258Y-96894947D01*
X131861770Y-96869928D01*
X131858778Y-96846810D01*
X131857017Y-96831104D01*
X131809847Y-96826992D01*
X131795104Y-96825714D01*
X131781916Y-96824583D01*
X131771079Y-96823667D01*
X131763388Y-96823033D01*
X131759639Y-96822747D01*
X131759510Y-96822741D01*
X131757469Y-96821313D01*
X131757773Y-96820286D01*
X131756528Y-96819251D01*
X131751914Y-96818987D01*
X131745321Y-96819379D01*
X131738137Y-96820312D01*
X131731751Y-96821672D01*
X131728810Y-96822675D01*
X131725033Y-96823715D01*
X131717280Y-96825402D01*
X131706345Y-96827577D01*
X131693022Y-96830085D01*
X131678107Y-96832768D01*
X131674381Y-96833420D01*
X131618505Y-96842682D01*
X131565420Y-96850481D01*
X131513382Y-96857048D01*
X131460652Y-96862618D01*
X131444571Y-96864116D01*
X131429191Y-96865209D01*
X131410536Y-96866055D01*
X131389533Y-96866653D01*
X131367109Y-96867003D01*
X131344192Y-96867105D01*
X131321706Y-96866958D01*
X131300581Y-96866562D01*
X131281741Y-96865917D01*
X131266114Y-96865022D01*
X131257095Y-96864190D01*
X131207156Y-96857570D01*
X131158568Y-96849418D01*
X131110046Y-96839468D01*
X131060304Y-96827450D01*
X131008055Y-96813096D01*
X130997445Y-96809996D01*
X130981948Y-96805341D01*
X130970529Y-96801674D01*
X130962586Y-96798756D01*
X130957514Y-96796346D01*
X130954714Y-96794204D01*
X130953722Y-96792578D01*
X130953066Y-96789072D01*
X130951989Y-96781328D01*
X130950557Y-96769920D01*
X130948841Y-96755422D01*
X130946906Y-96738409D01*
X130944823Y-96719456D01*
X130942704Y-96699582D01*
X130940241Y-96675806D01*
X130938316Y-96656429D01*
X130936901Y-96641043D01*
X130935968Y-96629244D01*
X130935489Y-96620623D01*
X130935436Y-96614776D01*
X130935783Y-96611294D01*
X130936500Y-96609773D01*
X130936565Y-96609728D01*
X130940819Y-96608159D01*
X130947571Y-96606623D01*
X130949605Y-96606280D01*
X130957317Y-96604889D01*
X130969009Y-96602518D01*
X130983961Y-96599332D01*
X131001451Y-96595495D01*
X131020760Y-96591171D01*
X131041165Y-96586523D01*
X131061946Y-96581716D01*
X131082383Y-96576914D01*
X131101754Y-96572280D01*
X131119339Y-96567979D01*
X131132514Y-96564664D01*
X131202888Y-96545903D01*
X131268710Y-96526815D01*
X131330260Y-96507305D01*
X131387819Y-96487280D01*
X131441666Y-96466646D01*
X131492082Y-96445309D01*
X131500210Y-96441661D01*
X131548672Y-96418036D01*
X131598023Y-96390787D01*
X131647083Y-96360663D01*
X131694673Y-96328417D01*
X131739616Y-96294797D01*
X131769933Y-96269939D01*
X131782045Y-96259405D01*
X131794616Y-96248151D01*
X131807155Y-96236653D01*
X131819170Y-96225384D01*
X131830171Y-96214818D01*
X131839665Y-96205429D01*
X131847161Y-96197691D01*
X131852168Y-96192077D01*
X131854194Y-96189062D01*
X131854151Y-96188738D01*
X131850610Y-96186991D01*
X131843091Y-96184332D01*
X131832321Y-96180973D01*
X131819025Y-96177129D01*
X131803931Y-96173015D01*
X131787765Y-96168845D01*
X131780819Y-96167125D01*
X131732885Y-96157245D01*
X131684747Y-96151066D01*
X131635937Y-96148600D01*
X131585987Y-96149860D01*
X131534427Y-96154857D01*
X131480790Y-96163605D01*
X131424605Y-96176115D01*
X131423269Y-96176449D01*
X131366150Y-96192728D01*
X131311384Y-96212221D01*
X131259173Y-96234771D01*
X131209722Y-96260220D01*
X131163232Y-96288411D01*
X131119907Y-96319186D01*
X131079950Y-96352388D01*
X131043562Y-96387858D01*
X131010948Y-96425440D01*
X130982311Y-96464977D01*
X130957852Y-96506309D01*
X130937775Y-96549281D01*
X130935373Y-96555296D01*
X130927804Y-96574648D01*
X130826354Y-96671202D01*
X130807831Y-96688846D01*
X130790380Y-96705497D01*
X130774311Y-96720857D01*
X130759936Y-96734627D01*
X130747566Y-96746508D01*
X130737512Y-96756202D01*
X130730085Y-96763409D01*
X130725596Y-96767832D01*
X130724324Y-96769174D01*
X130726351Y-96770404D01*
X130732387Y-96773401D01*
X130742016Y-96777971D01*
X130754824Y-96783924D01*
X130770395Y-96791069D01*
X130788314Y-96799213D01*
X130808164Y-96808165D01*
X130829531Y-96817735D01*
X130834640Y-96820013D01*
X130945536Y-96869436D01*
X130957083Y-96910728D01*
X130962641Y-96929900D01*
X130969390Y-96952059D01*
X130976912Y-96975919D01*
X130984791Y-97000195D01*
X130992611Y-97023602D01*
X130999953Y-97044855D01*
X131006122Y-97061919D01*
X131009858Y-97071304D01*
X131012957Y-97077115D01*
X131016150Y-97080417D01*
X131020055Y-97082241D01*
X131025062Y-97083040D01*
X131034196Y-97083683D01*
X131046750Y-97084172D01*
X131062014Y-97084507D01*
X131079280Y-97084690D01*
X131097842Y-97084724D01*
X131116989Y-97084608D01*
X131136014Y-97084345D01*
X131154209Y-97083937D01*
X131170866Y-97083384D01*
X131185276Y-97082689D01*
X131196619Y-97081863D01*
X131308351Y-97069774D01*
X131376838Y-97060603D01*
X131406132Y-97056189D01*
X131431379Y-97051868D01*
X131453360Y-97047428D01*
X131472857Y-97042653D01*
X131490651Y-97037331D01*
X131507523Y-97031246D01*
X131524255Y-97024184D01*
X131541628Y-97015933D01*
X131543752Y-97014873D01*
X131582076Y-96993252D01*
X131619659Y-96967307D01*
X131655869Y-96937553D01*
X131690073Y-96904502D01*
X131717363Y-96873880D01*
X131730019Y-96858635D01*
X131730019Y-96866987D01*
X131730712Y-96877188D01*
X131732625Y-96890800D01*
X131735512Y-96906624D01*
X131739127Y-96923462D01*
X131743222Y-96940114D01*
X131747550Y-96955381D01*
X131749405Y-96961173D01*
X131765445Y-97001904D01*
X131785322Y-97039716D01*
X131808978Y-97074558D01*
X131836350Y-97106374D01*
X131867380Y-97135111D01*
X131902006Y-97160717D01*
X131940168Y-97183137D01*
X131981805Y-97202319D01*
X132026857Y-97218209D01*
X132046914Y-97223923D01*
X132082741Y-97232339D01*
X132119615Y-97238721D01*
X132158407Y-97243166D01*
X132199988Y-97245775D01*
X132245228Y-97246646D01*
X132246486Y-97246647D01*
X132281578Y-97246229D01*
X132315663Y-97244929D01*
X132349533Y-97242658D01*
X132383982Y-97239326D01*
X132419803Y-97234845D01*
X132457790Y-97229126D01*
X132498735Y-97222080D01*
X132543433Y-97213618D01*
X132546448Y-97213025D01*
X132631094Y-97194934D01*
X132713037Y-97174615D01*
X132792112Y-97152142D01*
X132868153Y-97127591D01*
X132940995Y-97101036D01*
X133010474Y-97072553D01*
X133076424Y-97042216D01*
X133138680Y-97010101D01*
X133197077Y-96976282D01*
X133251450Y-96940834D01*
X133301633Y-96903833D01*
X133347462Y-96865352D01*
X133379810Y-96834632D01*
X133390875Y-96823214D01*
X133402189Y-96811029D01*
X133412638Y-96799311D01*
X133421104Y-96789294D01*
X133423352Y-96786469D01*
X133430273Y-96777594D01*
X133436408Y-96769754D01*
X133440943Y-96763989D01*
X133442705Y-96761775D01*
X133444587Y-96759749D01*
X133446870Y-96758686D01*
X133450577Y-96758591D01*
X133456727Y-96759470D01*
X133466345Y-96761329D01*
X133469314Y-96761929D01*
X133540473Y-96773886D01*
X133612069Y-96781051D01*
X133684224Y-96783432D01*
X133757057Y-96781035D01*
X133768067Y-96780262D01*
X133825880Y-96775415D01*
X133888159Y-96769221D01*
X133954730Y-96761710D01*
X134025420Y-96752912D01*
X134100056Y-96742858D01*
X134178464Y-96731576D01*
X134260473Y-96719097D01*
X134345908Y-96705450D01*
X134434598Y-96690667D01*
X134526368Y-96674776D01*
X134621045Y-96657808D01*
X134718458Y-96639792D01*
X134818432Y-96620758D01*
X134920795Y-96600737D01*
X135025373Y-96579759D01*
X135131995Y-96557852D01*
X135240485Y-96535048D01*
X135350672Y-96511376D01*
X135455352Y-96488423D01*
X135485862Y-96481666D01*
X135512069Y-96475983D01*
X135534406Y-96471466D01*
X135553307Y-96468208D01*
X135569208Y-96466300D01*
X135582541Y-96465835D01*
X135593740Y-96466905D01*
X135603240Y-96469603D01*
X135611475Y-96474020D01*
X135618879Y-96480249D01*
X135625886Y-96488382D01*
X135632929Y-96498511D01*
X135640443Y-96510729D01*
X135648862Y-96525128D01*
X135651797Y-96530174D01*
X135677352Y-96575278D01*
X135701306Y-96620021D01*
X135723386Y-96663833D01*
X135743323Y-96706142D01*
X135760844Y-96746379D01*
X135775680Y-96783973D01*
X135785187Y-96811018D01*
X135795789Y-96846958D01*
X135803137Y-96880498D01*
X135807251Y-96911481D01*
X135808150Y-96939750D01*
X135805853Y-96965150D01*
X135800378Y-96987523D01*
X135791744Y-97006713D01*
X135779969Y-97022563D01*
X135765074Y-97034917D01*
X135757857Y-97039043D01*
X135750908Y-97042306D01*
X135743331Y-97045302D01*
X135734879Y-97048051D01*
X135725307Y-97050572D01*
X135714372Y-97052884D01*
X135701826Y-97055007D01*
X135687427Y-97056960D01*
X135670927Y-97058761D01*
X135652084Y-97060431D01*
X135630650Y-97061989D01*
X135606383Y-97063454D01*
X135579035Y-97064845D01*
X135548363Y-97066181D01*
X135514121Y-97067483D01*
X135476065Y-97068769D01*
X135433949Y-97070058D01*
X135387529Y-97071370D01*
X135336558Y-97072724D01*
X135327143Y-97072967D01*
X135243433Y-97075256D01*
X135164179Y-97077711D01*
X135088999Y-97080352D01*
X135017513Y-97083202D01*
X134949340Y-97086281D01*
X134884099Y-97089609D01*
X134821411Y-97093209D01*
X134760893Y-97097101D01*
X134702165Y-97101306D01*
X134644847Y-97105846D01*
X134588558Y-97110740D01*
X134532917Y-97116011D01*
X134514343Y-97117866D01*
X134426092Y-97127350D01*
X134340744Y-97137702D01*
X134257787Y-97149038D01*
X134176707Y-97161474D01*
X134096991Y-97175127D01*
X134018125Y-97190112D01*
X133939598Y-97206546D01*
X133860894Y-97224545D01*
X133781502Y-97244225D01*
X133700908Y-97265703D01*
X133618599Y-97289095D01*
X133534062Y-97314516D01*
X133446783Y-97342083D01*
X133356249Y-97371912D01*
X133284257Y-97396406D01*
X133250067Y-97408412D01*
X133217474Y-97420361D01*
X133186018Y-97432474D01*
X133155241Y-97444971D01*
X133124683Y-97458070D01*
X133093886Y-97471991D01*
X133062390Y-97486955D01*
X133029736Y-97503180D01*
X132995466Y-97520887D01*
X132959120Y-97540295D01*
X132920239Y-97561623D01*
X132878365Y-97585092D01*
X132833038Y-97610920D01*
X132818590Y-97619224D01*
X132778393Y-97642353D01*
X132742070Y-97663218D01*
X132709315Y-97681989D01*
X132679820Y-97698834D01*
X132653279Y-97713923D01*
X132629386Y-97727425D01*
X132607832Y-97739510D01*
X132588311Y-97750347D01*
X132570516Y-97760105D01*
X132554140Y-97768953D01*
X132538876Y-97777061D01*
X132524417Y-97784598D01*
X132510457Y-97791734D01*
X132496687Y-97798637D01*
X132482802Y-97805478D01*
X132468494Y-97812425D01*
X132467239Y-97813031D01*
X132420995Y-97834588D01*
X132377371Y-97853276D01*
X132335428Y-97869365D01*
X132294223Y-97883123D01*
X132252818Y-97894819D01*
X132210270Y-97904722D01*
X132165639Y-97913101D01*
X132117985Y-97920226D01*
X132073524Y-97925592D01*
X132045419Y-97928170D01*
X132013913Y-97930200D01*
X131980417Y-97931643D01*
X131946340Y-97932463D01*
X131913094Y-97932622D01*
X131882088Y-97932082D01*
X131861857Y-97931234D01*
X131807311Y-97926679D01*
X131752141Y-97919053D01*
X131697162Y-97908561D01*
X131643189Y-97895409D01*
X131591036Y-97879801D01*
X131541518Y-97861941D01*
X131495451Y-97842036D01*
X131483034Y-97836000D01*
X131427505Y-97805655D01*
X131373181Y-97770709D01*
X131320159Y-97731270D01*
X131268534Y-97687446D01*
X131218402Y-97639345D01*
X131169859Y-97587076D01*
X131123001Y-97530746D01*
X131077924Y-97470465D01*
X131034723Y-97406339D01*
X130993495Y-97338477D01*
X130954335Y-97266987D01*
X130923415Y-97204852D01*
X130910840Y-97177482D01*
X130898757Y-97149118D01*
X130886818Y-97118873D01*
X130874676Y-97085861D01*
X130861984Y-97049197D01*
X130859005Y-97040315D01*
X130853746Y-97024237D01*
X130848189Y-97006690D01*
X130842577Y-96988490D01*
X130837149Y-96970456D01*
X130832149Y-96953405D01*
X130827818Y-96938156D01*
X130824397Y-96925525D01*
X130822129Y-96916330D01*
X130821573Y-96913669D01*
X130820086Y-96905741D01*
X130679779Y-96849122D01*
X130655107Y-96839148D01*
X130631788Y-96829687D01*
X130610205Y-96820897D01*
X130590741Y-96812934D01*
X130573781Y-96805958D01*
X130559707Y-96800125D01*
X130548904Y-96795595D01*
X130541754Y-96792524D01*
X130538641Y-96791070D01*
X130538539Y-96790993D01*
X130540144Y-96789176D01*
X130545082Y-96784406D01*
X130553071Y-96776941D01*
X130563825Y-96767039D01*
X130577061Y-96754960D01*
X130592494Y-96740962D01*
X130609841Y-96725303D01*
X130628816Y-96708243D01*
X130649137Y-96690039D01*
X130666539Y-96674499D01*
X130691236Y-96652467D01*
X130712571Y-96633409D01*
X130730798Y-96617080D01*
X130746170Y-96603239D01*
X130758940Y-96591642D01*
X130769361Y-96582046D01*
X130777686Y-96574209D01*
X130784169Y-96567887D01*
X130789062Y-96562839D01*
X130792619Y-96558820D01*
X130795092Y-96555588D01*
X130796736Y-96552901D01*
X130797802Y-96550515D01*
X130798545Y-96548187D01*
X130798671Y-96547730D01*
X130803066Y-96533639D01*
X130809307Y-96516530D01*
X130816899Y-96497617D01*
X130825342Y-96478114D01*
X130834141Y-96459235D01*
X130838663Y-96450123D01*
X130860913Y-96410208D01*
X130886441Y-96371722D01*
X130915714Y-96334028D01*
X130949199Y-96296488D01*
X130958212Y-96287125D01*
X130996275Y-96250413D01*
X131035552Y-96217167D01*
X131076870Y-96186793D01*
X131121052Y-96158696D01*
X131168924Y-96132283D01*
X131183314Y-96125002D01*
X131229980Y-96103147D01*
X131276618Y-96084060D01*
X131324071Y-96067485D01*
X131373182Y-96053166D01*
X131424792Y-96040846D01*
X131479745Y-96030269D01*
X131511609Y-96025116D01*
X131525211Y-96023114D01*
X131537093Y-96021560D01*
X131548213Y-96020397D01*
X131559528Y-96019566D01*
X131571995Y-96019011D01*
X131586570Y-96018672D01*
X131604211Y-96018493D01*
X131622371Y-96018423D01*
X131647890Y-96018476D01*
X131647890Y-96018476D01*
G37*
X131647890Y-96018476D02*
X131669607Y-96018821D01*
X131688555Y-96019540D01*
X131705765Y-96020719D01*
X131722270Y-96022441D01*
X131739101Y-96024790D01*
X131757292Y-96027850D01*
X131772352Y-96030645D01*
X131812711Y-96039396D01*
X131854606Y-96050414D01*
X131896059Y-96063125D01*
X131935093Y-96076957D01*
X131942895Y-96079990D01*
X131972503Y-96091780D01*
X132001560Y-96103531D01*
X132030332Y-96115368D01*
X132059083Y-96127414D01*
X132088081Y-96139793D01*
X132117591Y-96152628D01*
X132147879Y-96166043D01*
X132179210Y-96180162D01*
X132211851Y-96195109D01*
X132246067Y-96211008D01*
X132282124Y-96227981D01*
X132320288Y-96246153D01*
X132360824Y-96265648D01*
X132403999Y-96286589D01*
X132450078Y-96309100D01*
X132499327Y-96333305D01*
X132552013Y-96359327D01*
X132608399Y-96387290D01*
X132668754Y-96417318D01*
X132684333Y-96425083D01*
X132736341Y-96450963D01*
X132784400Y-96474774D01*
X132828855Y-96496675D01*
X132870050Y-96516825D01*
X132908331Y-96535383D01*
X132944043Y-96552509D01*
X132977531Y-96568361D01*
X133009140Y-96583099D01*
X133039214Y-96596882D01*
X133068099Y-96609869D01*
X133096140Y-96622221D01*
X133123682Y-96634095D01*
X133151069Y-96645651D01*
X133178648Y-96657048D01*
X133206761Y-96668446D01*
X133235756Y-96680004D01*
X133241784Y-96682386D01*
X133259241Y-96689341D01*
X133275202Y-96695833D01*
X133289121Y-96701627D01*
X133300450Y-96706492D01*
X133308645Y-96710195D01*
X133313158Y-96712503D01*
X133313869Y-96713075D01*
X133312563Y-96715832D01*
X133308180Y-96721251D01*
X133301270Y-96728795D01*
X133292385Y-96737924D01*
X133282075Y-96748099D01*
X133270890Y-96758782D01*
X133259380Y-96769433D01*
X133248096Y-96779515D01*
X133237588Y-96788487D01*
X133233204Y-96792062D01*
X133182211Y-96830188D01*
X133126855Y-96866379D01*
X133067225Y-96900598D01*
X133003406Y-96932810D01*
X132935487Y-96962978D01*
X132863555Y-96991066D01*
X132787696Y-97017040D01*
X132707998Y-97040862D01*
X132624549Y-97062496D01*
X132537435Y-97081907D01*
X132523467Y-97084744D01*
X132463669Y-97095927D01*
X132407688Y-97104711D01*
X132355154Y-97111122D01*
X132305698Y-97115187D01*
X132258950Y-97116931D01*
X132214542Y-97116382D01*
X132172103Y-97113567D01*
X132152375Y-97111425D01*
X132107479Y-97104163D01*
X132066093Y-97093835D01*
X132028274Y-97080475D01*
X131994079Y-97064116D01*
X131963565Y-97044792D01*
X131936788Y-97022535D01*
X131913805Y-96997379D01*
X131894673Y-96969357D01*
X131887520Y-96956186D01*
X131878869Y-96937070D01*
X131871870Y-96916992D01*
X131866258Y-96894947D01*
X131861770Y-96869928D01*
X131858778Y-96846810D01*
X131857017Y-96831104D01*
X131809847Y-96826992D01*
X131795104Y-96825714D01*
X131781916Y-96824583D01*
X131771079Y-96823667D01*
X131763388Y-96823033D01*
X131759639Y-96822747D01*
X131759510Y-96822741D01*
X131757469Y-96821313D01*
X131757773Y-96820286D01*
X131756528Y-96819251D01*
X131751914Y-96818987D01*
X131745321Y-96819379D01*
X131738137Y-96820312D01*
X131731751Y-96821672D01*
X131728810Y-96822675D01*
X131725033Y-96823715D01*
X131717280Y-96825402D01*
X131706345Y-96827577D01*
X131693022Y-96830085D01*
X131678107Y-96832768D01*
X131674381Y-96833420D01*
X131618505Y-96842682D01*
X131565420Y-96850481D01*
X131513382Y-96857048D01*
X131460652Y-96862618D01*
X131444571Y-96864116D01*
X131429191Y-96865209D01*
X131410536Y-96866055D01*
X131389533Y-96866653D01*
X131367109Y-96867003D01*
X131344192Y-96867105D01*
X131321706Y-96866958D01*
X131300581Y-96866562D01*
X131281741Y-96865917D01*
X131266114Y-96865022D01*
X131257095Y-96864190D01*
X131207156Y-96857570D01*
X131158568Y-96849418D01*
X131110046Y-96839468D01*
X131060304Y-96827450D01*
X131008055Y-96813096D01*
X130997445Y-96809996D01*
X130981948Y-96805341D01*
X130970529Y-96801674D01*
X130962586Y-96798756D01*
X130957514Y-96796346D01*
X130954714Y-96794204D01*
X130953722Y-96792578D01*
X130953066Y-96789072D01*
X130951989Y-96781328D01*
X130950557Y-96769920D01*
X130948841Y-96755422D01*
X130946906Y-96738409D01*
X130944823Y-96719456D01*
X130942704Y-96699582D01*
X130940241Y-96675806D01*
X130938316Y-96656429D01*
X130936901Y-96641043D01*
X130935968Y-96629244D01*
X130935489Y-96620623D01*
X130935436Y-96614776D01*
X130935783Y-96611294D01*
X130936500Y-96609773D01*
X130936565Y-96609728D01*
X130940819Y-96608159D01*
X130947571Y-96606623D01*
X130949605Y-96606280D01*
X130957317Y-96604889D01*
X130969009Y-96602518D01*
X130983961Y-96599332D01*
X131001451Y-96595495D01*
X131020760Y-96591171D01*
X131041165Y-96586523D01*
X131061946Y-96581716D01*
X131082383Y-96576914D01*
X131101754Y-96572280D01*
X131119339Y-96567979D01*
X131132514Y-96564664D01*
X131202888Y-96545903D01*
X131268710Y-96526815D01*
X131330260Y-96507305D01*
X131387819Y-96487280D01*
X131441666Y-96466646D01*
X131492082Y-96445309D01*
X131500210Y-96441661D01*
X131548672Y-96418036D01*
X131598023Y-96390787D01*
X131647083Y-96360663D01*
X131694673Y-96328417D01*
X131739616Y-96294797D01*
X131769933Y-96269939D01*
X131782045Y-96259405D01*
X131794616Y-96248151D01*
X131807155Y-96236653D01*
X131819170Y-96225384D01*
X131830171Y-96214818D01*
X131839665Y-96205429D01*
X131847161Y-96197691D01*
X131852168Y-96192077D01*
X131854194Y-96189062D01*
X131854151Y-96188738D01*
X131850610Y-96186991D01*
X131843091Y-96184332D01*
X131832321Y-96180973D01*
X131819025Y-96177129D01*
X131803931Y-96173015D01*
X131787765Y-96168845D01*
X131780819Y-96167125D01*
X131732885Y-96157245D01*
X131684747Y-96151066D01*
X131635937Y-96148600D01*
X131585987Y-96149860D01*
X131534427Y-96154857D01*
X131480790Y-96163605D01*
X131424605Y-96176115D01*
X131423269Y-96176449D01*
X131366150Y-96192728D01*
X131311384Y-96212221D01*
X131259173Y-96234771D01*
X131209722Y-96260220D01*
X131163232Y-96288411D01*
X131119907Y-96319186D01*
X131079950Y-96352388D01*
X131043562Y-96387858D01*
X131010948Y-96425440D01*
X130982311Y-96464977D01*
X130957852Y-96506309D01*
X130937775Y-96549281D01*
X130935373Y-96555296D01*
X130927804Y-96574648D01*
X130826354Y-96671202D01*
X130807831Y-96688846D01*
X130790380Y-96705497D01*
X130774311Y-96720857D01*
X130759936Y-96734627D01*
X130747566Y-96746508D01*
X130737512Y-96756202D01*
X130730085Y-96763409D01*
X130725596Y-96767832D01*
X130724324Y-96769174D01*
X130726351Y-96770404D01*
X130732387Y-96773401D01*
X130742016Y-96777971D01*
X130754824Y-96783924D01*
X130770395Y-96791069D01*
X130788314Y-96799213D01*
X130808164Y-96808165D01*
X130829531Y-96817735D01*
X130834640Y-96820013D01*
X130945536Y-96869436D01*
X130957083Y-96910728D01*
X130962641Y-96929900D01*
X130969390Y-96952059D01*
X130976912Y-96975919D01*
X130984791Y-97000195D01*
X130992611Y-97023602D01*
X130999953Y-97044855D01*
X131006122Y-97061919D01*
X131009858Y-97071304D01*
X131012957Y-97077115D01*
X131016150Y-97080417D01*
X131020055Y-97082241D01*
X131025062Y-97083040D01*
X131034196Y-97083683D01*
X131046750Y-97084172D01*
X131062014Y-97084507D01*
X131079280Y-97084690D01*
X131097842Y-97084724D01*
X131116989Y-97084608D01*
X131136014Y-97084345D01*
X131154209Y-97083937D01*
X131170866Y-97083384D01*
X131185276Y-97082689D01*
X131196619Y-97081863D01*
X131308351Y-97069774D01*
X131376838Y-97060603D01*
X131406132Y-97056189D01*
X131431379Y-97051868D01*
X131453360Y-97047428D01*
X131472857Y-97042653D01*
X131490651Y-97037331D01*
X131507523Y-97031246D01*
X131524255Y-97024184D01*
X131541628Y-97015933D01*
X131543752Y-97014873D01*
X131582076Y-96993252D01*
X131619659Y-96967307D01*
X131655869Y-96937553D01*
X131690073Y-96904502D01*
X131717363Y-96873880D01*
X131730019Y-96858635D01*
X131730019Y-96866987D01*
X131730712Y-96877188D01*
X131732625Y-96890800D01*
X131735512Y-96906624D01*
X131739127Y-96923462D01*
X131743222Y-96940114D01*
X131747550Y-96955381D01*
X131749405Y-96961173D01*
X131765445Y-97001904D01*
X131785322Y-97039716D01*
X131808978Y-97074558D01*
X131836350Y-97106374D01*
X131867380Y-97135111D01*
X131902006Y-97160717D01*
X131940168Y-97183137D01*
X131981805Y-97202319D01*
X132026857Y-97218209D01*
X132046914Y-97223923D01*
X132082741Y-97232339D01*
X132119615Y-97238721D01*
X132158407Y-97243166D01*
X132199988Y-97245775D01*
X132245228Y-97246646D01*
X132246486Y-97246647D01*
X132281578Y-97246229D01*
X132315663Y-97244929D01*
X132349533Y-97242658D01*
X132383982Y-97239326D01*
X132419803Y-97234845D01*
X132457790Y-97229126D01*
X132498735Y-97222080D01*
X132543433Y-97213618D01*
X132546448Y-97213025D01*
X132631094Y-97194934D01*
X132713037Y-97174615D01*
X132792112Y-97152142D01*
X132868153Y-97127591D01*
X132940995Y-97101036D01*
X133010474Y-97072553D01*
X133076424Y-97042216D01*
X133138680Y-97010101D01*
X133197077Y-96976282D01*
X133251450Y-96940834D01*
X133301633Y-96903833D01*
X133347462Y-96865352D01*
X133379810Y-96834632D01*
X133390875Y-96823214D01*
X133402189Y-96811029D01*
X133412638Y-96799311D01*
X133421104Y-96789294D01*
X133423352Y-96786469D01*
X133430273Y-96777594D01*
X133436408Y-96769754D01*
X133440943Y-96763989D01*
X133442705Y-96761775D01*
X133444587Y-96759749D01*
X133446870Y-96758686D01*
X133450577Y-96758591D01*
X133456727Y-96759470D01*
X133466345Y-96761329D01*
X133469314Y-96761929D01*
X133540473Y-96773886D01*
X133612069Y-96781051D01*
X133684224Y-96783432D01*
X133757057Y-96781035D01*
X133768067Y-96780262D01*
X133825880Y-96775415D01*
X133888159Y-96769221D01*
X133954730Y-96761710D01*
X134025420Y-96752912D01*
X134100056Y-96742858D01*
X134178464Y-96731576D01*
X134260473Y-96719097D01*
X134345908Y-96705450D01*
X134434598Y-96690667D01*
X134526368Y-96674776D01*
X134621045Y-96657808D01*
X134718458Y-96639792D01*
X134818432Y-96620758D01*
X134920795Y-96600737D01*
X135025373Y-96579759D01*
X135131995Y-96557852D01*
X135240485Y-96535048D01*
X135350672Y-96511376D01*
X135455352Y-96488423D01*
X135485862Y-96481666D01*
X135512069Y-96475983D01*
X135534406Y-96471466D01*
X135553307Y-96468208D01*
X135569208Y-96466300D01*
X135582541Y-96465835D01*
X135593740Y-96466905D01*
X135603240Y-96469603D01*
X135611475Y-96474020D01*
X135618879Y-96480249D01*
X135625886Y-96488382D01*
X135632929Y-96498511D01*
X135640443Y-96510729D01*
X135648862Y-96525128D01*
X135651797Y-96530174D01*
X135677352Y-96575278D01*
X135701306Y-96620021D01*
X135723386Y-96663833D01*
X135743323Y-96706142D01*
X135760844Y-96746379D01*
X135775680Y-96783973D01*
X135785187Y-96811018D01*
X135795789Y-96846958D01*
X135803137Y-96880498D01*
X135807251Y-96911481D01*
X135808150Y-96939750D01*
X135805853Y-96965150D01*
X135800378Y-96987523D01*
X135791744Y-97006713D01*
X135779969Y-97022563D01*
X135765074Y-97034917D01*
X135757857Y-97039043D01*
X135750908Y-97042306D01*
X135743331Y-97045302D01*
X135734879Y-97048051D01*
X135725307Y-97050572D01*
X135714372Y-97052884D01*
X135701826Y-97055007D01*
X135687427Y-97056960D01*
X135670927Y-97058761D01*
X135652084Y-97060431D01*
X135630650Y-97061989D01*
X135606383Y-97063454D01*
X135579035Y-97064845D01*
X135548363Y-97066181D01*
X135514121Y-97067483D01*
X135476065Y-97068769D01*
X135433949Y-97070058D01*
X135387529Y-97071370D01*
X135336558Y-97072724D01*
X135327143Y-97072967D01*
X135243433Y-97075256D01*
X135164179Y-97077711D01*
X135088999Y-97080352D01*
X135017513Y-97083202D01*
X134949340Y-97086281D01*
X134884099Y-97089609D01*
X134821411Y-97093209D01*
X134760893Y-97097101D01*
X134702165Y-97101306D01*
X134644847Y-97105846D01*
X134588558Y-97110740D01*
X134532917Y-97116011D01*
X134514343Y-97117866D01*
X134426092Y-97127350D01*
X134340744Y-97137702D01*
X134257787Y-97149038D01*
X134176707Y-97161474D01*
X134096991Y-97175127D01*
X134018125Y-97190112D01*
X133939598Y-97206546D01*
X133860894Y-97224545D01*
X133781502Y-97244225D01*
X133700908Y-97265703D01*
X133618599Y-97289095D01*
X133534062Y-97314516D01*
X133446783Y-97342083D01*
X133356249Y-97371912D01*
X133284257Y-97396406D01*
X133250067Y-97408412D01*
X133217474Y-97420361D01*
X133186018Y-97432474D01*
X133155241Y-97444971D01*
X133124683Y-97458070D01*
X133093886Y-97471991D01*
X133062390Y-97486955D01*
X133029736Y-97503180D01*
X132995466Y-97520887D01*
X132959120Y-97540295D01*
X132920239Y-97561623D01*
X132878365Y-97585092D01*
X132833038Y-97610920D01*
X132818590Y-97619224D01*
X132778393Y-97642353D01*
X132742070Y-97663218D01*
X132709315Y-97681989D01*
X132679820Y-97698834D01*
X132653279Y-97713923D01*
X132629386Y-97727425D01*
X132607832Y-97739510D01*
X132588311Y-97750347D01*
X132570516Y-97760105D01*
X132554140Y-97768953D01*
X132538876Y-97777061D01*
X132524417Y-97784598D01*
X132510457Y-97791734D01*
X132496687Y-97798637D01*
X132482802Y-97805478D01*
X132468494Y-97812425D01*
X132467239Y-97813031D01*
X132420995Y-97834588D01*
X132377371Y-97853276D01*
X132335428Y-97869365D01*
X132294223Y-97883123D01*
X132252818Y-97894819D01*
X132210270Y-97904722D01*
X132165639Y-97913101D01*
X132117985Y-97920226D01*
X132073524Y-97925592D01*
X132045419Y-97928170D01*
X132013913Y-97930200D01*
X131980417Y-97931643D01*
X131946340Y-97932463D01*
X131913094Y-97932622D01*
X131882088Y-97932082D01*
X131861857Y-97931234D01*
X131807311Y-97926679D01*
X131752141Y-97919053D01*
X131697162Y-97908561D01*
X131643189Y-97895409D01*
X131591036Y-97879801D01*
X131541518Y-97861941D01*
X131495451Y-97842036D01*
X131483034Y-97836000D01*
X131427505Y-97805655D01*
X131373181Y-97770709D01*
X131320159Y-97731270D01*
X131268534Y-97687446D01*
X131218402Y-97639345D01*
X131169859Y-97587076D01*
X131123001Y-97530746D01*
X131077924Y-97470465D01*
X131034723Y-97406339D01*
X130993495Y-97338477D01*
X130954335Y-97266987D01*
X130923415Y-97204852D01*
X130910840Y-97177482D01*
X130898757Y-97149118D01*
X130886818Y-97118873D01*
X130874676Y-97085861D01*
X130861984Y-97049197D01*
X130859005Y-97040315D01*
X130853746Y-97024237D01*
X130848189Y-97006690D01*
X130842577Y-96988490D01*
X130837149Y-96970456D01*
X130832149Y-96953405D01*
X130827818Y-96938156D01*
X130824397Y-96925525D01*
X130822129Y-96916330D01*
X130821573Y-96913669D01*
X130820086Y-96905741D01*
X130679779Y-96849122D01*
X130655107Y-96839148D01*
X130631788Y-96829687D01*
X130610205Y-96820897D01*
X130590741Y-96812934D01*
X130573781Y-96805958D01*
X130559707Y-96800125D01*
X130548904Y-96795595D01*
X130541754Y-96792524D01*
X130538641Y-96791070D01*
X130538539Y-96790993D01*
X130540144Y-96789176D01*
X130545082Y-96784406D01*
X130553071Y-96776941D01*
X130563825Y-96767039D01*
X130577061Y-96754960D01*
X130592494Y-96740962D01*
X130609841Y-96725303D01*
X130628816Y-96708243D01*
X130649137Y-96690039D01*
X130666539Y-96674499D01*
X130691236Y-96652467D01*
X130712571Y-96633409D01*
X130730798Y-96617080D01*
X130746170Y-96603239D01*
X130758940Y-96591642D01*
X130769361Y-96582046D01*
X130777686Y-96574209D01*
X130784169Y-96567887D01*
X130789062Y-96562839D01*
X130792619Y-96558820D01*
X130795092Y-96555588D01*
X130796736Y-96552901D01*
X130797802Y-96550515D01*
X130798545Y-96548187D01*
X130798671Y-96547730D01*
X130803066Y-96533639D01*
X130809307Y-96516530D01*
X130816899Y-96497617D01*
X130825342Y-96478114D01*
X130834141Y-96459235D01*
X130838663Y-96450123D01*
X130860913Y-96410208D01*
X130886441Y-96371722D01*
X130915714Y-96334028D01*
X130949199Y-96296488D01*
X130958212Y-96287125D01*
X130996275Y-96250413D01*
X131035552Y-96217167D01*
X131076870Y-96186793D01*
X131121052Y-96158696D01*
X131168924Y-96132283D01*
X131183314Y-96125002D01*
X131229980Y-96103147D01*
X131276618Y-96084060D01*
X131324071Y-96067485D01*
X131373182Y-96053166D01*
X131424792Y-96040846D01*
X131479745Y-96030269D01*
X131511609Y-96025116D01*
X131525211Y-96023114D01*
X131537093Y-96021560D01*
X131548213Y-96020397D01*
X131559528Y-96019566D01*
X131571995Y-96019011D01*
X131586570Y-96018672D01*
X131604211Y-96018493D01*
X131622371Y-96018423D01*
X131647890Y-96018476D01*
D12*
X160650000Y-122325000D03*
X134775000Y-120775000D03*
D13*
X158080960Y-94250000D03*
X158080960Y-93599760D03*
X158080960Y-92949520D03*
X155419040Y-92949520D03*
X155419040Y-93599760D03*
X155419040Y-94250000D03*
X163661920Y-98250000D03*
X163661920Y-97599760D03*
X163661920Y-96949520D03*
X161000000Y-96949520D03*
X161000000Y-97599760D03*
X161000000Y-98250000D03*
X158080960Y-96700000D03*
X158080960Y-96049760D03*
X158080960Y-95399520D03*
X155419040Y-95399520D03*
X155419040Y-96049760D03*
X155419040Y-96700000D03*
D14*
X150325000Y-100775000D03*
X148425000Y-100775000D03*
D10*
G36*
X148619365Y-95701220D02*
X147487994Y-94569849D01*
X148902207Y-93155636D01*
X150033578Y-94287007D01*
X148619365Y-95701220D01*
X148619365Y-95701220D01*
G37*
G36*
X151447793Y-92872792D02*
X150316422Y-91741421D01*
X151730635Y-90327208D01*
X152862006Y-91458579D01*
X151447793Y-92872792D01*
X151447793Y-92872792D01*
G37*
D15*
X158750000Y-124999300D03*
X158750000Y-123500700D03*
X156000000Y-124998600D03*
X156000000Y-123500000D03*
X153250000Y-124999300D03*
X153250000Y-123500700D03*
D16*
X133940000Y-117685000D03*
D17*
X131400000Y-117685000D03*
X133940000Y-115145000D03*
X131400000Y-115145000D03*
X133940000Y-112605000D03*
X131400000Y-112605000D03*
X133940000Y-110065000D03*
X131400000Y-110065000D03*
X133940000Y-107525000D03*
X131400000Y-107525000D03*
X133940000Y-104985000D03*
X131400000Y-104985000D03*
X133940000Y-102445000D03*
X131400000Y-102445000D03*
X133940000Y-99905000D03*
X131400000Y-99905000D03*
D18*
X138100000Y-121875000D03*
D19*
X138100000Y-124415000D03*
D20*
X158750000Y-121600000D03*
X158750000Y-119400000D03*
X156000000Y-121600000D03*
X156000000Y-119400000D03*
X153250000Y-121600000D03*
X153250000Y-119400000D03*
D21*
X150325000Y-96700000D03*
X149375000Y-96700000D03*
X148425000Y-96700000D03*
X148425000Y-98900000D03*
X150325000Y-98900000D03*
D22*
X137875000Y-91575000D03*
D23*
X140415000Y-91575000D03*
X142955000Y-91575000D03*
X145495000Y-91575000D03*
D24*
X161190000Y-100200000D03*
X161190000Y-100600000D03*
X161190000Y-101000000D03*
X161190000Y-101400000D03*
X161190000Y-101800000D03*
X161190000Y-102200000D03*
X161190000Y-102600000D03*
X161190000Y-103000000D03*
X161190000Y-103400000D03*
X161190000Y-103800000D03*
X161190000Y-107800000D03*
X161190000Y-107400000D03*
X161190000Y-107000000D03*
X161190000Y-106600000D03*
X161190000Y-106200000D03*
X161190000Y-105800000D03*
X161190000Y-105400000D03*
X161190000Y-105000000D03*
X161190000Y-104600000D03*
X161190000Y-104200000D03*
X161190000Y-108200000D03*
X161190000Y-108600000D03*
X161190000Y-109000000D03*
X161190000Y-109400000D03*
X161190000Y-109800000D03*
X161190000Y-110200000D03*
X161190000Y-110600000D03*
X161190000Y-111000000D03*
X161190000Y-111400000D03*
X161190000Y-111800000D03*
X161190000Y-115800000D03*
X161190000Y-115400000D03*
X161190000Y-115000000D03*
X161190000Y-114600000D03*
X161190000Y-114200000D03*
X161190000Y-113800000D03*
X161190000Y-113400000D03*
X161190000Y-113000000D03*
X161190000Y-112600000D03*
X161190000Y-112200000D03*
X158110000Y-112200000D03*
X158110000Y-112600000D03*
X158110000Y-113000000D03*
X158110000Y-113400000D03*
X158110000Y-113800000D03*
X158110000Y-114200000D03*
X158110000Y-114600000D03*
X158110000Y-115000000D03*
X158110000Y-115400000D03*
X158110000Y-115800000D03*
X158110000Y-111800000D03*
X158110000Y-111400000D03*
X158110000Y-111000000D03*
X158110000Y-110600000D03*
X158110000Y-110200000D03*
X158110000Y-109800000D03*
X158110000Y-109400000D03*
X158110000Y-109000000D03*
X158110000Y-108600000D03*
X158110000Y-108200000D03*
X158110000Y-104200000D03*
X158110000Y-104600000D03*
X158110000Y-105000000D03*
X158110000Y-105400000D03*
X158110000Y-105800000D03*
X158110000Y-106200000D03*
X158110000Y-106600000D03*
X158110000Y-107000000D03*
X158110000Y-107400000D03*
X158110000Y-107800000D03*
X158110000Y-103800000D03*
X158110000Y-103400000D03*
X158110000Y-103000000D03*
X158110000Y-102600000D03*
X158110000Y-102200000D03*
X158110000Y-101800000D03*
X158110000Y-101400000D03*
X158110000Y-101000000D03*
X158110000Y-100600000D03*
X158110000Y-100200000D03*
D12*
X134775000Y-94700000D03*
D25*
X160975000Y-98944704D03*
X158578716Y-98401928D03*
X154778480Y-107275889D03*
X154038851Y-105675582D03*
X160153765Y-95567327D03*
X158450000Y-97525000D03*
X159600000Y-97775000D03*
X152840046Y-102034954D03*
D26*
X155747533Y-105578402D03*
D25*
X157452391Y-98810463D03*
X154127423Y-104807516D03*
X151850000Y-107025000D03*
X153775000Y-92800000D03*
X152875000Y-97375000D03*
X140729011Y-105107750D03*
X142050000Y-106275000D03*
X141750000Y-108775000D03*
X154875000Y-125400000D03*
X138426735Y-116060979D03*
X150183375Y-101908375D03*
X141825000Y-111575000D03*
X148050000Y-104575000D03*
X142475000Y-99500000D03*
X142475000Y-100800000D03*
X146725000Y-114675000D03*
X150225000Y-106050000D03*
X142275000Y-115025000D03*
X139625000Y-110175000D03*
D26*
X163404528Y-106229922D03*
X162579214Y-106491109D03*
X162993938Y-107218712D03*
X162237982Y-107581100D03*
X162237982Y-108419301D03*
X162993938Y-108781689D03*
X162579214Y-109509292D03*
X163335170Y-109871680D03*
D25*
X152100000Y-120500000D03*
X150219815Y-115103066D03*
X151846208Y-113345226D03*
D26*
X157149614Y-107746752D03*
X156149119Y-107617123D03*
X157062650Y-108419301D03*
X156306694Y-108781689D03*
X156721418Y-109509292D03*
X155965462Y-109871680D03*
D25*
X139574998Y-106350000D03*
X141825000Y-110400000D03*
X152175000Y-125325000D03*
X147425000Y-118875000D03*
X146425000Y-117875000D03*
X141412625Y-115878498D03*
X138475000Y-107450000D03*
X139438812Y-108272063D03*
X136100837Y-108546246D03*
X136124203Y-109384132D03*
X137853480Y-108649049D03*
D26*
X161045015Y-116945501D03*
X162035617Y-116147324D03*
X162511810Y-116834445D03*
X163166374Y-116308281D03*
X163642567Y-116995401D03*
X164626605Y-116049236D03*
X165041329Y-115321633D03*
X164285373Y-114959245D03*
X164700097Y-114231642D03*
X163944142Y-113869254D03*
X164358866Y-113141651D03*
X163602910Y-112779264D03*
X164017634Y-112051661D03*
X163261678Y-111689273D03*
X163676402Y-110961670D03*
X162920446Y-110599282D03*
X162921384Y-105544961D03*
X163708730Y-105081406D03*
X163217325Y-104402347D03*
X163475000Y-103500000D03*
X163975000Y-102775000D03*
X163950000Y-101900000D03*
X163044284Y-101951642D03*
X163749998Y-101050000D03*
X157430093Y-99948404D03*
X156405985Y-99405673D03*
X155570179Y-99469143D03*
D25*
X143825000Y-108900000D03*
X146050000Y-108624998D03*
D26*
X154162251Y-100612524D03*
X154807447Y-101167350D03*
X154527804Y-101961438D03*
X155444107Y-102173991D03*
X154959366Y-102854707D03*
X155698670Y-103352044D03*
X156075000Y-106350000D03*
X156792864Y-106988248D03*
X156380187Y-110599282D03*
X155624231Y-110961670D03*
X156038955Y-111689273D03*
X155282999Y-112051661D03*
X155697723Y-112779264D03*
X154941767Y-113141651D03*
X155356491Y-113869254D03*
X154600535Y-114231642D03*
X155015259Y-114959245D03*
X154259303Y-115321633D03*
X154674027Y-116049236D03*
X155425000Y-117175000D03*
D25*
X148595875Y-113679125D03*
X150077527Y-112463210D03*
X140400000Y-116450000D03*
X142025000Y-116500000D03*
X149295874Y-114379126D03*
X150703187Y-113288869D03*
X141498085Y-117151889D03*
X137900000Y-114925000D03*
X144025000Y-94375000D03*
X143975000Y-96025000D03*
X145175000Y-94425000D03*
X145175000Y-95950000D03*
D27*
X160403499Y-96146501D02*
X159900000Y-96146501D01*
X159900000Y-96146501D02*
X159850679Y-96146501D01*
X158080960Y-96700000D02*
X159346501Y-96700000D01*
X159346501Y-96700000D02*
X159900000Y-96146501D01*
X159323122Y-94326878D02*
X159246244Y-94250000D01*
X159246244Y-94250000D02*
X158080960Y-94250000D01*
X159323122Y-95399520D02*
X159323122Y-94326878D01*
X159850679Y-96146501D02*
X159591091Y-95886914D01*
X159591091Y-95886914D02*
X159591091Y-95667489D01*
X159591091Y-95667489D02*
X159323122Y-95399520D01*
X159323122Y-95399520D02*
X158080960Y-95399520D01*
X163661920Y-98250000D02*
X162758950Y-98250000D01*
X162508950Y-98500000D02*
X162375000Y-98500000D01*
X162758950Y-98250000D02*
X162508950Y-98500000D01*
X160975000Y-98944704D02*
X161930296Y-98944704D01*
X161930296Y-98944704D02*
X162375000Y-98500000D01*
X162375000Y-98500000D02*
X162375000Y-96963078D01*
X162375000Y-96963078D02*
X161608424Y-96196502D01*
X161608424Y-96196502D02*
X160625678Y-96196502D01*
X160625678Y-96196502D02*
X160514088Y-96084912D01*
X160514088Y-96084912D02*
X160465088Y-96084912D01*
X160465088Y-96084912D02*
X160403499Y-96146501D01*
X160403499Y-96146501D02*
X160249321Y-96146501D01*
X158461920Y-95249520D02*
X158611920Y-95399520D01*
X158611920Y-94261920D02*
X158600000Y-94250000D01*
X158578716Y-98401928D02*
X158235817Y-98059029D01*
X158235817Y-98059029D02*
X158145452Y-98059029D01*
X158145452Y-98059029D02*
X157878499Y-97792076D01*
X156159326Y-97792076D02*
X155419040Y-97051790D01*
X157878499Y-97792076D02*
X156159326Y-97792076D01*
X155419040Y-97051790D02*
X155419040Y-96700000D01*
X160153765Y-95567327D02*
X160153478Y-95567040D01*
X160153478Y-95567040D02*
X160153478Y-93738108D01*
X159364890Y-92949520D02*
X158080960Y-92949520D01*
X160153478Y-93738108D02*
X159364890Y-92949520D01*
X154435581Y-106932990D02*
X154778480Y-107275889D01*
X154038851Y-106536260D02*
X154435581Y-106932990D01*
X154038851Y-105675582D02*
X154038851Y-106536260D01*
X156225000Y-105000000D02*
X153546501Y-102321501D01*
X153546501Y-102321501D02*
X153546501Y-93903499D01*
X158110000Y-105000000D02*
X156225000Y-105000000D01*
X153546501Y-93903499D02*
X154500480Y-92949520D01*
X154500480Y-92949520D02*
X155419040Y-92949520D01*
X154500480Y-92949520D02*
X154500000Y-92950000D01*
X155938080Y-92949520D02*
X155937600Y-92950000D01*
X155747533Y-105578402D02*
X155747533Y-104950007D01*
X153182945Y-102377853D02*
X152840046Y-102034954D01*
X153182945Y-102385419D02*
X153182945Y-102377853D01*
X155747533Y-104950007D02*
X153182945Y-102385419D01*
X156322010Y-93599760D02*
X155419040Y-93599760D01*
X156595189Y-93872939D02*
X156322010Y-93599760D01*
X156595189Y-96322939D02*
X156595189Y-93872939D01*
X156625000Y-96352750D02*
X156595189Y-96322939D01*
X156625000Y-97050000D02*
X156625000Y-96352750D01*
X156625000Y-96352750D02*
X156322010Y-96049760D01*
X156322010Y-96049760D02*
X155419040Y-96049760D01*
X156757101Y-97182101D02*
X156625000Y-97050000D01*
X158450000Y-97525000D02*
X158107101Y-97182101D01*
X158107101Y-97182101D02*
X156757101Y-97182101D01*
X159825000Y-98250000D02*
X159825000Y-98534622D01*
X159825000Y-98534622D02*
X159900000Y-98609622D01*
X161000000Y-98250000D02*
X159825000Y-98250000D01*
X159825000Y-98250000D02*
X159775000Y-98300000D01*
X159775000Y-98300000D02*
X159775000Y-97950000D01*
X159775000Y-97950000D02*
X159600000Y-97775000D01*
X158110000Y-106200000D02*
X159531067Y-106200000D01*
X159531067Y-106200000D02*
X160059620Y-105671447D01*
X160059620Y-105671447D02*
X160059620Y-104997487D01*
X160059620Y-104997487D02*
X159900000Y-104837867D01*
X159900000Y-104837867D02*
X159900000Y-98609622D01*
X159775240Y-97599760D02*
X159600000Y-97775000D01*
X161000000Y-97599760D02*
X159775240Y-97599760D01*
X157760316Y-106224000D02*
X157114718Y-105578402D01*
X157114718Y-105578402D02*
X156232466Y-105578402D01*
X158110316Y-106224000D02*
X157760316Y-106224000D01*
X156232466Y-105578402D02*
X155747533Y-105578402D01*
X153851311Y-95266549D02*
X153851311Y-97651311D01*
X154867860Y-94250000D02*
X153851311Y-95266549D01*
X155010463Y-98810463D02*
X156967458Y-98810463D01*
X155419040Y-94250000D02*
X154867860Y-94250000D01*
X156967458Y-98810463D02*
X157452391Y-98810463D01*
X153851311Y-97651311D02*
X155010463Y-98810463D01*
X154067484Y-104807516D02*
X154127423Y-104807516D01*
X151850000Y-107025000D02*
X154067484Y-104807516D01*
X155800000Y-94250000D02*
X155248820Y-94250000D01*
X153200000Y-96565067D02*
X153200000Y-93375000D01*
X153200000Y-93375000D02*
X153775000Y-92800000D01*
X152875000Y-97375000D02*
X152875000Y-96890067D01*
X152875000Y-96890067D02*
X153200000Y-96565067D01*
X159520189Y-98660878D02*
X159520189Y-98541013D01*
X159595189Y-98735878D02*
X159520189Y-98660878D01*
X159595189Y-104964123D02*
X159595189Y-98735878D01*
X158759312Y-105800000D02*
X159595189Y-104964123D01*
X159579656Y-96949520D02*
X160097030Y-96949520D01*
X159028498Y-98049322D02*
X159028498Y-97500678D01*
X158110000Y-105800000D02*
X158759312Y-105800000D01*
X160097030Y-96949520D02*
X161000000Y-96949520D01*
X159520189Y-98541013D02*
X159028498Y-98049322D01*
X159028498Y-97500678D02*
X159579656Y-96949520D01*
X161638080Y-96949520D02*
X161086900Y-96949520D01*
X154156121Y-95759469D02*
X154516070Y-95399520D01*
X154156121Y-97456121D02*
X154156121Y-95759469D01*
X158007214Y-98676250D02*
X158007214Y-98359103D01*
X154516070Y-95399520D02*
X155419040Y-95399520D01*
X154796887Y-98096887D02*
X154156121Y-97456121D01*
X158007214Y-98359103D02*
X157744998Y-98096887D01*
X159290378Y-104722022D02*
X159290378Y-99959414D01*
X158612400Y-105400000D02*
X159290378Y-104722022D01*
X157744998Y-98096887D02*
X154796887Y-98096887D01*
X158110000Y-105400000D02*
X158612400Y-105400000D01*
X159290378Y-99959414D02*
X158007214Y-98676250D01*
D28*
X142050000Y-106275000D02*
X140882750Y-105107750D01*
X140882750Y-105107750D02*
X140729011Y-105107750D01*
X141750000Y-108775000D02*
X141750000Y-106575000D01*
X141750000Y-106575000D02*
X142050000Y-106275000D01*
D27*
X154875000Y-125400000D02*
X155598600Y-125400000D01*
X155598600Y-125400000D02*
X156000000Y-124998600D01*
D28*
X138769634Y-115718080D02*
X138426735Y-116060979D01*
X141825000Y-112662714D02*
X138769634Y-115718080D01*
X141825000Y-111575000D02*
X141825000Y-112662714D01*
X150325000Y-100775000D02*
X150325000Y-101766750D01*
X150325000Y-101766750D02*
X150183375Y-101908375D01*
X150325000Y-98900000D02*
X150325000Y-100775000D01*
D27*
X148050000Y-104575000D02*
X148475000Y-104150000D01*
X142475000Y-99500000D02*
X142475000Y-99015067D01*
X142475000Y-100800000D02*
X142475000Y-100625000D01*
X146725000Y-114675000D02*
X146725000Y-114190067D01*
X156900000Y-93625000D02*
X156900000Y-91975000D01*
X156900000Y-93625000D02*
X156925240Y-93599760D01*
X156925240Y-93599760D02*
X158080960Y-93599760D01*
X156900000Y-95771770D02*
X156900000Y-93625000D01*
X158080960Y-96049760D02*
X157177990Y-96049760D01*
X157177990Y-96049760D02*
X156900000Y-95771770D01*
X163661920Y-97599760D02*
X165124760Y-97599760D01*
D28*
X142275000Y-115025000D02*
X143050000Y-115025000D01*
D27*
X139625000Y-110175000D02*
X139250000Y-110175000D01*
X161190316Y-106624000D02*
X163010450Y-106624000D01*
X163010450Y-106624000D02*
X163061629Y-106572821D01*
X163061629Y-106572821D02*
X163404528Y-106229922D01*
X161190316Y-107024000D02*
X161540316Y-107024000D01*
X161540316Y-107024000D02*
X162406505Y-106287883D01*
X162406505Y-106287883D02*
X162579214Y-106491109D01*
X161190316Y-107424000D02*
X161540316Y-107424000D01*
X161540316Y-107424000D02*
X162119760Y-106931569D01*
X162119760Y-106931569D02*
X162408598Y-107036104D01*
X162408598Y-107036104D02*
X162993938Y-107218712D01*
X161190316Y-107824000D02*
X161540316Y-107824000D01*
X161540316Y-107824000D02*
X162065274Y-107377873D01*
X162065274Y-107377873D02*
X162237982Y-107581100D01*
X161190316Y-108176401D02*
X161540316Y-108176401D01*
X161540316Y-108176401D02*
X162065274Y-108622527D01*
X162065274Y-108622527D02*
X162237982Y-108419301D01*
X161190316Y-108576401D02*
X161540316Y-108576401D01*
X161540316Y-108576401D02*
X162119760Y-109068832D01*
X162119760Y-109068832D02*
X162408598Y-108964297D01*
X162408598Y-108964297D02*
X162993938Y-108781689D01*
X161190316Y-108976401D02*
X161540316Y-108976401D01*
X161540316Y-108976401D02*
X162406505Y-109712518D01*
X162406505Y-109712518D02*
X162579214Y-109509292D01*
X161190316Y-109376401D02*
X161540316Y-109376401D01*
X161540316Y-109376401D02*
X162460992Y-110158823D01*
X162460992Y-110158823D02*
X162749830Y-110054287D01*
X162749830Y-110054287D02*
X163335170Y-109871680D01*
X164300000Y-96949520D02*
X164851180Y-96949520D01*
D28*
X153073208Y-102775000D02*
X152700000Y-102775000D01*
X154750000Y-106218004D02*
X154750000Y-104451791D01*
X156149119Y-107617123D02*
X154750000Y-106218004D01*
X149397181Y-95064823D02*
X148760786Y-94428428D01*
X154750000Y-104451791D02*
X153073208Y-102775000D01*
X152700000Y-102775000D02*
X151750000Y-101825000D01*
X151750000Y-101825000D02*
X151750000Y-97417642D01*
X151750000Y-97417642D02*
X149397181Y-95064823D01*
D27*
X157500000Y-121150000D02*
X157500000Y-124300480D01*
X157500000Y-124300480D02*
X158198820Y-124999300D01*
X158198820Y-124999300D02*
X158750000Y-124999300D01*
X156850000Y-120500000D02*
X157500000Y-121150000D01*
X152100000Y-120500000D02*
X156850000Y-120500000D01*
D28*
X150219815Y-114755185D02*
X150219815Y-115103066D01*
X151629125Y-113345875D02*
X150219815Y-114755185D01*
X151845559Y-113345875D02*
X151846208Y-113345226D01*
X151629125Y-113345875D02*
X151845559Y-113345875D01*
X150325000Y-96700000D02*
X150325000Y-95916000D01*
X150325000Y-95916000D02*
X148837428Y-94428428D01*
X148837428Y-94428428D02*
X148760786Y-94428428D01*
X148425000Y-96700000D02*
X148425000Y-94764214D01*
X148425000Y-94764214D02*
X148760786Y-94428428D01*
D27*
X158110316Y-107424000D02*
X157917193Y-107617123D01*
X157917193Y-107617123D02*
X156634052Y-107617123D01*
X157634547Y-107746752D02*
X157149614Y-107746752D01*
X156634052Y-107617123D02*
X156149119Y-107617123D01*
X158110316Y-107824000D02*
X158033068Y-107746752D01*
X158033068Y-107746752D02*
X157634547Y-107746752D01*
X158110316Y-108176401D02*
X157760316Y-108176401D01*
X157760316Y-108176401D02*
X157235359Y-108622527D01*
X157235359Y-108622527D02*
X157062650Y-108419301D01*
X158110316Y-108576401D02*
X157760316Y-108576401D01*
X157760316Y-108576401D02*
X157180872Y-109068832D01*
X157180872Y-109068832D02*
X156892034Y-108964297D01*
X156892034Y-108964297D02*
X156306694Y-108781689D01*
X158110316Y-108976401D02*
X157760316Y-108976401D01*
X157760316Y-108976401D02*
X156894127Y-109712518D01*
X156894127Y-109712518D02*
X156721418Y-109509292D01*
X158110316Y-109376401D02*
X157760316Y-109376401D01*
X157760316Y-109376401D02*
X156839640Y-110158823D01*
X156839640Y-110158823D02*
X156550802Y-110054287D01*
X156550802Y-110054287D02*
X155965462Y-109871680D01*
X158750000Y-121600000D02*
X158750000Y-123500700D01*
X156000000Y-123500000D02*
X156000000Y-121600000D01*
X139232099Y-106692899D02*
X139574998Y-106350000D01*
X138475000Y-107450000D02*
X139232099Y-106692899D01*
X142167899Y-110742899D02*
X141825000Y-110400000D01*
X141412625Y-115878498D02*
X141412625Y-113762375D01*
X141412625Y-113762375D02*
X142450000Y-112725000D01*
X142450000Y-112725000D02*
X142450000Y-111025000D01*
X142450000Y-111025000D02*
X142167899Y-110742899D01*
X152175000Y-125325000D02*
X152924300Y-125325000D01*
X152924300Y-125325000D02*
X153250000Y-124999300D01*
X146425000Y-117875000D02*
X147425000Y-118875000D01*
X153250000Y-123500700D02*
X153250000Y-121600000D01*
X136100837Y-108546246D02*
X136625582Y-108021501D01*
X138703317Y-108021501D02*
X138953879Y-108272063D01*
X138953879Y-108272063D02*
X139438812Y-108272063D01*
X136625582Y-108021501D02*
X138703317Y-108021501D01*
X136609136Y-109384132D02*
X136124203Y-109384132D01*
X137118397Y-109384132D02*
X136609136Y-109384132D01*
X137853480Y-108649049D02*
X137118397Y-109384132D01*
X161045015Y-115800200D02*
X161045015Y-116945501D01*
X161190316Y-115376401D02*
X161540316Y-115376401D01*
X161540316Y-115376401D02*
X162208326Y-115944098D01*
X162208326Y-115944098D02*
X162035617Y-116147324D01*
X161190316Y-114976401D02*
X161540316Y-114976401D01*
X161540316Y-114976401D02*
X162657575Y-115925886D01*
X162657575Y-115925886D02*
X162600996Y-116227803D01*
X162600996Y-116227803D02*
X162511810Y-116834445D01*
X161190316Y-114576401D02*
X161540316Y-114576401D01*
X161540316Y-114576401D02*
X163339083Y-116105055D01*
X163339083Y-116105055D02*
X163166374Y-116308281D01*
X161190316Y-114176401D02*
X161540316Y-114176401D01*
X161540316Y-114176401D02*
X163788332Y-116086842D01*
X163788332Y-116086842D02*
X163731753Y-116388759D01*
X163731753Y-116388759D02*
X163642567Y-116995401D01*
X161190316Y-113776401D02*
X161540316Y-113776401D01*
X161540316Y-113776401D02*
X164453897Y-116252462D01*
X164453897Y-116252462D02*
X164626605Y-116049236D01*
X161190316Y-113376401D02*
X161540316Y-113376401D01*
X161540316Y-113376401D02*
X164167151Y-115608776D01*
X164167151Y-115608776D02*
X164455989Y-115504240D01*
X164455989Y-115504240D02*
X165041329Y-115321633D01*
X161190316Y-112976401D02*
X161540316Y-112976401D01*
X161540316Y-112976401D02*
X164112665Y-115162471D01*
X164112665Y-115162471D02*
X164285373Y-114959245D01*
X161190316Y-112576401D02*
X161540316Y-112576401D01*
X161540316Y-112576401D02*
X163825920Y-114518785D01*
X163825920Y-114518785D02*
X164114757Y-114414250D01*
X164114757Y-114414250D02*
X164700097Y-114231642D01*
X161190316Y-112176401D02*
X161540316Y-112176401D01*
X161540316Y-112176401D02*
X163771433Y-114072481D01*
X163771433Y-114072481D02*
X163944142Y-113869254D01*
X161190316Y-111776401D02*
X161540316Y-111776401D01*
X161540316Y-111776401D02*
X163484688Y-113428795D01*
X163484688Y-113428795D02*
X163773526Y-113324259D01*
X163773526Y-113324259D02*
X164358866Y-113141651D01*
X161190316Y-111376401D02*
X161540316Y-111376401D01*
X161540316Y-111376401D02*
X163430201Y-112982490D01*
X163430201Y-112982490D02*
X163602910Y-112779264D01*
X161190316Y-110976401D02*
X161540316Y-110976401D01*
X161540316Y-110976401D02*
X163143456Y-112338804D01*
X163143456Y-112338804D02*
X163432294Y-112234268D01*
X163432294Y-112234268D02*
X164017634Y-112051661D01*
X161190316Y-110576401D02*
X161540316Y-110576401D01*
X161540316Y-110576401D02*
X163088969Y-111892499D01*
X163088969Y-111892499D02*
X163261678Y-111689273D01*
X161190316Y-110176401D02*
X161540316Y-110176401D01*
X161540316Y-110176401D02*
X162802224Y-111248813D01*
X162802224Y-111248813D02*
X163091062Y-111144278D01*
X163091062Y-111144278D02*
X163676402Y-110961670D01*
X161190316Y-109776401D02*
X161540316Y-109776401D01*
X161540316Y-109776401D02*
X162747737Y-110802509D01*
X162747737Y-110802509D02*
X162920446Y-110599282D01*
X162436451Y-105544961D02*
X162921384Y-105544961D01*
X161190316Y-106224000D02*
X161726716Y-106224000D01*
X162405755Y-105544961D02*
X162436451Y-105544961D01*
X161726716Y-106224000D02*
X162405755Y-105544961D01*
X161190316Y-105824000D02*
X161695650Y-105824000D01*
X162362183Y-105157467D02*
X162480417Y-105157467D01*
X162480417Y-105157467D02*
X162689200Y-104948684D01*
X161695650Y-105824000D02*
X162362183Y-105157467D01*
X162917837Y-104948684D02*
X162943003Y-104973850D01*
X163601174Y-104973850D02*
X163708730Y-105081406D01*
X162689200Y-104948684D02*
X162917837Y-104948684D01*
X162943003Y-104973850D02*
X163601174Y-104973850D01*
X162235928Y-104852656D02*
X162354161Y-104852656D01*
X162354161Y-104852656D02*
X162804470Y-104402347D01*
X162804470Y-104402347D02*
X163217325Y-104402347D01*
X161664584Y-105424000D02*
X162235928Y-104852656D01*
X161190316Y-105424000D02*
X161664584Y-105424000D01*
X162109672Y-104547845D02*
X162192222Y-104547845D01*
X161190316Y-105024000D02*
X161633517Y-105024000D01*
X161633517Y-105024000D02*
X162109672Y-104547845D01*
X162192222Y-104547845D02*
X163240067Y-103500000D01*
X163240067Y-103500000D02*
X163475000Y-103500000D01*
X161602450Y-104624000D02*
X161983416Y-104243034D01*
X162047033Y-104243034D02*
X162903499Y-103386568D01*
X163200679Y-102928499D02*
X163821501Y-102928499D01*
X162903499Y-103225679D02*
X163200679Y-102928499D01*
X161983416Y-104243034D02*
X162047033Y-104243034D01*
X162903499Y-103386568D02*
X162903499Y-103225679D01*
X163821501Y-102928499D02*
X163975000Y-102775000D01*
X161190316Y-104624000D02*
X161602450Y-104624000D01*
X162598688Y-103255488D02*
X162598688Y-103099423D01*
X163226312Y-102623688D02*
X163607101Y-102242899D01*
X161915953Y-103938223D02*
X162598688Y-103255488D01*
X163074423Y-102623688D02*
X163226312Y-102623688D01*
X161571383Y-104224000D02*
X161857160Y-103938223D01*
X162598688Y-103099423D02*
X163074423Y-102623688D01*
X161857160Y-103938223D02*
X161915953Y-103938223D01*
X161190316Y-104224000D02*
X161571383Y-104224000D01*
X163607101Y-102242899D02*
X163950000Y-101900000D01*
X161540316Y-103824000D02*
X161730904Y-103633412D01*
X162293877Y-103129233D02*
X162293877Y-102702049D01*
X162701385Y-102294541D02*
X163044284Y-101951642D01*
X161190316Y-103824000D02*
X161540316Y-103824000D01*
X161789698Y-103633412D02*
X162293877Y-103129233D01*
X162293877Y-102702049D02*
X162701385Y-102294541D01*
X161730904Y-103633412D02*
X161789698Y-103633412D01*
X161285715Y-103328601D02*
X161646399Y-103328601D01*
X161190316Y-103424000D02*
X161285715Y-103328601D01*
X161989066Y-102985934D02*
X161989066Y-102161036D01*
X163265065Y-101050000D02*
X163749998Y-101050000D01*
X163100102Y-101050000D02*
X163265065Y-101050000D01*
X161989066Y-102161036D02*
X163100102Y-101050000D01*
X161646399Y-103328601D02*
X161989066Y-102985934D01*
X158110000Y-100200000D02*
X157607600Y-100200000D01*
X157607600Y-100200000D02*
X157430093Y-100022493D01*
X157430093Y-100022493D02*
X157430093Y-99948404D01*
X157250000Y-100600000D02*
X156748884Y-100098884D01*
X158110000Y-100600000D02*
X157250000Y-100600000D01*
X156748884Y-100098884D02*
X156748884Y-99748572D01*
X156748884Y-99748572D02*
X156405985Y-99405673D01*
X157242934Y-101024000D02*
X156196109Y-99977175D01*
X155913078Y-99812042D02*
X155570179Y-99469143D01*
X156078211Y-99977175D02*
X155913078Y-99812042D01*
X158110316Y-101024000D02*
X157242934Y-101024000D01*
X156196109Y-99977175D02*
X156078211Y-99977175D01*
X144100002Y-108624998D02*
X143825000Y-108900000D01*
X146050000Y-108624998D02*
X144100002Y-108624998D01*
X156069853Y-100281986D02*
X154977722Y-100281986D01*
X157611867Y-101824000D02*
X156069853Y-100281986D01*
X154647184Y-100612524D02*
X154162251Y-100612524D01*
X158110316Y-101824000D02*
X157611867Y-101824000D01*
X154977722Y-100281986D02*
X154647184Y-100612524D01*
X157577507Y-102224000D02*
X156520857Y-101167350D01*
X158110316Y-102224000D02*
X157577507Y-102224000D01*
X155292380Y-101167350D02*
X154807447Y-101167350D01*
X156520857Y-101167350D02*
X155292380Y-101167350D01*
X158110316Y-102624000D02*
X157528725Y-102624000D01*
X154814595Y-101961438D02*
X154527804Y-101961438D01*
X157528725Y-102624000D02*
X156509754Y-101605029D01*
X155171004Y-101605029D02*
X154814595Y-101961438D01*
X156509754Y-101605029D02*
X155171004Y-101605029D01*
X157490243Y-103024000D02*
X156640234Y-102173991D01*
X158110316Y-103024000D02*
X157490243Y-103024000D01*
X156640234Y-102173991D02*
X155929040Y-102173991D01*
X155929040Y-102173991D02*
X155444107Y-102173991D01*
X155033525Y-102780548D02*
X154959366Y-102854707D01*
X158110316Y-104224000D02*
X157760316Y-104224000D01*
X157760316Y-104224000D02*
X156316864Y-102780548D01*
X156316864Y-102780548D02*
X155033525Y-102780548D01*
X156970626Y-104624000D02*
X156041569Y-103694943D01*
X156041569Y-103694943D02*
X155698670Y-103352044D01*
X158110316Y-104624000D02*
X156970626Y-104624000D01*
X156559933Y-106350000D02*
X156075000Y-106350000D01*
X157419374Y-106350000D02*
X156559933Y-106350000D01*
X158110316Y-106624000D02*
X157693374Y-106624000D01*
X157693374Y-106624000D02*
X157419374Y-106350000D01*
X157277797Y-106988248D02*
X156792864Y-106988248D01*
X158074564Y-106988248D02*
X157277797Y-106988248D01*
X158110316Y-107024000D02*
X158074564Y-106988248D01*
X158110316Y-111376401D02*
X157760316Y-111376401D01*
X157760316Y-111376401D02*
X157342420Y-111731543D01*
X157342420Y-111731543D02*
X156552895Y-110802509D01*
X156552895Y-110802509D02*
X156380187Y-110599282D01*
X158110316Y-111776401D02*
X157760316Y-111776401D01*
X157760316Y-111776401D02*
X157287934Y-112177847D01*
X157287934Y-112177847D02*
X156498409Y-111248813D01*
X156498409Y-111248813D02*
X156209571Y-111144278D01*
X156209571Y-111144278D02*
X155624231Y-110961670D01*
X158110316Y-112176401D02*
X157760316Y-112176401D01*
X157760316Y-112176401D02*
X157001189Y-112821533D01*
X157001189Y-112821533D02*
X156211663Y-111892499D01*
X156211663Y-111892499D02*
X156038955Y-111689273D01*
X158110316Y-112576401D02*
X157760316Y-112576401D01*
X157760316Y-112576401D02*
X156946702Y-113267838D01*
X156946702Y-113267838D02*
X156157177Y-112338804D01*
X156157177Y-112338804D02*
X155868339Y-112234268D01*
X155868339Y-112234268D02*
X155282999Y-112051661D01*
X158110316Y-112976401D02*
X157760316Y-112976401D01*
X157760316Y-112976401D02*
X156659957Y-113911524D01*
X156659957Y-113911524D02*
X155870431Y-112982490D01*
X155870431Y-112982490D02*
X155697723Y-112779264D01*
X158110316Y-113376401D02*
X157760316Y-113376401D01*
X157760316Y-113376401D02*
X156605470Y-114357829D01*
X156605470Y-114357829D02*
X155815945Y-113428795D01*
X155815945Y-113428795D02*
X155527107Y-113324259D01*
X155527107Y-113324259D02*
X154941767Y-113141651D01*
X158110316Y-113776401D02*
X157760316Y-113776401D01*
X157760316Y-113776401D02*
X156318725Y-115001515D01*
X156318725Y-115001515D02*
X155529200Y-114072481D01*
X155529200Y-114072481D02*
X155356491Y-113869254D01*
X158110316Y-114176401D02*
X157760316Y-114176401D01*
X157760316Y-114176401D02*
X156264238Y-115447819D01*
X156264238Y-115447819D02*
X155474713Y-114518785D01*
X155474713Y-114518785D02*
X155185875Y-114414250D01*
X155185875Y-114414250D02*
X154600535Y-114231642D01*
X155566054Y-115607365D02*
X155187968Y-115162471D01*
X156016794Y-116058105D02*
X155566054Y-115607365D01*
X157760316Y-114576401D02*
X156016794Y-116058105D01*
X158110316Y-114576401D02*
X157760316Y-114576401D01*
X155187968Y-115162471D02*
X155015259Y-114959245D01*
X157760316Y-114976401D02*
X156085167Y-116400000D01*
X155136399Y-115608776D02*
X155890537Y-116362914D01*
X155133481Y-115608776D02*
X155136399Y-115608776D01*
X155890537Y-116362914D02*
X156048081Y-116362914D01*
X156048081Y-116362914D02*
X156085167Y-116400000D01*
X158110316Y-114976401D02*
X157760316Y-114976401D01*
X155133481Y-115608776D02*
X154844643Y-115504240D01*
X154844643Y-115504240D02*
X154259303Y-115321633D01*
X158110000Y-115400000D02*
X157732561Y-115400000D01*
X157732561Y-115400000D02*
X156186347Y-116714025D01*
X156186347Y-116714025D02*
X156026010Y-116701010D01*
X154674027Y-116049236D02*
X155016926Y-116392135D01*
X155016926Y-116392135D02*
X155488692Y-116392135D01*
X155488692Y-116392135D02*
X155777383Y-116680826D01*
X155777383Y-116680826D02*
X156026010Y-116701010D01*
X158110316Y-115776401D02*
X157823599Y-115776401D01*
X157823599Y-115776401D02*
X156425000Y-117175000D01*
X156425000Y-117175000D02*
X155909933Y-117175000D01*
X155909933Y-117175000D02*
X155425000Y-117175000D01*
X150077527Y-112463210D02*
X148861612Y-113679125D01*
X148861612Y-113679125D02*
X148595875Y-113679125D01*
X140450000Y-116500000D02*
X140400000Y-116450000D01*
X142025000Y-116500000D02*
X140450000Y-116500000D01*
X149295874Y-114379126D02*
X150386131Y-113288869D01*
X150386131Y-113288869D02*
X150703187Y-113288869D01*
X137557101Y-116732101D02*
X137976889Y-117151889D01*
X141013152Y-117151889D02*
X141498085Y-117151889D01*
X137900000Y-114925000D02*
X137557101Y-115267899D01*
X137557101Y-115267899D02*
X137557101Y-116732101D01*
X137976889Y-117151889D02*
X141013152Y-117151889D01*
X143975000Y-96025000D02*
X143975000Y-94425000D01*
X143975000Y-94425000D02*
X144025000Y-94375000D01*
X145175000Y-95950000D02*
X145175000Y-94425000D01*
G36*
X136427200Y-90442795D02*
X136427200Y-91251150D01*
X136573250Y-91397200D01*
X137697200Y-91397200D01*
X137697200Y-91377200D01*
X138052800Y-91377200D01*
X138052800Y-91397200D01*
X138072800Y-91397200D01*
X138072800Y-91752800D01*
X138052800Y-91752800D01*
X138052800Y-93029150D01*
X138198850Y-93175200D01*
X138854804Y-93175200D01*
X139069522Y-93086261D01*
X139233861Y-92921923D01*
X139322800Y-92707205D01*
X139322800Y-92226675D01*
X139570856Y-92597918D01*
X139958153Y-92856701D01*
X140415000Y-92947574D01*
X140871847Y-92856701D01*
X141259144Y-92597918D01*
X141517927Y-92210621D01*
X141552714Y-92035736D01*
X141735148Y-92504716D01*
X142125470Y-92912363D01*
X142554618Y-93118737D01*
X142777200Y-93016950D01*
X142777200Y-91752800D01*
X142757200Y-91752800D01*
X142757200Y-91397200D01*
X142777200Y-91397200D01*
X142777200Y-91377200D01*
X143132800Y-91377200D01*
X143132800Y-91397200D01*
X143152800Y-91397200D01*
X143152800Y-91752800D01*
X143132800Y-91752800D01*
X143132800Y-93016950D01*
X143355382Y-93118737D01*
X143784530Y-92912363D01*
X144174852Y-92504716D01*
X144357286Y-92035736D01*
X144392073Y-92210621D01*
X144650856Y-92597918D01*
X145038153Y-92856701D01*
X145495000Y-92947574D01*
X145951847Y-92856701D01*
X146122538Y-92742649D01*
X150698012Y-92742649D01*
X150698012Y-92949195D01*
X150952532Y-93203715D01*
X151116869Y-93368053D01*
X151331587Y-93456992D01*
X151563997Y-93456993D01*
X151778715Y-93368053D01*
X152338995Y-92807774D01*
X152338995Y-92601228D01*
X151589214Y-91851447D01*
X150698012Y-92742649D01*
X146122538Y-92742649D01*
X146339144Y-92597918D01*
X146597927Y-92210621D01*
X146688800Y-91753774D01*
X146688800Y-91625217D01*
X149732221Y-91625217D01*
X149732222Y-91857627D01*
X149821161Y-92072345D01*
X149985499Y-92236682D01*
X150240019Y-92491202D01*
X150446565Y-92491202D01*
X151337767Y-91600000D01*
X151840661Y-91600000D01*
X152590442Y-92349781D01*
X152796988Y-92349781D01*
X153357267Y-91789501D01*
X153446207Y-91574783D01*
X153446206Y-91342373D01*
X153357267Y-91127655D01*
X153192929Y-90963318D01*
X152938409Y-90708798D01*
X152731863Y-90708798D01*
X151840661Y-91600000D01*
X151337767Y-91600000D01*
X150587986Y-90850219D01*
X150381440Y-90850219D01*
X149821161Y-91410499D01*
X149732221Y-91625217D01*
X146688800Y-91625217D01*
X146688800Y-91396226D01*
X146597927Y-90939379D01*
X146339144Y-90552082D01*
X146119319Y-90405200D01*
X150839433Y-90405200D01*
X150839433Y-90598772D01*
X151589214Y-91348553D01*
X152480416Y-90457351D01*
X152480416Y-90405200D01*
X163210092Y-90405200D01*
X164144277Y-90591021D01*
X164902410Y-91097588D01*
X165408979Y-91855723D01*
X165594800Y-92789907D01*
X165594800Y-114923331D01*
X165423107Y-114751339D01*
X165217681Y-114666039D01*
X165270391Y-114613420D01*
X165373080Y-114366117D01*
X165373314Y-114098341D01*
X165271056Y-113850859D01*
X165081875Y-113661348D01*
X164876449Y-113576048D01*
X164929160Y-113523429D01*
X165031849Y-113276126D01*
X165032083Y-113008350D01*
X164929825Y-112760868D01*
X164740644Y-112571357D01*
X164535218Y-112486057D01*
X164587928Y-112433439D01*
X164690617Y-112186136D01*
X164690851Y-111918360D01*
X164588593Y-111670878D01*
X164399412Y-111481367D01*
X164193986Y-111396067D01*
X164246696Y-111343448D01*
X164349385Y-111096145D01*
X164349619Y-110828369D01*
X164247361Y-110580887D01*
X164058180Y-110391376D01*
X163810877Y-110288687D01*
X163543101Y-110288453D01*
X163523633Y-110296497D01*
X163491405Y-110218499D01*
X163302224Y-110028988D01*
X163054921Y-109926299D01*
X162787145Y-109926065D01*
X162539663Y-110028323D01*
X162505019Y-110062907D01*
X162086495Y-109707231D01*
X162124200Y-109616204D01*
X162124200Y-109596050D01*
X161997167Y-109469017D01*
X162035261Y-109430922D01*
X162124200Y-109216204D01*
X162124200Y-109183796D01*
X162048069Y-109000000D01*
X162124200Y-108816204D01*
X162124200Y-108783796D01*
X162048069Y-108600000D01*
X162124200Y-108416204D01*
X162124200Y-108383796D01*
X162048069Y-108200000D01*
X162124200Y-108016204D01*
X162124200Y-107983796D01*
X162048069Y-107800000D01*
X162124200Y-107616204D01*
X162124200Y-107583796D01*
X162048069Y-107400000D01*
X162124200Y-107216204D01*
X162124200Y-107183796D01*
X162048069Y-107000000D01*
X162124200Y-106816204D01*
X162124200Y-106783796D01*
X162035261Y-106569078D01*
X161997167Y-106530983D01*
X162124200Y-106403950D01*
X162124200Y-106401252D01*
X162474958Y-106050494D01*
X162539606Y-106115255D01*
X162786909Y-106217944D01*
X163054685Y-106218178D01*
X163302167Y-106115920D01*
X163491678Y-105926739D01*
X163564863Y-105750489D01*
X163574255Y-105754389D01*
X163842031Y-105754623D01*
X164089513Y-105652365D01*
X164279024Y-105463184D01*
X164381713Y-105215881D01*
X164381947Y-104948105D01*
X164279689Y-104700623D01*
X164090508Y-104511112D01*
X163890403Y-104428021D01*
X163890542Y-104269046D01*
X163815561Y-104087579D01*
X163855783Y-104070959D01*
X164045294Y-103881778D01*
X164147983Y-103634475D01*
X164148160Y-103431747D01*
X164355783Y-103345959D01*
X164545294Y-103156778D01*
X164647983Y-102909475D01*
X164648217Y-102641699D01*
X164545959Y-102394217D01*
X164476929Y-102325067D01*
X164520294Y-102281778D01*
X164622983Y-102034475D01*
X164623217Y-101766699D01*
X164520959Y-101519217D01*
X164353599Y-101351565D01*
X164422981Y-101184475D01*
X164423215Y-100916699D01*
X164320957Y-100669217D01*
X164131776Y-100479706D01*
X163884473Y-100377017D01*
X163616697Y-100376783D01*
X163369215Y-100479041D01*
X163204369Y-100643600D01*
X163100102Y-100643600D01*
X162944579Y-100674535D01*
X162812734Y-100762632D01*
X161876463Y-101698903D01*
X161857162Y-101596329D01*
X161876669Y-101500000D01*
X161876669Y-101300000D01*
X161857162Y-101196329D01*
X161876669Y-101100000D01*
X161876669Y-100900000D01*
X161857162Y-100796329D01*
X161876669Y-100700000D01*
X161876669Y-100500000D01*
X161857162Y-100396329D01*
X161876669Y-100300000D01*
X161876669Y-100100000D01*
X161853644Y-99977635D01*
X161781327Y-99865251D01*
X161670983Y-99789856D01*
X161540000Y-99763331D01*
X160840000Y-99763331D01*
X160717635Y-99786356D01*
X160605251Y-99858673D01*
X160529856Y-99969017D01*
X160503331Y-100100000D01*
X160503331Y-100300000D01*
X160522838Y-100403671D01*
X160503331Y-100500000D01*
X160503331Y-100700000D01*
X160522838Y-100803671D01*
X160503331Y-100900000D01*
X160503331Y-101100000D01*
X160522838Y-101203671D01*
X160503331Y-101300000D01*
X160503331Y-101500000D01*
X160522838Y-101603671D01*
X160503331Y-101700000D01*
X160503331Y-101900000D01*
X160522838Y-102003671D01*
X160503331Y-102100000D01*
X160503331Y-102300000D01*
X160522838Y-102403671D01*
X160503331Y-102500000D01*
X160503331Y-102700000D01*
X160522838Y-102803671D01*
X160503331Y-102900000D01*
X160503331Y-103100000D01*
X160522838Y-103203671D01*
X160503331Y-103300000D01*
X160503331Y-103500000D01*
X160522838Y-103603671D01*
X160503331Y-103700000D01*
X160503331Y-103900000D01*
X160522838Y-104003671D01*
X160503331Y-104100000D01*
X160503331Y-104300000D01*
X160522838Y-104403671D01*
X160503331Y-104500000D01*
X160503331Y-104700000D01*
X160522838Y-104803671D01*
X160503331Y-104900000D01*
X160503331Y-105100000D01*
X160522838Y-105203671D01*
X160503331Y-105300000D01*
X160503331Y-105500000D01*
X160522838Y-105603671D01*
X160503331Y-105700000D01*
X160503331Y-105900000D01*
X160522030Y-105999374D01*
X160509077Y-106004739D01*
X160344739Y-106169078D01*
X160255800Y-106383796D01*
X160255800Y-106403950D01*
X160382833Y-106530983D01*
X160344739Y-106569078D01*
X160255800Y-106783796D01*
X160255800Y-106816204D01*
X160331931Y-107000000D01*
X160255800Y-107183796D01*
X160255800Y-107216204D01*
X160331931Y-107400000D01*
X160255800Y-107583796D01*
X160255800Y-107616204D01*
X160331931Y-107800000D01*
X160255800Y-107983796D01*
X160255800Y-108016204D01*
X160331931Y-108200000D01*
X160255800Y-108383796D01*
X160255800Y-108416204D01*
X160331931Y-108600000D01*
X160255800Y-108783796D01*
X160255800Y-108816204D01*
X160331931Y-109000000D01*
X160255800Y-109183796D01*
X160255800Y-109216204D01*
X160344739Y-109430922D01*
X160382833Y-109469017D01*
X160255800Y-109596050D01*
X160255800Y-109616204D01*
X160344739Y-109830922D01*
X160509077Y-109995261D01*
X160522285Y-110000732D01*
X160522838Y-110003671D01*
X160503331Y-110100000D01*
X160503331Y-110300000D01*
X160522838Y-110403671D01*
X160503331Y-110500000D01*
X160503331Y-110700000D01*
X160522838Y-110803671D01*
X160503331Y-110900000D01*
X160503331Y-111100000D01*
X160522838Y-111203671D01*
X160503331Y-111300000D01*
X160503331Y-111500000D01*
X160522838Y-111603671D01*
X160503331Y-111700000D01*
X160503331Y-111900000D01*
X160522838Y-112003671D01*
X160503331Y-112100000D01*
X160503331Y-112300000D01*
X160522838Y-112403671D01*
X160503331Y-112500000D01*
X160503331Y-112700000D01*
X160522838Y-112803671D01*
X160503331Y-112900000D01*
X160503331Y-113100000D01*
X160522838Y-113203671D01*
X160503331Y-113300000D01*
X160503331Y-113500000D01*
X160522838Y-113603671D01*
X160503331Y-113700000D01*
X160503331Y-113900000D01*
X160522838Y-114003671D01*
X160503331Y-114100000D01*
X160503331Y-114300000D01*
X160522838Y-114403671D01*
X160503331Y-114500000D01*
X160503331Y-114700000D01*
X160522838Y-114803671D01*
X160503331Y-114900000D01*
X160503331Y-115100000D01*
X160522838Y-115203671D01*
X160503331Y-115300000D01*
X160503331Y-115500000D01*
X160522838Y-115603671D01*
X160503331Y-115700000D01*
X160503331Y-115900000D01*
X160526356Y-116022365D01*
X160598673Y-116134749D01*
X160638615Y-116162040D01*
X160638615Y-116400114D01*
X160474721Y-116563723D01*
X160372032Y-116811026D01*
X160371798Y-117078802D01*
X160474056Y-117326284D01*
X160663237Y-117515795D01*
X160910540Y-117618484D01*
X161178316Y-117618718D01*
X161425798Y-117516460D01*
X161615309Y-117327279D01*
X161717998Y-117079976D01*
X161718232Y-116812200D01*
X161684394Y-116730305D01*
X161838744Y-116794397D01*
X161838593Y-116967746D01*
X161940851Y-117215228D01*
X162130032Y-117404739D01*
X162377335Y-117507428D01*
X162645111Y-117507662D01*
X162892593Y-117405404D01*
X163027879Y-117270353D01*
X163071608Y-117376184D01*
X163260789Y-117565695D01*
X163508092Y-117668384D01*
X163775868Y-117668618D01*
X164023350Y-117566360D01*
X164212861Y-117377179D01*
X164315550Y-117129876D01*
X164315784Y-116862100D01*
X164213526Y-116614618D01*
X164122694Y-116523627D01*
X164125216Y-116506470D01*
X164169713Y-116544285D01*
X164244827Y-116619530D01*
X164492130Y-116722219D01*
X164759906Y-116722453D01*
X165007388Y-116620195D01*
X165196899Y-116431014D01*
X165299588Y-116183711D01*
X165299798Y-115943131D01*
X165422112Y-115892592D01*
X165594800Y-115720205D01*
X165594800Y-123210093D01*
X165408979Y-124144277D01*
X164902410Y-124902412D01*
X164144277Y-125408979D01*
X163210092Y-125594800D01*
X159414008Y-125594800D01*
X159458924Y-125529063D01*
X159485449Y-125398080D01*
X159485449Y-124600520D01*
X159462424Y-124478155D01*
X159390107Y-124365771D01*
X159279763Y-124290376D01*
X159148780Y-124263851D01*
X158351220Y-124263851D01*
X158228855Y-124286876D01*
X158126802Y-124352546D01*
X157906400Y-124132144D01*
X157906400Y-121150000D01*
X157876564Y-121000000D01*
X157963331Y-121000000D01*
X157963331Y-122200000D01*
X157986356Y-122322365D01*
X158058673Y-122434749D01*
X158169017Y-122510144D01*
X158300000Y-122536669D01*
X158343600Y-122536669D01*
X158343600Y-122766685D01*
X158228855Y-122788276D01*
X158116471Y-122860593D01*
X158041076Y-122970937D01*
X158014551Y-123101920D01*
X158014551Y-123899480D01*
X158037576Y-124021845D01*
X158109893Y-124134229D01*
X158220237Y-124209624D01*
X158351220Y-124236149D01*
X159148780Y-124236149D01*
X159271145Y-124213124D01*
X159383529Y-124140807D01*
X159458924Y-124030463D01*
X159485449Y-123899480D01*
X159485449Y-123101920D01*
X159462424Y-122979555D01*
X159390107Y-122867171D01*
X159279763Y-122791776D01*
X159156400Y-122766794D01*
X159156400Y-122538130D01*
X159573614Y-122538130D01*
X159737110Y-122933822D01*
X160039586Y-123236826D01*
X160434991Y-123401013D01*
X160863130Y-123401386D01*
X161258822Y-123237890D01*
X161419950Y-123077043D01*
X161419483Y-123612452D01*
X161697527Y-124285371D01*
X162211921Y-124800664D01*
X162884354Y-125079882D01*
X163612452Y-125080517D01*
X164285371Y-124802473D01*
X164800664Y-124288079D01*
X165079882Y-123615646D01*
X165080517Y-122887548D01*
X164802473Y-122214629D01*
X164288079Y-121699336D01*
X163615646Y-121420118D01*
X162887548Y-121419483D01*
X162214629Y-121697527D01*
X161726322Y-122184982D01*
X161726386Y-122111870D01*
X161562890Y-121716178D01*
X161260414Y-121413174D01*
X160865009Y-121248987D01*
X160436870Y-121248614D01*
X160041178Y-121412110D01*
X159738174Y-121714586D01*
X159573987Y-122109991D01*
X159573614Y-122538130D01*
X159156400Y-122538130D01*
X159156400Y-122536669D01*
X159200000Y-122536669D01*
X159322365Y-122513644D01*
X159434749Y-122441327D01*
X159510144Y-122330983D01*
X159536669Y-122200000D01*
X159536669Y-121000000D01*
X159513644Y-120877635D01*
X159441327Y-120765251D01*
X159330983Y-120689856D01*
X159200000Y-120663331D01*
X158300000Y-120663331D01*
X158177635Y-120686356D01*
X158065251Y-120758673D01*
X157989856Y-120869017D01*
X157963331Y-121000000D01*
X157876564Y-121000000D01*
X157875465Y-120994477D01*
X157787368Y-120862632D01*
X157137368Y-120212632D01*
X157067845Y-120166178D01*
X157025281Y-120137737D01*
X157034200Y-120116205D01*
X157034200Y-119723850D01*
X157715800Y-119723850D01*
X157715800Y-120116205D01*
X157804739Y-120330923D01*
X157969078Y-120495261D01*
X158183796Y-120584200D01*
X158426150Y-120584200D01*
X158572200Y-120438150D01*
X158572200Y-119577800D01*
X158927800Y-119577800D01*
X158927800Y-120438150D01*
X159073850Y-120584200D01*
X159316204Y-120584200D01*
X159530922Y-120495261D01*
X159695261Y-120330923D01*
X159784200Y-120116205D01*
X159784200Y-119723850D01*
X159638150Y-119577800D01*
X158927800Y-119577800D01*
X158572200Y-119577800D01*
X157861850Y-119577800D01*
X157715800Y-119723850D01*
X157034200Y-119723850D01*
X156888150Y-119577800D01*
X156177800Y-119577800D01*
X156177800Y-119597800D01*
X155822200Y-119597800D01*
X155822200Y-119577800D01*
X155111850Y-119577800D01*
X154965800Y-119723850D01*
X154965800Y-120093600D01*
X154284200Y-120093600D01*
X154284200Y-119723850D01*
X154138150Y-119577800D01*
X153427800Y-119577800D01*
X153427800Y-119597800D01*
X153072200Y-119597800D01*
X153072200Y-119577800D01*
X152361850Y-119577800D01*
X152215800Y-119723850D01*
X152215800Y-119827001D01*
X151966699Y-119826783D01*
X151719217Y-119929041D01*
X151529706Y-120118222D01*
X151427017Y-120365525D01*
X151426783Y-120633301D01*
X151529041Y-120880783D01*
X151718222Y-121070294D01*
X151965525Y-121172983D01*
X152233301Y-121173217D01*
X152463331Y-121078170D01*
X152463331Y-122200000D01*
X152486356Y-122322365D01*
X152558673Y-122434749D01*
X152669017Y-122510144D01*
X152800000Y-122536669D01*
X152843600Y-122536669D01*
X152843600Y-122766685D01*
X152728855Y-122788276D01*
X152616471Y-122860593D01*
X152541076Y-122970937D01*
X152514551Y-123101920D01*
X152514551Y-123899480D01*
X152537576Y-124021845D01*
X152609893Y-124134229D01*
X152720237Y-124209624D01*
X152851220Y-124236149D01*
X153648780Y-124236149D01*
X153771145Y-124213124D01*
X153883529Y-124140807D01*
X153958924Y-124030463D01*
X153985449Y-123899480D01*
X153985449Y-123101920D01*
X153962424Y-122979555D01*
X153890107Y-122867171D01*
X153779763Y-122791776D01*
X153656400Y-122766794D01*
X153656400Y-122536669D01*
X153700000Y-122536669D01*
X153822365Y-122513644D01*
X153934749Y-122441327D01*
X154010144Y-122330983D01*
X154036669Y-122200000D01*
X154036669Y-121000000D01*
X154019057Y-120906400D01*
X155232286Y-120906400D01*
X155213331Y-121000000D01*
X155213331Y-122200000D01*
X155236356Y-122322365D01*
X155308673Y-122434749D01*
X155419017Y-122510144D01*
X155550000Y-122536669D01*
X155593600Y-122536669D01*
X155593600Y-122765985D01*
X155478855Y-122787576D01*
X155366471Y-122859893D01*
X155291076Y-122970237D01*
X155264551Y-123101220D01*
X155264551Y-123898780D01*
X155287576Y-124021145D01*
X155359893Y-124133529D01*
X155470237Y-124208924D01*
X155601220Y-124235449D01*
X156398780Y-124235449D01*
X156521145Y-124212424D01*
X156633529Y-124140107D01*
X156708924Y-124029763D01*
X156735449Y-123898780D01*
X156735449Y-123101220D01*
X156712424Y-122978855D01*
X156640107Y-122866471D01*
X156529763Y-122791076D01*
X156406400Y-122766094D01*
X156406400Y-122536669D01*
X156450000Y-122536669D01*
X156572365Y-122513644D01*
X156684749Y-122441327D01*
X156760144Y-122330983D01*
X156786669Y-122200000D01*
X156786669Y-121011405D01*
X157093600Y-121318336D01*
X157093600Y-124300480D01*
X157124535Y-124456003D01*
X157138869Y-124477455D01*
X157212632Y-124587848D01*
X157911452Y-125286668D01*
X158014551Y-125355557D01*
X158014551Y-125398080D01*
X158037576Y-125520445D01*
X158085422Y-125594800D01*
X156663529Y-125594800D01*
X156708924Y-125528363D01*
X156735449Y-125397380D01*
X156735449Y-124599820D01*
X156712424Y-124477455D01*
X156640107Y-124365071D01*
X156529763Y-124289676D01*
X156398780Y-124263151D01*
X155601220Y-124263151D01*
X155478855Y-124286176D01*
X155366471Y-124358493D01*
X155291076Y-124468837D01*
X155264551Y-124599820D01*
X155264551Y-124837493D01*
X155256778Y-124829706D01*
X155009475Y-124727017D01*
X154741699Y-124726783D01*
X154494217Y-124829041D01*
X154304706Y-125018222D01*
X154202017Y-125265525D01*
X154201783Y-125533301D01*
X154227194Y-125594800D01*
X153914008Y-125594800D01*
X153958924Y-125529063D01*
X153985449Y-125398080D01*
X153985449Y-124600520D01*
X153962424Y-124478155D01*
X153890107Y-124365771D01*
X153779763Y-124290376D01*
X153648780Y-124263851D01*
X152851220Y-124263851D01*
X152728855Y-124286876D01*
X152616471Y-124359193D01*
X152541076Y-124469537D01*
X152514551Y-124600520D01*
X152514551Y-124737172D01*
X152309475Y-124652017D01*
X152041699Y-124651783D01*
X151794217Y-124754041D01*
X151604706Y-124943222D01*
X151502017Y-125190525D01*
X151501783Y-125458301D01*
X151558184Y-125594800D01*
X138737215Y-125594800D01*
X139078281Y-125366907D01*
X139370101Y-124930168D01*
X139472574Y-124415000D01*
X139370101Y-123899832D01*
X139078281Y-123463093D01*
X138725944Y-123227669D01*
X139116000Y-123227669D01*
X139238365Y-123204644D01*
X139350749Y-123132327D01*
X139426144Y-123021983D01*
X139452669Y-122891000D01*
X139452669Y-120859000D01*
X139429644Y-120736635D01*
X139357327Y-120624251D01*
X139246983Y-120548856D01*
X139116000Y-120522331D01*
X137084000Y-120522331D01*
X136961635Y-120545356D01*
X136849251Y-120617673D01*
X136773856Y-120728017D01*
X136747331Y-120859000D01*
X136747331Y-122891000D01*
X136770356Y-123013365D01*
X136842673Y-123125749D01*
X136953017Y-123201144D01*
X137084000Y-123227669D01*
X137474056Y-123227669D01*
X137121719Y-123463093D01*
X136829899Y-123899832D01*
X136727426Y-124415000D01*
X136829899Y-124930168D01*
X137121719Y-125366907D01*
X137462785Y-125594800D01*
X132789907Y-125594800D01*
X131855723Y-125408979D01*
X131097588Y-124902410D01*
X130591021Y-124144277D01*
X130485235Y-123612452D01*
X130919483Y-123612452D01*
X131197527Y-124285371D01*
X131711921Y-124800664D01*
X132384354Y-125079882D01*
X133112452Y-125080517D01*
X133785371Y-124802473D01*
X134300664Y-124288079D01*
X134579882Y-123615646D01*
X134580517Y-122887548D01*
X134302473Y-122214629D01*
X133788079Y-121699336D01*
X133115646Y-121420118D01*
X132387548Y-121419483D01*
X131714629Y-121697527D01*
X131199336Y-122211921D01*
X130920118Y-122884354D01*
X130919483Y-123612452D01*
X130485235Y-123612452D01*
X130405200Y-123210092D01*
X130405200Y-120988130D01*
X133698614Y-120988130D01*
X133862110Y-121383822D01*
X134164586Y-121686826D01*
X134559991Y-121851013D01*
X134988130Y-121851386D01*
X135383822Y-121687890D01*
X135686826Y-121385414D01*
X135851013Y-120990009D01*
X135851386Y-120561870D01*
X135687890Y-120166178D01*
X135385414Y-119863174D01*
X134990009Y-119698987D01*
X134561870Y-119698614D01*
X134166178Y-119862110D01*
X133863174Y-120164586D01*
X133698987Y-120559991D01*
X133698614Y-120988130D01*
X130405200Y-120988130D01*
X130405200Y-118707809D01*
X130497646Y-118817220D01*
X130999615Y-119076351D01*
X131222200Y-118975805D01*
X131222200Y-117862800D01*
X131202200Y-117862800D01*
X131202200Y-117507200D01*
X131222200Y-117507200D01*
X131222200Y-117487200D01*
X131577800Y-117487200D01*
X131577800Y-117507200D01*
X131597800Y-117507200D01*
X131597800Y-117862800D01*
X131577800Y-117862800D01*
X131577800Y-118975805D01*
X131800385Y-119076351D01*
X132302354Y-118817220D01*
X132666948Y-118385719D01*
X132739731Y-118209985D01*
X132739731Y-118548600D01*
X132762756Y-118670965D01*
X132835073Y-118783349D01*
X132945417Y-118858744D01*
X133076400Y-118885269D01*
X134803600Y-118885269D01*
X134925965Y-118862244D01*
X135038349Y-118789927D01*
X135113744Y-118679583D01*
X135140269Y-118548600D01*
X135140269Y-118008301D01*
X145751783Y-118008301D01*
X145854041Y-118255783D01*
X146043222Y-118445294D01*
X146290525Y-118547983D01*
X146523450Y-118548187D01*
X146751985Y-118776722D01*
X146751783Y-119008301D01*
X146854041Y-119255783D01*
X147043222Y-119445294D01*
X147290525Y-119547983D01*
X147558301Y-119548217D01*
X147805783Y-119445959D01*
X147995294Y-119256778D01*
X148097983Y-119009475D01*
X148098217Y-118741699D01*
X148074292Y-118683795D01*
X152215800Y-118683795D01*
X152215800Y-119076150D01*
X152361850Y-119222200D01*
X153072200Y-119222200D01*
X153072200Y-118361850D01*
X153427800Y-118361850D01*
X153427800Y-119222200D01*
X154138150Y-119222200D01*
X154284200Y-119076150D01*
X154284200Y-118683795D01*
X154965800Y-118683795D01*
X154965800Y-119076150D01*
X155111850Y-119222200D01*
X155822200Y-119222200D01*
X155822200Y-118361850D01*
X156177800Y-118361850D01*
X156177800Y-119222200D01*
X156888150Y-119222200D01*
X157034200Y-119076150D01*
X157034200Y-118683795D01*
X157715800Y-118683795D01*
X157715800Y-119076150D01*
X157861850Y-119222200D01*
X158572200Y-119222200D01*
X158572200Y-118361850D01*
X158927800Y-118361850D01*
X158927800Y-119222200D01*
X159638150Y-119222200D01*
X159784200Y-119076150D01*
X159784200Y-118683795D01*
X159695261Y-118469077D01*
X159530922Y-118304739D01*
X159316204Y-118215800D01*
X159073850Y-118215800D01*
X158927800Y-118361850D01*
X158572200Y-118361850D01*
X158426150Y-118215800D01*
X158183796Y-118215800D01*
X157969078Y-118304739D01*
X157804739Y-118469077D01*
X157715800Y-118683795D01*
X157034200Y-118683795D01*
X156945261Y-118469077D01*
X156780922Y-118304739D01*
X156566204Y-118215800D01*
X156323850Y-118215800D01*
X156177800Y-118361850D01*
X155822200Y-118361850D01*
X155676150Y-118215800D01*
X155433796Y-118215800D01*
X155219078Y-118304739D01*
X155054739Y-118469077D01*
X154965800Y-118683795D01*
X154284200Y-118683795D01*
X154195261Y-118469077D01*
X154030922Y-118304739D01*
X153816204Y-118215800D01*
X153573850Y-118215800D01*
X153427800Y-118361850D01*
X153072200Y-118361850D01*
X152926150Y-118215800D01*
X152683796Y-118215800D01*
X152469078Y-118304739D01*
X152304739Y-118469077D01*
X152215800Y-118683795D01*
X148074292Y-118683795D01*
X147995959Y-118494217D01*
X147806778Y-118304706D01*
X147559475Y-118202017D01*
X147326550Y-118201813D01*
X147098015Y-117973278D01*
X147098217Y-117741699D01*
X146995959Y-117494217D01*
X146806778Y-117304706D01*
X146559475Y-117202017D01*
X146291699Y-117201783D01*
X146044217Y-117304041D01*
X145854706Y-117493222D01*
X145752017Y-117740525D01*
X145751783Y-118008301D01*
X135140269Y-118008301D01*
X135140269Y-116821400D01*
X135117244Y-116699035D01*
X135044927Y-116586651D01*
X134934583Y-116511256D01*
X134803600Y-116484731D01*
X134440379Y-116484731D01*
X134842354Y-116277220D01*
X135206948Y-115845719D01*
X135331337Y-115545382D01*
X135229550Y-115322800D01*
X134117800Y-115322800D01*
X134117800Y-115342800D01*
X133762200Y-115342800D01*
X133762200Y-115322800D01*
X133742200Y-115322800D01*
X133742200Y-115267899D01*
X137150701Y-115267899D01*
X137150701Y-116732101D01*
X137181636Y-116887624D01*
X137235472Y-116968194D01*
X137269733Y-117019469D01*
X137689521Y-117439257D01*
X137821366Y-117527354D01*
X137976889Y-117558289D01*
X140952698Y-117558289D01*
X141116307Y-117722183D01*
X141363610Y-117824872D01*
X141631386Y-117825106D01*
X141878868Y-117722848D01*
X142068379Y-117533667D01*
X142171068Y-117286364D01*
X142171172Y-117167899D01*
X142405783Y-117070959D01*
X142595294Y-116881778D01*
X142697983Y-116634475D01*
X142698217Y-116366699D01*
X142595959Y-116119217D01*
X142406778Y-115929706D01*
X142159475Y-115827017D01*
X142085771Y-115826953D01*
X142085842Y-115745197D01*
X141983584Y-115497715D01*
X141819025Y-115332869D01*
X141819025Y-113930711D01*
X141937310Y-113812426D01*
X147922658Y-113812426D01*
X148024916Y-114059908D01*
X148214097Y-114249419D01*
X148461400Y-114352108D01*
X148622797Y-114352249D01*
X148622657Y-114512427D01*
X148724915Y-114759909D01*
X148914096Y-114949420D01*
X149161399Y-115052109D01*
X149429175Y-115052343D01*
X149546801Y-115003741D01*
X149546598Y-115236367D01*
X149648856Y-115483849D01*
X149838037Y-115673360D01*
X150085340Y-115776049D01*
X150353116Y-115776283D01*
X150600598Y-115674025D01*
X150790109Y-115484844D01*
X150892798Y-115237541D01*
X150893032Y-114969765D01*
X150822504Y-114799074D01*
X151635163Y-113986415D01*
X151711733Y-114018209D01*
X151979509Y-114018443D01*
X152226991Y-113916185D01*
X152416502Y-113727004D01*
X152519191Y-113479701D01*
X152519425Y-113211925D01*
X152417167Y-112964443D01*
X152227986Y-112774932D01*
X151980683Y-112672243D01*
X151712907Y-112672009D01*
X151465425Y-112774267D01*
X151290857Y-112948531D01*
X151274146Y-112908086D01*
X151084965Y-112718575D01*
X150837662Y-112615886D01*
X150742987Y-112615803D01*
X150750510Y-112597685D01*
X150750744Y-112329909D01*
X150648486Y-112082427D01*
X150459305Y-111892916D01*
X150212002Y-111790227D01*
X149944226Y-111789993D01*
X149696744Y-111892251D01*
X149507233Y-112081432D01*
X149404544Y-112328735D01*
X149404340Y-112561660D01*
X148892520Y-113073481D01*
X148730350Y-113006142D01*
X148462574Y-113005908D01*
X148215092Y-113108166D01*
X148025581Y-113297347D01*
X147922892Y-113544650D01*
X147922658Y-113812426D01*
X141937310Y-113812426D01*
X142737368Y-113012368D01*
X142757124Y-112982801D01*
X142825465Y-112880523D01*
X142856400Y-112725000D01*
X142856400Y-111025000D01*
X142825465Y-110869477D01*
X142737368Y-110737632D01*
X142498015Y-110498279D01*
X142498217Y-110266699D01*
X142395959Y-110019217D01*
X142206778Y-109829706D01*
X141959475Y-109727017D01*
X141691699Y-109726783D01*
X141444217Y-109829041D01*
X141254706Y-110018222D01*
X141152017Y-110265525D01*
X141151783Y-110533301D01*
X141254041Y-110780783D01*
X141443222Y-110970294D01*
X141484454Y-110987415D01*
X141444217Y-111004041D01*
X141254706Y-111193222D01*
X141152017Y-111440525D01*
X141151783Y-111708301D01*
X141254041Y-111955783D01*
X141367800Y-112069740D01*
X141367800Y-112473336D01*
X138453234Y-115387902D01*
X138389085Y-115387846D01*
X138470294Y-115306778D01*
X138572983Y-115059475D01*
X138573217Y-114791699D01*
X138470959Y-114544217D01*
X138281778Y-114354706D01*
X138034475Y-114252017D01*
X137766699Y-114251783D01*
X137519217Y-114354041D01*
X137329706Y-114543222D01*
X137227017Y-114790525D01*
X137226795Y-115044792D01*
X137181636Y-115112376D01*
X137150701Y-115267899D01*
X133742200Y-115267899D01*
X133742200Y-114967200D01*
X133762200Y-114967200D01*
X133762200Y-114947200D01*
X134117800Y-114947200D01*
X134117800Y-114967200D01*
X135229550Y-114967200D01*
X135331337Y-114744618D01*
X135206948Y-114444281D01*
X134842354Y-114012780D01*
X134340385Y-113753649D01*
X134117802Y-113854194D01*
X134117802Y-113768085D01*
X134420235Y-113707927D01*
X134807532Y-113449144D01*
X135066315Y-113061847D01*
X135157188Y-112605000D01*
X135066315Y-112148153D01*
X134807532Y-111760856D01*
X134420235Y-111502073D01*
X134117802Y-111441915D01*
X134117802Y-111355806D01*
X134340385Y-111456351D01*
X134842354Y-111197220D01*
X135206948Y-110765719D01*
X135331337Y-110465382D01*
X135229550Y-110242800D01*
X134117800Y-110242800D01*
X134117800Y-110262800D01*
X133762200Y-110262800D01*
X133762200Y-110242800D01*
X131577800Y-110242800D01*
X131577800Y-110262800D01*
X131222200Y-110262800D01*
X131222200Y-110242800D01*
X131202200Y-110242800D01*
X131202200Y-109887200D01*
X131222200Y-109887200D01*
X131222200Y-109867200D01*
X131577800Y-109867200D01*
X131577800Y-109887200D01*
X133762200Y-109887200D01*
X133762200Y-109867200D01*
X134117800Y-109867200D01*
X134117800Y-109887200D01*
X135229550Y-109887200D01*
X135331337Y-109664618D01*
X135206948Y-109364281D01*
X134842354Y-108932780D01*
X134351811Y-108679547D01*
X135427620Y-108679547D01*
X135529878Y-108927029D01*
X135579535Y-108976773D01*
X135553909Y-109002354D01*
X135451220Y-109249657D01*
X135450986Y-109517433D01*
X135553244Y-109764915D01*
X135742425Y-109954426D01*
X135989728Y-110057115D01*
X136257504Y-110057349D01*
X136504986Y-109955091D01*
X136669832Y-109790532D01*
X137118397Y-109790532D01*
X137273920Y-109759597D01*
X137405765Y-109671500D01*
X137755201Y-109322064D01*
X137986781Y-109322266D01*
X138234263Y-109220008D01*
X138423774Y-109030827D01*
X138526463Y-108783524D01*
X138526697Y-108515748D01*
X138490399Y-108427901D01*
X138534981Y-108427901D01*
X138666511Y-108559431D01*
X138798356Y-108647528D01*
X138878447Y-108663459D01*
X139057034Y-108842357D01*
X139304337Y-108945046D01*
X139572113Y-108945280D01*
X139819595Y-108843022D01*
X140009106Y-108653841D01*
X140111795Y-108406538D01*
X140112029Y-108138762D01*
X140009771Y-107891280D01*
X139820590Y-107701769D01*
X139573287Y-107599080D01*
X139305511Y-107598846D01*
X139108155Y-107680392D01*
X139147983Y-107584475D01*
X139148187Y-107351549D01*
X139476720Y-107023015D01*
X139708299Y-107023217D01*
X139955781Y-106920959D01*
X140145292Y-106731778D01*
X140247981Y-106484475D01*
X140248215Y-106216699D01*
X140145957Y-105969217D01*
X139956776Y-105779706D01*
X139709473Y-105677017D01*
X139441697Y-105676783D01*
X139194215Y-105779041D01*
X139004704Y-105968222D01*
X138902015Y-106215525D01*
X138901811Y-106448450D01*
X138573277Y-106776985D01*
X138341699Y-106776783D01*
X138094217Y-106879041D01*
X137904706Y-107068222D01*
X137802017Y-107315525D01*
X137801783Y-107583301D01*
X137814923Y-107615101D01*
X136625582Y-107615101D01*
X136470059Y-107646036D01*
X136338213Y-107734133D01*
X136199115Y-107873231D01*
X135967536Y-107873029D01*
X135720054Y-107975287D01*
X135530543Y-108164468D01*
X135427854Y-108411771D01*
X135427620Y-108679547D01*
X134351811Y-108679547D01*
X134340385Y-108673649D01*
X134117802Y-108774194D01*
X134117802Y-108688085D01*
X134420235Y-108627927D01*
X134807532Y-108369144D01*
X135066315Y-107981847D01*
X135157188Y-107525000D01*
X135066315Y-107068153D01*
X134807532Y-106680856D01*
X134420235Y-106422073D01*
X134117802Y-106361915D01*
X134117802Y-106275806D01*
X134340385Y-106376351D01*
X134842354Y-106117220D01*
X135206948Y-105685719D01*
X135331337Y-105385382D01*
X135265335Y-105241051D01*
X140055794Y-105241051D01*
X140158052Y-105488533D01*
X140347233Y-105678044D01*
X140594536Y-105780733D01*
X140862312Y-105780967D01*
X140895624Y-105767202D01*
X141376923Y-106248501D01*
X141376855Y-106326326D01*
X141327602Y-106400037D01*
X141292800Y-106575000D01*
X141292800Y-108280325D01*
X141179706Y-108393222D01*
X141077017Y-108640525D01*
X141076783Y-108908301D01*
X141179041Y-109155783D01*
X141368222Y-109345294D01*
X141615525Y-109447983D01*
X141883301Y-109448217D01*
X142130783Y-109345959D01*
X142320294Y-109156778D01*
X142371566Y-109033301D01*
X143151783Y-109033301D01*
X143254041Y-109280783D01*
X143443222Y-109470294D01*
X143690525Y-109572983D01*
X143958301Y-109573217D01*
X144205783Y-109470959D01*
X144395294Y-109281778D01*
X144497983Y-109034475D01*
X144497986Y-109031398D01*
X145504613Y-109031398D01*
X145668222Y-109195292D01*
X145915525Y-109297981D01*
X146183301Y-109298215D01*
X146430783Y-109195957D01*
X146620294Y-109006776D01*
X146722983Y-108759473D01*
X146723217Y-108491697D01*
X146620959Y-108244215D01*
X146431778Y-108054704D01*
X146184475Y-107952015D01*
X145916699Y-107951781D01*
X145669217Y-108054039D01*
X145504371Y-108218598D01*
X144100002Y-108218598D01*
X143991280Y-108240223D01*
X143959475Y-108227017D01*
X143691699Y-108226783D01*
X143444217Y-108329041D01*
X143254706Y-108518222D01*
X143152017Y-108765525D01*
X143151783Y-109033301D01*
X142371566Y-109033301D01*
X142422983Y-108909475D01*
X142423217Y-108641699D01*
X142320959Y-108394217D01*
X142207200Y-108280260D01*
X142207200Y-106938342D01*
X142430783Y-106845959D01*
X142620294Y-106656778D01*
X142722983Y-106409475D01*
X142723217Y-106141699D01*
X142620959Y-105894217D01*
X142431778Y-105704706D01*
X142184475Y-105602017D01*
X142023454Y-105601876D01*
X141402223Y-104980645D01*
X141402228Y-104974449D01*
X141299970Y-104726967D01*
X141110789Y-104537456D01*
X140863486Y-104434767D01*
X140595710Y-104434533D01*
X140348228Y-104536791D01*
X140158717Y-104725972D01*
X140056028Y-104973275D01*
X140055794Y-105241051D01*
X135265335Y-105241051D01*
X135229550Y-105162800D01*
X134117800Y-105162800D01*
X134117800Y-105182800D01*
X133762200Y-105182800D01*
X133762200Y-105162800D01*
X133742200Y-105162800D01*
X133742200Y-104807200D01*
X133762200Y-104807200D01*
X133762200Y-104787200D01*
X134117800Y-104787200D01*
X134117800Y-104807200D01*
X135229550Y-104807200D01*
X135331337Y-104584618D01*
X135206948Y-104284281D01*
X134842354Y-103852780D01*
X134340385Y-103593649D01*
X134117802Y-103694194D01*
X134117802Y-103608085D01*
X134420235Y-103547927D01*
X134807532Y-103289144D01*
X135066315Y-102901847D01*
X135157188Y-102445000D01*
X135066315Y-101988153D01*
X134807532Y-101600856D01*
X134420235Y-101342073D01*
X134117802Y-101281915D01*
X134117802Y-101195806D01*
X134340385Y-101296351D01*
X134722969Y-101098850D01*
X147240800Y-101098850D01*
X147240800Y-101266204D01*
X147329739Y-101480922D01*
X147494077Y-101645261D01*
X147708795Y-101734200D01*
X148101150Y-101734200D01*
X148247200Y-101588150D01*
X148247200Y-100952800D01*
X147386850Y-100952800D01*
X147240800Y-101098850D01*
X134722969Y-101098850D01*
X134842354Y-101037220D01*
X135206948Y-100605719D01*
X135331337Y-100305382D01*
X135321466Y-100283796D01*
X147240800Y-100283796D01*
X147240800Y-100451150D01*
X147386850Y-100597200D01*
X148247200Y-100597200D01*
X148247200Y-99961850D01*
X148602800Y-99961850D01*
X148602800Y-100597200D01*
X148622800Y-100597200D01*
X148622800Y-100952800D01*
X148602800Y-100952800D01*
X148602800Y-101588150D01*
X148748850Y-101734200D01*
X149141205Y-101734200D01*
X149355923Y-101645261D01*
X149520261Y-101480922D01*
X149543239Y-101425449D01*
X149594017Y-101460144D01*
X149665208Y-101474561D01*
X149613081Y-101526597D01*
X149510392Y-101773900D01*
X149510158Y-102041676D01*
X149612416Y-102289158D01*
X149801597Y-102478669D01*
X150048900Y-102581358D01*
X150316676Y-102581592D01*
X150564158Y-102479334D01*
X150753669Y-102290153D01*
X150856358Y-102042850D01*
X150856592Y-101775074D01*
X150782200Y-101595033D01*
X150782200Y-101486669D01*
X150925000Y-101486669D01*
X151047365Y-101463644D01*
X151159749Y-101391327D01*
X151235144Y-101280983D01*
X151261669Y-101150000D01*
X151261669Y-100400000D01*
X151238644Y-100277635D01*
X151166327Y-100165251D01*
X151055983Y-100089856D01*
X150925000Y-100063331D01*
X150782200Y-100063331D01*
X150782200Y-99737315D01*
X150884749Y-99671327D01*
X150960144Y-99560983D01*
X150986669Y-99430000D01*
X150986669Y-98370000D01*
X150963644Y-98247635D01*
X150891327Y-98135251D01*
X150780983Y-98059856D01*
X150650000Y-98033331D01*
X150000000Y-98033331D01*
X149877635Y-98056356D01*
X149765251Y-98128673D01*
X149689856Y-98239017D01*
X149663331Y-98370000D01*
X149663331Y-99430000D01*
X149686356Y-99552365D01*
X149758673Y-99664749D01*
X149867800Y-99739312D01*
X149867800Y-100063331D01*
X149725000Y-100063331D01*
X149602635Y-100086356D01*
X149543247Y-100124571D01*
X149520261Y-100069078D01*
X149355923Y-99904739D01*
X149141205Y-99815800D01*
X148748850Y-99815800D01*
X148602800Y-99961850D01*
X148247200Y-99961850D01*
X148101150Y-99815800D01*
X147708795Y-99815800D01*
X147494077Y-99904739D01*
X147329739Y-100069078D01*
X147240800Y-100283796D01*
X135321466Y-100283796D01*
X135229550Y-100082800D01*
X134117800Y-100082800D01*
X134117800Y-100102800D01*
X133762200Y-100102800D01*
X133762200Y-100082800D01*
X131577800Y-100082800D01*
X131577800Y-100102800D01*
X131222200Y-100102800D01*
X131222200Y-100082800D01*
X131202200Y-100082800D01*
X131202200Y-99727200D01*
X131222200Y-99727200D01*
X131222200Y-98614195D01*
X131577800Y-98614195D01*
X131577800Y-99727200D01*
X133762200Y-99727200D01*
X133762200Y-98614195D01*
X134117800Y-98614195D01*
X134117800Y-99727200D01*
X135229550Y-99727200D01*
X135331337Y-99504618D01*
X135206948Y-99204281D01*
X134842354Y-98772780D01*
X134340385Y-98513649D01*
X134117800Y-98614195D01*
X133762200Y-98614195D01*
X133539615Y-98513649D01*
X133037646Y-98772780D01*
X132673052Y-99204281D01*
X132670000Y-99211650D01*
X132666948Y-99204281D01*
X132302354Y-98772780D01*
X131800385Y-98513649D01*
X131577800Y-98614195D01*
X131222200Y-98614195D01*
X130999615Y-98513649D01*
X130497646Y-98772780D01*
X130405200Y-98882191D01*
X130405200Y-98370000D01*
X147763331Y-98370000D01*
X147763331Y-99430000D01*
X147786356Y-99552365D01*
X147858673Y-99664749D01*
X147969017Y-99740144D01*
X148100000Y-99766669D01*
X148750000Y-99766669D01*
X148872365Y-99743644D01*
X148984749Y-99671327D01*
X149060144Y-99560983D01*
X149086669Y-99430000D01*
X149086669Y-98370000D01*
X149063644Y-98247635D01*
X148991327Y-98135251D01*
X148880983Y-98059856D01*
X148750000Y-98033331D01*
X148100000Y-98033331D01*
X147977635Y-98056356D01*
X147865251Y-98128673D01*
X147789856Y-98239017D01*
X147763331Y-98370000D01*
X130405200Y-98370000D01*
X130405200Y-97097584D01*
X130409468Y-97100517D01*
X130416618Y-97103588D01*
X130418058Y-97103894D01*
X130419280Y-97104718D01*
X130430083Y-97109247D01*
X130430778Y-97109388D01*
X130431368Y-97109783D01*
X130445443Y-97115616D01*
X130445888Y-97115705D01*
X130446271Y-97115959D01*
X130463232Y-97122935D01*
X130463548Y-97122997D01*
X130463817Y-97123175D01*
X130483281Y-97131138D01*
X130483547Y-97131190D01*
X130483773Y-97131339D01*
X130505356Y-97140128D01*
X130505577Y-97140171D01*
X130505768Y-97140296D01*
X130529086Y-97149757D01*
X130529297Y-97149797D01*
X130529475Y-97149914D01*
X130544238Y-97155882D01*
X130545001Y-97157215D01*
X130545226Y-97158849D01*
X130557918Y-97195514D01*
X130559573Y-97198340D01*
X130560081Y-97201571D01*
X130572223Y-97234583D01*
X130574315Y-97238004D01*
X130575031Y-97241949D01*
X130586970Y-97272194D01*
X130589439Y-97276026D01*
X130590373Y-97280489D01*
X130602456Y-97308853D01*
X130605144Y-97312789D01*
X130606250Y-97317424D01*
X130618825Y-97344795D01*
X130621931Y-97349082D01*
X130623319Y-97354188D01*
X130654239Y-97416323D01*
X130658339Y-97421627D01*
X130660351Y-97428022D01*
X130699511Y-97499513D01*
X130704408Y-97505357D01*
X130707019Y-97512519D01*
X130748247Y-97580381D01*
X130753642Y-97586262D01*
X130756724Y-97593624D01*
X130799925Y-97657750D01*
X130805868Y-97663648D01*
X130809478Y-97671204D01*
X130854555Y-97731485D01*
X130861103Y-97737373D01*
X130865305Y-97745110D01*
X130912163Y-97801440D01*
X130919377Y-97807280D01*
X130924244Y-97815182D01*
X130972788Y-97867451D01*
X130980722Y-97873187D01*
X130986330Y-97881216D01*
X131036462Y-97929317D01*
X131045179Y-97934884D01*
X131051607Y-97942988D01*
X131103232Y-97986812D01*
X131112780Y-97992121D01*
X131120104Y-98000225D01*
X131173126Y-98039665D01*
X131183541Y-98044609D01*
X131191833Y-98052617D01*
X131246157Y-98087562D01*
X131257449Y-98092011D01*
X131266763Y-98099800D01*
X131322292Y-98130145D01*
X131330028Y-98132570D01*
X131336488Y-98137469D01*
X131348905Y-98143504D01*
X131356248Y-98145427D01*
X131362496Y-98149740D01*
X131408562Y-98169645D01*
X131418813Y-98171846D01*
X131427790Y-98177258D01*
X131477308Y-98195118D01*
X131486612Y-98196522D01*
X131494931Y-98200929D01*
X131547084Y-98216536D01*
X131555848Y-98217366D01*
X131563830Y-98221079D01*
X131617803Y-98234231D01*
X131626375Y-98234597D01*
X131634328Y-98237819D01*
X131689306Y-98248311D01*
X131698015Y-98248243D01*
X131706244Y-98251096D01*
X131761414Y-98258722D01*
X131770586Y-98258180D01*
X131779416Y-98260716D01*
X131833963Y-98265271D01*
X131840967Y-98264476D01*
X131847819Y-98266140D01*
X131868050Y-98266988D01*
X131872174Y-98266346D01*
X131876251Y-98267231D01*
X131907257Y-98267771D01*
X131910981Y-98267097D01*
X131914697Y-98267818D01*
X131947943Y-98267659D01*
X131951164Y-98267002D01*
X131954404Y-98267566D01*
X131988481Y-98266746D01*
X131991643Y-98266037D01*
X131994844Y-98266532D01*
X132028340Y-98265089D01*
X132031867Y-98264228D01*
X132035466Y-98264706D01*
X132066972Y-98262676D01*
X132071438Y-98261485D01*
X132076038Y-98261969D01*
X132104143Y-98259391D01*
X132108823Y-98258005D01*
X132113688Y-98258377D01*
X132158149Y-98253011D01*
X132162733Y-98251510D01*
X132167552Y-98251741D01*
X132215206Y-98244616D01*
X132221163Y-98242477D01*
X132227489Y-98242545D01*
X132272120Y-98234166D01*
X132278924Y-98231433D01*
X132286256Y-98231196D01*
X132328804Y-98221293D01*
X132336032Y-98218022D01*
X132343939Y-98217396D01*
X132385344Y-98205700D01*
X132392459Y-98202071D01*
X132400382Y-98201068D01*
X132441587Y-98187310D01*
X132448092Y-98183597D01*
X132455479Y-98182330D01*
X132497422Y-98166241D01*
X132502961Y-98162748D01*
X132509365Y-98161394D01*
X132552989Y-98142706D01*
X132557411Y-98139674D01*
X132562619Y-98138400D01*
X132608864Y-98116843D01*
X132610742Y-98115466D01*
X132612994Y-98114883D01*
X132614249Y-98114277D01*
X132614543Y-98114055D01*
X132614900Y-98113962D01*
X132629208Y-98107015D01*
X132629995Y-98106419D01*
X132630947Y-98106164D01*
X132644832Y-98099323D01*
X132645769Y-98098605D01*
X132646906Y-98098292D01*
X132660676Y-98091389D01*
X132661734Y-98090566D01*
X132663025Y-98090200D01*
X132676985Y-98083064D01*
X132678052Y-98082221D01*
X132679359Y-98081839D01*
X132693817Y-98074302D01*
X132694851Y-98073471D01*
X132696122Y-98073089D01*
X132711386Y-98064981D01*
X132712322Y-98064217D01*
X132713479Y-98063860D01*
X132729855Y-98055012D01*
X132730673Y-98054335D01*
X132731684Y-98054016D01*
X132749479Y-98044258D01*
X132750160Y-98043687D01*
X132751007Y-98043415D01*
X132770527Y-98032579D01*
X132771077Y-98032112D01*
X132771764Y-98031889D01*
X132793318Y-98019804D01*
X132793754Y-98019431D01*
X132794298Y-98019252D01*
X132818191Y-98005750D01*
X132818525Y-98005462D01*
X132818945Y-98005323D01*
X132845485Y-97990234D01*
X132845737Y-97990016D01*
X132846057Y-97989909D01*
X132875551Y-97973064D01*
X132875742Y-97972898D01*
X132875981Y-97972818D01*
X132908736Y-97954047D01*
X132908867Y-97953933D01*
X132909033Y-97953877D01*
X132945356Y-97933012D01*
X132945450Y-97932930D01*
X132945566Y-97932891D01*
X132985763Y-97909762D01*
X132985765Y-97909761D01*
X132999573Y-97901824D01*
X133043191Y-97876970D01*
X133082803Y-97854769D01*
X133118707Y-97835074D01*
X133151364Y-97817636D01*
X133181292Y-97802173D01*
X133208898Y-97788457D01*
X133234866Y-97776119D01*
X133259723Y-97764883D01*
X133284380Y-97754313D01*
X133309287Y-97744200D01*
X133335400Y-97734144D01*
X133363310Y-97723912D01*
X133393728Y-97713231D01*
X133462712Y-97689760D01*
X133549733Y-97661089D01*
X133632763Y-97634863D01*
X133712678Y-97610832D01*
X133789885Y-97588890D01*
X133865012Y-97568869D01*
X133938590Y-97550630D01*
X134011313Y-97533999D01*
X134083743Y-97518841D01*
X134156576Y-97505002D01*
X134230425Y-97492354D01*
X134305837Y-97480788D01*
X134383661Y-97470153D01*
X134464178Y-97460387D01*
X134548866Y-97451286D01*
X134565421Y-97449633D01*
X134618916Y-97444565D01*
X134672630Y-97439895D01*
X134727328Y-97435562D01*
X134783600Y-97431533D01*
X134841732Y-97427795D01*
X134902259Y-97424319D01*
X134965426Y-97421097D01*
X135031799Y-97418099D01*
X135101651Y-97415314D01*
X135175238Y-97412729D01*
X135253054Y-97410318D01*
X135336305Y-97408042D01*
X135336306Y-97408042D01*
X135345206Y-97407812D01*
X135345330Y-97407784D01*
X135345459Y-97407806D01*
X135396430Y-97406452D01*
X135396714Y-97406388D01*
X135396999Y-97406436D01*
X135443420Y-97405124D01*
X135443809Y-97405035D01*
X135444203Y-97405101D01*
X135486320Y-97403812D01*
X135486849Y-97403690D01*
X135487386Y-97403778D01*
X135525442Y-97402492D01*
X135526145Y-97402327D01*
X135526857Y-97402441D01*
X135561100Y-97401139D01*
X135562019Y-97400920D01*
X135562950Y-97401063D01*
X135593622Y-97399727D01*
X135594830Y-97399431D01*
X135596062Y-97399612D01*
X135623410Y-97398221D01*
X135624978Y-97397825D01*
X135626582Y-97398045D01*
X135650849Y-97396580D01*
X135652874Y-97396049D01*
X135654951Y-97396307D01*
X135676385Y-97394749D01*
X135678991Y-97394031D01*
X135681676Y-97394322D01*
X135700519Y-97392652D01*
X135703845Y-97391679D01*
X135707299Y-97391982D01*
X135723799Y-97390181D01*
X135728040Y-97388845D01*
X135732479Y-97389119D01*
X135746878Y-97387166D01*
X135752164Y-97385348D01*
X135757753Y-97385509D01*
X135770298Y-97383386D01*
X135776778Y-97380917D01*
X135783711Y-97380834D01*
X135794646Y-97378522D01*
X135802333Y-97375229D01*
X135810678Y-97374718D01*
X135820250Y-97372197D01*
X135828947Y-97367954D01*
X135838556Y-97366814D01*
X135847008Y-97364065D01*
X135856207Y-97358910D01*
X135866586Y-97357019D01*
X135874163Y-97354023D01*
X135883081Y-97348271D01*
X135893381Y-97345721D01*
X135900330Y-97342458D01*
X135911301Y-97334369D01*
X135924224Y-97330043D01*
X135931440Y-97325917D01*
X135947719Y-97311763D01*
X135952064Y-97310212D01*
X135959425Y-97303551D01*
X135979065Y-97292922D01*
X135993961Y-97280568D01*
X136014698Y-97255030D01*
X136021528Y-97250758D01*
X136027469Y-97242420D01*
X136030137Y-97240101D01*
X136030622Y-97239127D01*
X136049043Y-97222459D01*
X136060818Y-97206609D01*
X136070353Y-97186491D01*
X136076405Y-97179038D01*
X136079109Y-97169956D01*
X136097429Y-97144247D01*
X136106063Y-97125057D01*
X136112300Y-97097985D01*
X136116832Y-97088423D01*
X136116923Y-97086603D01*
X136125971Y-97067200D01*
X136131446Y-97044827D01*
X136132549Y-97019580D01*
X136139691Y-96995340D01*
X136141988Y-96969940D01*
X136139803Y-96949436D01*
X136143181Y-96929095D01*
X136142282Y-96900826D01*
X136138444Y-96884295D01*
X136139535Y-96867360D01*
X136135421Y-96836377D01*
X136130845Y-96822946D01*
X136130571Y-96808763D01*
X136123223Y-96775223D01*
X136118384Y-96764151D01*
X136117292Y-96752117D01*
X136106690Y-96716177D01*
X136102647Y-96708472D01*
X136101418Y-96699855D01*
X136091911Y-96672810D01*
X136088629Y-96667265D01*
X136087479Y-96660926D01*
X136072643Y-96623332D01*
X136069432Y-96618346D01*
X136068171Y-96612555D01*
X136050650Y-96572318D01*
X136047766Y-96568166D01*
X136046544Y-96563257D01*
X136026607Y-96520948D01*
X136023926Y-96517322D01*
X136022721Y-96512976D01*
X136000641Y-96469165D01*
X135998047Y-96465845D01*
X135996821Y-96461812D01*
X135972867Y-96417069D01*
X135970275Y-96413914D01*
X135968994Y-96410039D01*
X135943439Y-96364935D01*
X135942176Y-96363471D01*
X135941548Y-96361640D01*
X135938613Y-96356595D01*
X135938356Y-96356303D01*
X135938229Y-96355937D01*
X135929810Y-96341538D01*
X135927290Y-96338696D01*
X135925969Y-96335133D01*
X135918455Y-96322914D01*
X135911957Y-96315907D01*
X135908138Y-96307150D01*
X135901095Y-96297021D01*
X135888469Y-96284855D01*
X135879835Y-96269592D01*
X135872828Y-96261459D01*
X135851549Y-96244832D01*
X135834673Y-96223749D01*
X135827269Y-96217520D01*
X135814369Y-96210421D01*
X135811240Y-96206744D01*
X135792284Y-96197042D01*
X135769914Y-96178629D01*
X135761679Y-96174211D01*
X135751075Y-96170978D01*
X135750888Y-96170825D01*
X135732245Y-96165229D01*
X135719656Y-96158301D01*
X143301783Y-96158301D01*
X143404041Y-96405783D01*
X143593222Y-96595294D01*
X143840525Y-96697983D01*
X144108301Y-96698217D01*
X144355783Y-96595959D01*
X144545294Y-96406778D01*
X144590479Y-96297960D01*
X144604041Y-96330783D01*
X144793222Y-96520294D01*
X145040525Y-96622983D01*
X145308301Y-96623217D01*
X145555783Y-96520959D01*
X145745294Y-96331778D01*
X145847983Y-96084475D01*
X145848217Y-95816699D01*
X145745959Y-95569217D01*
X145581400Y-95404371D01*
X145581400Y-94970387D01*
X145745294Y-94806778D01*
X145845606Y-94565198D01*
X147151357Y-94565198D01*
X147176070Y-94696535D01*
X147249933Y-94807910D01*
X147967800Y-95525777D01*
X147967800Y-95862685D01*
X147865251Y-95928673D01*
X147789856Y-96039017D01*
X147763331Y-96170000D01*
X147763331Y-97230000D01*
X147786356Y-97352365D01*
X147858673Y-97464749D01*
X147969017Y-97540144D01*
X148100000Y-97566669D01*
X148560485Y-97566669D01*
X148719078Y-97725261D01*
X148933796Y-97814200D01*
X149066450Y-97814200D01*
X149212500Y-97668150D01*
X149212500Y-96877800D01*
X149177200Y-96877800D01*
X149177200Y-96522200D01*
X149212500Y-96522200D01*
X149212500Y-96502200D01*
X149537500Y-96502200D01*
X149537500Y-96522200D01*
X149572800Y-96522200D01*
X149572800Y-96877800D01*
X149537500Y-96877800D01*
X149537500Y-97668150D01*
X149683550Y-97814200D01*
X149816204Y-97814200D01*
X150030922Y-97725261D01*
X150189515Y-97566669D01*
X150650000Y-97566669D01*
X150772365Y-97543644D01*
X150884749Y-97471327D01*
X150960144Y-97360983D01*
X150974731Y-97288952D01*
X151292800Y-97607021D01*
X151292800Y-101825000D01*
X151327602Y-101999963D01*
X151426711Y-102148289D01*
X152376711Y-103098289D01*
X152525037Y-103197398D01*
X152700000Y-103232200D01*
X152883830Y-103232200D01*
X153846802Y-104195171D01*
X153746640Y-104236557D01*
X153557129Y-104425738D01*
X153454440Y-104673041D01*
X153454289Y-104845975D01*
X151948279Y-106351985D01*
X151716699Y-106351783D01*
X151469217Y-106454041D01*
X151279706Y-106643222D01*
X151177017Y-106890525D01*
X151176783Y-107158301D01*
X151279041Y-107405783D01*
X151468222Y-107595294D01*
X151715525Y-107697983D01*
X151983301Y-107698217D01*
X152230783Y-107595959D01*
X152420294Y-107406778D01*
X152522983Y-107159475D01*
X152523187Y-106926549D01*
X153446103Y-106003633D01*
X153467892Y-106056365D01*
X153632451Y-106221211D01*
X153632451Y-106536260D01*
X153663386Y-106691783D01*
X153738862Y-106804739D01*
X153751483Y-106823628D01*
X154105465Y-107177610D01*
X154105263Y-107409190D01*
X154207521Y-107656672D01*
X154396702Y-107846183D01*
X154644005Y-107948872D01*
X154911781Y-107949106D01*
X155159263Y-107846848D01*
X155348774Y-107657667D01*
X155405786Y-107520368D01*
X155476042Y-107590624D01*
X155475902Y-107750424D01*
X155578160Y-107997906D01*
X155767341Y-108187417D01*
X155895822Y-108240767D01*
X155736400Y-108399911D01*
X155633711Y-108647214D01*
X155633477Y-108914990D01*
X155735735Y-109162472D01*
X155789330Y-109216160D01*
X155584679Y-109300721D01*
X155395168Y-109489902D01*
X155292479Y-109737205D01*
X155292245Y-110004981D01*
X155394503Y-110252463D01*
X155448098Y-110306151D01*
X155243448Y-110390711D01*
X155053937Y-110579892D01*
X154951248Y-110827195D01*
X154951014Y-111094971D01*
X155053272Y-111342453D01*
X155106867Y-111396141D01*
X154902216Y-111480702D01*
X154712705Y-111669883D01*
X154610016Y-111917186D01*
X154609782Y-112184962D01*
X154712040Y-112432444D01*
X154765634Y-112486132D01*
X154560984Y-112570692D01*
X154371473Y-112759873D01*
X154268784Y-113007176D01*
X154268550Y-113274952D01*
X154370808Y-113522434D01*
X154424403Y-113576122D01*
X154219752Y-113660683D01*
X154030241Y-113849864D01*
X153927552Y-114097167D01*
X153927318Y-114364943D01*
X154029576Y-114612425D01*
X154083171Y-114666113D01*
X153878520Y-114750674D01*
X153689009Y-114939855D01*
X153586320Y-115187158D01*
X153586086Y-115454934D01*
X153688344Y-115702416D01*
X153877525Y-115891927D01*
X154001019Y-115943206D01*
X154000810Y-116182537D01*
X154103068Y-116430019D01*
X154292249Y-116619530D01*
X154539552Y-116722219D01*
X154793819Y-116722441D01*
X154861403Y-116767600D01*
X154877221Y-116770746D01*
X154854706Y-116793222D01*
X154752017Y-117040525D01*
X154751783Y-117308301D01*
X154854041Y-117555783D01*
X155043222Y-117745294D01*
X155290525Y-117847983D01*
X155558301Y-117848217D01*
X155805783Y-117745959D01*
X155970629Y-117581400D01*
X156425000Y-117581400D01*
X156580523Y-117550465D01*
X156712368Y-117462368D01*
X157938067Y-116236669D01*
X158460000Y-116236669D01*
X158582365Y-116213644D01*
X158694749Y-116141327D01*
X158770144Y-116030983D01*
X158796669Y-115900000D01*
X158796669Y-115700000D01*
X158777162Y-115596329D01*
X158796669Y-115500000D01*
X158796669Y-115300000D01*
X158777162Y-115196329D01*
X158796669Y-115100000D01*
X158796669Y-114900000D01*
X158777162Y-114796329D01*
X158796669Y-114700000D01*
X158796669Y-114500000D01*
X158777162Y-114396329D01*
X158796669Y-114300000D01*
X158796669Y-114100000D01*
X158777162Y-113996329D01*
X158796669Y-113900000D01*
X158796669Y-113700000D01*
X158777162Y-113596329D01*
X158796669Y-113500000D01*
X158796669Y-113300000D01*
X158777162Y-113196329D01*
X158796669Y-113100000D01*
X158796669Y-112900000D01*
X158777162Y-112796329D01*
X158796669Y-112700000D01*
X158796669Y-112500000D01*
X158777162Y-112396329D01*
X158796669Y-112300000D01*
X158796669Y-112100000D01*
X158777162Y-111996329D01*
X158796669Y-111900000D01*
X158796669Y-111700000D01*
X158777162Y-111596329D01*
X158796669Y-111500000D01*
X158796669Y-111300000D01*
X158777162Y-111196329D01*
X158796669Y-111100000D01*
X158796669Y-110900000D01*
X158777162Y-110796329D01*
X158796669Y-110700000D01*
X158796669Y-110500000D01*
X158777162Y-110396329D01*
X158796669Y-110300000D01*
X158796669Y-110100000D01*
X158777162Y-109996329D01*
X158796669Y-109900000D01*
X158796669Y-109700000D01*
X158777162Y-109596329D01*
X158796669Y-109500000D01*
X158796669Y-109300000D01*
X158777162Y-109196329D01*
X158796669Y-109100000D01*
X158796669Y-108900000D01*
X158777162Y-108796329D01*
X158796669Y-108700000D01*
X158796669Y-108500000D01*
X158777162Y-108396329D01*
X158796669Y-108300000D01*
X158796669Y-108100000D01*
X158777162Y-107996329D01*
X158796669Y-107900000D01*
X158796669Y-107700000D01*
X158777162Y-107596329D01*
X158796669Y-107500000D01*
X158796669Y-107300000D01*
X158777162Y-107196329D01*
X158796669Y-107100000D01*
X158796669Y-106900000D01*
X158777162Y-106796329D01*
X158796669Y-106700000D01*
X158796669Y-106606400D01*
X159531067Y-106606400D01*
X159686590Y-106575465D01*
X159818435Y-106487368D01*
X160346988Y-105958815D01*
X160368421Y-105926739D01*
X160435085Y-105826970D01*
X160466020Y-105671447D01*
X160466020Y-104997487D01*
X160435085Y-104841964D01*
X160346988Y-104710119D01*
X160306400Y-104669531D01*
X160306400Y-99089179D01*
X160404041Y-99325487D01*
X160593222Y-99514998D01*
X160840525Y-99617687D01*
X161108301Y-99617921D01*
X161355783Y-99515663D01*
X161520629Y-99351104D01*
X161930296Y-99351104D01*
X162085819Y-99320169D01*
X162217664Y-99232072D01*
X162551874Y-98897862D01*
X162664473Y-98875465D01*
X162796318Y-98787368D01*
X162816778Y-98766908D01*
X162911350Y-98786059D01*
X164412490Y-98786059D01*
X164534855Y-98763034D01*
X164647239Y-98690717D01*
X164722634Y-98580373D01*
X164749159Y-98449390D01*
X164749159Y-98288664D01*
X164907751Y-98130073D01*
X164996690Y-97915355D01*
X164996690Y-97845505D01*
X164850640Y-97699455D01*
X164609944Y-97699455D01*
X164743412Y-97644171D01*
X164907751Y-97479833D01*
X164933828Y-97416877D01*
X164996690Y-97354015D01*
X164996690Y-97284165D01*
X164992745Y-97274640D01*
X164996690Y-97265115D01*
X164996690Y-97195265D01*
X164933828Y-97132403D01*
X164907751Y-97069447D01*
X164743412Y-96905109D01*
X164609944Y-96849825D01*
X164850640Y-96849825D01*
X164996690Y-96703775D01*
X164996690Y-96633925D01*
X164907751Y-96419207D01*
X164743412Y-96254869D01*
X164528694Y-96165930D01*
X163985770Y-96165930D01*
X163839720Y-96311980D01*
X163839720Y-96849825D01*
X163952115Y-96849825D01*
X163839720Y-96962220D01*
X163839720Y-97147320D01*
X163484120Y-97147320D01*
X163484120Y-96962220D01*
X163464120Y-96942220D01*
X163464120Y-96849825D01*
X163484120Y-96849825D01*
X163484120Y-96311980D01*
X163338070Y-96165930D01*
X162795146Y-96165930D01*
X162580428Y-96254869D01*
X162416089Y-96419207D01*
X162413094Y-96426436D01*
X161895792Y-95909134D01*
X161869271Y-95891413D01*
X161763947Y-95821037D01*
X161608424Y-95790102D01*
X160790318Y-95790102D01*
X160790134Y-95789979D01*
X160826748Y-95701802D01*
X160826982Y-95434026D01*
X160724724Y-95186544D01*
X160559878Y-95021410D01*
X160559878Y-93738108D01*
X160528943Y-93582585D01*
X160440846Y-93450740D01*
X160102558Y-93112452D01*
X161419483Y-93112452D01*
X161697527Y-93785371D01*
X162211921Y-94300664D01*
X162884354Y-94579882D01*
X163612452Y-94580517D01*
X164285371Y-94302473D01*
X164800664Y-93788079D01*
X165079882Y-93115646D01*
X165080517Y-92387548D01*
X164802473Y-91714629D01*
X164288079Y-91199336D01*
X163615646Y-90920118D01*
X162887548Y-90919483D01*
X162214629Y-91197527D01*
X161699336Y-91711921D01*
X161420118Y-92384354D01*
X161419483Y-93112452D01*
X160102558Y-93112452D01*
X159652258Y-92662152D01*
X159625806Y-92644477D01*
X159520413Y-92574055D01*
X159364890Y-92543120D01*
X159090707Y-92543120D01*
X159072857Y-92515381D01*
X158962513Y-92439986D01*
X158831530Y-92413461D01*
X157330390Y-92413461D01*
X157208025Y-92436486D01*
X157095641Y-92508803D01*
X157020246Y-92619147D01*
X156993721Y-92750130D01*
X156993721Y-92910856D01*
X156835129Y-93069447D01*
X156746190Y-93284165D01*
X156746190Y-93354015D01*
X156814133Y-93421958D01*
X156746190Y-93421958D01*
X156746190Y-93449203D01*
X156609378Y-93312392D01*
X156489406Y-93232229D01*
X156506279Y-93148910D01*
X156506279Y-92750130D01*
X156483254Y-92627765D01*
X156410937Y-92515381D01*
X156300593Y-92439986D01*
X156169610Y-92413461D01*
X154668470Y-92413461D01*
X154546105Y-92436486D01*
X154433721Y-92508803D01*
X154402098Y-92555084D01*
X154345959Y-92419217D01*
X154156778Y-92229706D01*
X153909475Y-92127017D01*
X153641699Y-92126783D01*
X153394217Y-92229041D01*
X153204706Y-92418222D01*
X153102017Y-92665525D01*
X153101813Y-92898451D01*
X152912632Y-93087632D01*
X152824535Y-93219477D01*
X152793600Y-93375000D01*
X152793600Y-96396731D01*
X152587632Y-96602699D01*
X152499535Y-96734544D01*
X152483604Y-96814635D01*
X152304706Y-96993222D01*
X152202017Y-97240525D01*
X152201886Y-97390924D01*
X152172398Y-97242679D01*
X152167166Y-97234849D01*
X152073290Y-97094353D01*
X150754208Y-95775271D01*
X150747398Y-95741037D01*
X150739952Y-95729893D01*
X150648289Y-95592710D01*
X149926143Y-94870564D01*
X150271639Y-94525068D01*
X150341883Y-94422262D01*
X150370215Y-94291658D01*
X150345502Y-94160321D01*
X150271639Y-94048946D01*
X149140268Y-92917575D01*
X149037462Y-92847331D01*
X148906858Y-92818999D01*
X148775521Y-92843712D01*
X148664146Y-92917575D01*
X147249933Y-94331788D01*
X147179689Y-94434594D01*
X147151357Y-94565198D01*
X145845606Y-94565198D01*
X145847983Y-94559475D01*
X145848217Y-94291699D01*
X145745959Y-94044217D01*
X145556778Y-93854706D01*
X145309475Y-93752017D01*
X145041699Y-93751783D01*
X144794217Y-93854041D01*
X144612849Y-94035093D01*
X144595959Y-93994217D01*
X144406778Y-93804706D01*
X144159475Y-93702017D01*
X143891699Y-93701783D01*
X143644217Y-93804041D01*
X143454706Y-93993222D01*
X143352017Y-94240525D01*
X143351783Y-94508301D01*
X143454041Y-94755783D01*
X143568600Y-94870542D01*
X143568600Y-95479613D01*
X143404706Y-95643222D01*
X143302017Y-95890525D01*
X143301783Y-96158301D01*
X135719656Y-96158301D01*
X135712684Y-96154465D01*
X135708107Y-96153958D01*
X135694816Y-96147155D01*
X135685315Y-96144457D01*
X135656484Y-96142135D01*
X135636577Y-96136065D01*
X135635448Y-96136175D01*
X135625621Y-96133225D01*
X135614422Y-96132155D01*
X135592554Y-96134373D01*
X135570858Y-96130839D01*
X135557525Y-96131304D01*
X135543571Y-96134589D01*
X135529273Y-96133487D01*
X135513372Y-96135395D01*
X135505084Y-96138103D01*
X135496368Y-96137879D01*
X135477467Y-96141137D01*
X135472880Y-96142900D01*
X135467966Y-96142916D01*
X135445630Y-96147433D01*
X135443422Y-96148356D01*
X135441032Y-96148397D01*
X135414825Y-96154080D01*
X135414135Y-96154380D01*
X135413382Y-96154396D01*
X135383037Y-96161116D01*
X135279561Y-96183805D01*
X135170932Y-96207143D01*
X135063779Y-96229666D01*
X134958750Y-96251246D01*
X134855696Y-96271918D01*
X134754832Y-96291646D01*
X134656625Y-96310343D01*
X134561057Y-96328018D01*
X134468237Y-96344654D01*
X134378479Y-96360196D01*
X134292020Y-96374608D01*
X134208743Y-96387910D01*
X134129412Y-96399982D01*
X134053759Y-96410867D01*
X133982337Y-96420487D01*
X133915251Y-96428837D01*
X133852724Y-96435892D01*
X133795308Y-96441602D01*
X133742338Y-96446043D01*
X133739808Y-96446221D01*
X133684238Y-96448050D01*
X133634306Y-96446402D01*
X133584988Y-96441466D01*
X133529928Y-96432215D01*
X133520338Y-96430361D01*
X133512010Y-96430406D01*
X133504154Y-96427642D01*
X133498004Y-96426763D01*
X133482880Y-96427586D01*
X133465782Y-96414066D01*
X133461269Y-96411758D01*
X133458474Y-96410965D01*
X133457368Y-96410144D01*
X133452548Y-96408934D01*
X133446672Y-96404732D01*
X133438477Y-96401029D01*
X133435355Y-96400304D01*
X133432714Y-96398490D01*
X133421386Y-96393625D01*
X133419521Y-96393229D01*
X133417939Y-96392168D01*
X133404019Y-96386374D01*
X133402657Y-96386101D01*
X133401495Y-96385335D01*
X133385534Y-96378843D01*
X133384331Y-96378612D01*
X133383303Y-96377945D01*
X133365847Y-96370990D01*
X133365375Y-96370903D01*
X133364972Y-96370643D01*
X133359485Y-96368475D01*
X133331895Y-96357477D01*
X133305602Y-96346817D01*
X133280253Y-96336342D01*
X133255114Y-96325734D01*
X133230066Y-96314935D01*
X133204448Y-96303651D01*
X133177735Y-96291640D01*
X133149824Y-96278849D01*
X133120091Y-96264985D01*
X133088384Y-96249977D01*
X133053757Y-96233372D01*
X133016956Y-96215531D01*
X132976490Y-96195738D01*
X132932663Y-96174146D01*
X132885481Y-96150769D01*
X132833666Y-96124985D01*
X132833665Y-96124985D01*
X132818282Y-96117318D01*
X132818165Y-96117286D01*
X132818065Y-96117209D01*
X132757710Y-96087181D01*
X132757497Y-96087123D01*
X132757324Y-96086990D01*
X132700938Y-96059027D01*
X132700672Y-96058955D01*
X132700452Y-96058786D01*
X132647766Y-96032764D01*
X132647445Y-96032678D01*
X132647180Y-96032475D01*
X132597931Y-96008270D01*
X132597537Y-96008165D01*
X132597214Y-96007919D01*
X132551135Y-95985408D01*
X132550668Y-95985285D01*
X132550281Y-95984992D01*
X132507106Y-95964051D01*
X132506557Y-95963908D01*
X132506104Y-95963567D01*
X132465568Y-95944072D01*
X132464926Y-95943907D01*
X132464394Y-95943510D01*
X132426229Y-95925338D01*
X132425495Y-95925152D01*
X132424886Y-95924702D01*
X132388829Y-95907729D01*
X132388003Y-95907524D01*
X132387318Y-95907023D01*
X132353103Y-95891124D01*
X132352180Y-95890899D01*
X132351410Y-95890343D01*
X132318769Y-95875396D01*
X132317767Y-95875158D01*
X132316927Y-95874559D01*
X132285596Y-95860440D01*
X132284523Y-95860192D01*
X132283625Y-95859560D01*
X132253337Y-95846145D01*
X132252224Y-95845895D01*
X132251284Y-95845243D01*
X132221774Y-95832409D01*
X132220643Y-95832163D01*
X132219685Y-95831508D01*
X132190687Y-95819129D01*
X132189565Y-95818893D01*
X132188615Y-95818253D01*
X132159863Y-95806207D01*
X132158784Y-95805988D01*
X132157865Y-95805377D01*
X132129092Y-95793540D01*
X132128087Y-95793343D01*
X132127231Y-95792781D01*
X132098174Y-95781030D01*
X132097278Y-95780860D01*
X132096511Y-95780362D01*
X132066903Y-95768572D01*
X132065528Y-95768318D01*
X132064349Y-95767567D01*
X132056546Y-95764534D01*
X132051477Y-95763641D01*
X132047052Y-95761007D01*
X132008018Y-95747175D01*
X132000772Y-95746123D01*
X131994327Y-95742653D01*
X131952874Y-95729942D01*
X131946040Y-95729248D01*
X131939862Y-95726237D01*
X131897966Y-95715219D01*
X131890554Y-95714768D01*
X131883742Y-95711808D01*
X131843383Y-95703057D01*
X131838266Y-95702969D01*
X131833517Y-95701073D01*
X131818458Y-95698278D01*
X131815585Y-95698315D01*
X131812897Y-95697294D01*
X131794705Y-95694234D01*
X131789937Y-95694376D01*
X131785434Y-95692808D01*
X131768603Y-95690459D01*
X131762701Y-95690800D01*
X131757054Y-95689051D01*
X131740548Y-95687329D01*
X131734519Y-95687888D01*
X131728674Y-95686303D01*
X131711465Y-95685124D01*
X131706316Y-95685786D01*
X131701266Y-95684581D01*
X131682317Y-95683862D01*
X131678607Y-95684455D01*
X131674932Y-95683663D01*
X131653214Y-95683318D01*
X131650895Y-95683741D01*
X131648586Y-95683277D01*
X131623067Y-95683224D01*
X131622075Y-95683419D01*
X131621079Y-95683225D01*
X131602919Y-95683295D01*
X131601865Y-95683509D01*
X131600810Y-95683310D01*
X131583169Y-95683489D01*
X131580978Y-95683948D01*
X131578776Y-95683563D01*
X131564201Y-95683902D01*
X131560667Y-95684691D01*
X131557087Y-95684143D01*
X131544620Y-95684698D01*
X131539852Y-95685869D01*
X131534976Y-95685266D01*
X131523661Y-95686097D01*
X131518587Y-95687499D01*
X131513346Y-95687015D01*
X131502226Y-95688178D01*
X131498017Y-95689483D01*
X131493624Y-95689191D01*
X131481742Y-95690745D01*
X131479143Y-95691625D01*
X131476401Y-95691487D01*
X131462799Y-95693489D01*
X131460518Y-95694302D01*
X131458096Y-95694215D01*
X131426232Y-95699368D01*
X131421470Y-95701142D01*
X131416391Y-95701111D01*
X131361438Y-95711688D01*
X131354475Y-95714522D01*
X131346962Y-95714807D01*
X131295352Y-95727127D01*
X131287722Y-95730632D01*
X131279357Y-95731365D01*
X131230245Y-95745684D01*
X131222350Y-95749795D01*
X131213536Y-95751034D01*
X131166084Y-95767609D01*
X131158405Y-95772133D01*
X131149656Y-95773835D01*
X131103018Y-95792922D01*
X131095994Y-95797572D01*
X131087815Y-95799588D01*
X131041149Y-95821443D01*
X131036974Y-95824515D01*
X131031980Y-95825908D01*
X131017590Y-95833189D01*
X131012795Y-95836947D01*
X131006992Y-95838792D01*
X130959120Y-95865205D01*
X130951036Y-95872021D01*
X130941177Y-95875846D01*
X130896995Y-95903943D01*
X130888711Y-95911861D01*
X130878330Y-95916717D01*
X130837012Y-95947091D01*
X130829163Y-95955678D01*
X130818988Y-95961317D01*
X130779711Y-95994563D01*
X130772848Y-96003190D01*
X130763574Y-96009147D01*
X130725510Y-96045860D01*
X130721905Y-96051050D01*
X130716719Y-96054660D01*
X130707706Y-96064022D01*
X130704216Y-96069467D01*
X130699052Y-96073361D01*
X130665567Y-96110901D01*
X130659704Y-96120862D01*
X130650972Y-96128430D01*
X130621699Y-96166124D01*
X130616032Y-96177450D01*
X130607105Y-96186437D01*
X130581577Y-96224923D01*
X130576609Y-96237033D01*
X130568130Y-96247000D01*
X130545879Y-96286915D01*
X130543378Y-96294666D01*
X130538404Y-96301114D01*
X130533882Y-96310226D01*
X130532790Y-96314261D01*
X130530319Y-96317632D01*
X130521520Y-96336511D01*
X130520403Y-96341080D01*
X130517730Y-96344946D01*
X130509287Y-96364449D01*
X130509013Y-96365720D01*
X130506982Y-96367550D01*
X130489265Y-96383422D01*
X130467930Y-96402480D01*
X130443397Y-96424366D01*
X130443346Y-96424434D01*
X130443271Y-96424478D01*
X130425869Y-96440019D01*
X130425709Y-96440232D01*
X130425477Y-96440369D01*
X130405200Y-96458534D01*
X130405200Y-93112452D01*
X130919483Y-93112452D01*
X131197527Y-93785371D01*
X131711921Y-94300664D01*
X132384354Y-94579882D01*
X133112452Y-94580517D01*
X133772581Y-94307758D01*
X133698987Y-94484991D01*
X133698614Y-94913130D01*
X133862110Y-95308822D01*
X134164586Y-95611826D01*
X134559991Y-95776013D01*
X134988130Y-95776386D01*
X135383822Y-95612890D01*
X135686826Y-95310414D01*
X135851013Y-94915009D01*
X135851386Y-94486870D01*
X135687890Y-94091178D01*
X135385414Y-93788174D01*
X134990009Y-93623987D01*
X134561870Y-93623614D01*
X134329002Y-93719833D01*
X134579882Y-93115646D01*
X134580517Y-92387548D01*
X134378592Y-91898850D01*
X136427200Y-91898850D01*
X136427200Y-92707205D01*
X136516139Y-92921923D01*
X136680478Y-93086261D01*
X136895196Y-93175200D01*
X137551150Y-93175200D01*
X137697200Y-93029150D01*
X137697200Y-91752800D01*
X136573250Y-91752800D01*
X136427200Y-91898850D01*
X134378592Y-91898850D01*
X134302473Y-91714629D01*
X133788079Y-91199336D01*
X133115646Y-90920118D01*
X132387548Y-90919483D01*
X131714629Y-91197527D01*
X131199336Y-91711921D01*
X130920118Y-92384354D01*
X130919483Y-93112452D01*
X130405200Y-93112452D01*
X130405200Y-92789908D01*
X130591021Y-91855723D01*
X131097588Y-91097590D01*
X131855723Y-90591021D01*
X132789907Y-90405200D01*
X136442772Y-90405200D01*
X136427200Y-90442795D01*
X136427200Y-90442795D01*
G37*
X136427200Y-90442795D02*
X136427200Y-91251150D01*
X136573250Y-91397200D01*
X137697200Y-91397200D01*
X137697200Y-91377200D01*
X138052800Y-91377200D01*
X138052800Y-91397200D01*
X138072800Y-91397200D01*
X138072800Y-91752800D01*
X138052800Y-91752800D01*
X138052800Y-93029150D01*
X138198850Y-93175200D01*
X138854804Y-93175200D01*
X139069522Y-93086261D01*
X139233861Y-92921923D01*
X139322800Y-92707205D01*
X139322800Y-92226675D01*
X139570856Y-92597918D01*
X139958153Y-92856701D01*
X140415000Y-92947574D01*
X140871847Y-92856701D01*
X141259144Y-92597918D01*
X141517927Y-92210621D01*
X141552714Y-92035736D01*
X141735148Y-92504716D01*
X142125470Y-92912363D01*
X142554618Y-93118737D01*
X142777200Y-93016950D01*
X142777200Y-91752800D01*
X142757200Y-91752800D01*
X142757200Y-91397200D01*
X142777200Y-91397200D01*
X142777200Y-91377200D01*
X143132800Y-91377200D01*
X143132800Y-91397200D01*
X143152800Y-91397200D01*
X143152800Y-91752800D01*
X143132800Y-91752800D01*
X143132800Y-93016950D01*
X143355382Y-93118737D01*
X143784530Y-92912363D01*
X144174852Y-92504716D01*
X144357286Y-92035736D01*
X144392073Y-92210621D01*
X144650856Y-92597918D01*
X145038153Y-92856701D01*
X145495000Y-92947574D01*
X145951847Y-92856701D01*
X146122538Y-92742649D01*
X150698012Y-92742649D01*
X150698012Y-92949195D01*
X150952532Y-93203715D01*
X151116869Y-93368053D01*
X151331587Y-93456992D01*
X151563997Y-93456993D01*
X151778715Y-93368053D01*
X152338995Y-92807774D01*
X152338995Y-92601228D01*
X151589214Y-91851447D01*
X150698012Y-92742649D01*
X146122538Y-92742649D01*
X146339144Y-92597918D01*
X146597927Y-92210621D01*
X146688800Y-91753774D01*
X146688800Y-91625217D01*
X149732221Y-91625217D01*
X149732222Y-91857627D01*
X149821161Y-92072345D01*
X149985499Y-92236682D01*
X150240019Y-92491202D01*
X150446565Y-92491202D01*
X151337767Y-91600000D01*
X151840661Y-91600000D01*
X152590442Y-92349781D01*
X152796988Y-92349781D01*
X153357267Y-91789501D01*
X153446207Y-91574783D01*
X153446206Y-91342373D01*
X153357267Y-91127655D01*
X153192929Y-90963318D01*
X152938409Y-90708798D01*
X152731863Y-90708798D01*
X151840661Y-91600000D01*
X151337767Y-91600000D01*
X150587986Y-90850219D01*
X150381440Y-90850219D01*
X149821161Y-91410499D01*
X149732221Y-91625217D01*
X146688800Y-91625217D01*
X146688800Y-91396226D01*
X146597927Y-90939379D01*
X146339144Y-90552082D01*
X146119319Y-90405200D01*
X150839433Y-90405200D01*
X150839433Y-90598772D01*
X151589214Y-91348553D01*
X152480416Y-90457351D01*
X152480416Y-90405200D01*
X163210092Y-90405200D01*
X164144277Y-90591021D01*
X164902410Y-91097588D01*
X165408979Y-91855723D01*
X165594800Y-92789907D01*
X165594800Y-114923331D01*
X165423107Y-114751339D01*
X165217681Y-114666039D01*
X165270391Y-114613420D01*
X165373080Y-114366117D01*
X165373314Y-114098341D01*
X165271056Y-113850859D01*
X165081875Y-113661348D01*
X164876449Y-113576048D01*
X164929160Y-113523429D01*
X165031849Y-113276126D01*
X165032083Y-113008350D01*
X164929825Y-112760868D01*
X164740644Y-112571357D01*
X164535218Y-112486057D01*
X164587928Y-112433439D01*
X164690617Y-112186136D01*
X164690851Y-111918360D01*
X164588593Y-111670878D01*
X164399412Y-111481367D01*
X164193986Y-111396067D01*
X164246696Y-111343448D01*
X164349385Y-111096145D01*
X164349619Y-110828369D01*
X164247361Y-110580887D01*
X164058180Y-110391376D01*
X163810877Y-110288687D01*
X163543101Y-110288453D01*
X163523633Y-110296497D01*
X163491405Y-110218499D01*
X163302224Y-110028988D01*
X163054921Y-109926299D01*
X162787145Y-109926065D01*
X162539663Y-110028323D01*
X162505019Y-110062907D01*
X162086495Y-109707231D01*
X162124200Y-109616204D01*
X162124200Y-109596050D01*
X161997167Y-109469017D01*
X162035261Y-109430922D01*
X162124200Y-109216204D01*
X162124200Y-109183796D01*
X162048069Y-109000000D01*
X162124200Y-108816204D01*
X162124200Y-108783796D01*
X162048069Y-108600000D01*
X162124200Y-108416204D01*
X162124200Y-108383796D01*
X162048069Y-108200000D01*
X162124200Y-108016204D01*
X162124200Y-107983796D01*
X162048069Y-107800000D01*
X162124200Y-107616204D01*
X162124200Y-107583796D01*
X162048069Y-107400000D01*
X162124200Y-107216204D01*
X162124200Y-107183796D01*
X162048069Y-107000000D01*
X162124200Y-106816204D01*
X162124200Y-106783796D01*
X162035261Y-106569078D01*
X161997167Y-106530983D01*
X162124200Y-106403950D01*
X162124200Y-106401252D01*
X162474958Y-106050494D01*
X162539606Y-106115255D01*
X162786909Y-106217944D01*
X163054685Y-106218178D01*
X163302167Y-106115920D01*
X163491678Y-105926739D01*
X163564863Y-105750489D01*
X163574255Y-105754389D01*
X163842031Y-105754623D01*
X164089513Y-105652365D01*
X164279024Y-105463184D01*
X164381713Y-105215881D01*
X164381947Y-104948105D01*
X164279689Y-104700623D01*
X164090508Y-104511112D01*
X163890403Y-104428021D01*
X163890542Y-104269046D01*
X163815561Y-104087579D01*
X163855783Y-104070959D01*
X164045294Y-103881778D01*
X164147983Y-103634475D01*
X164148160Y-103431747D01*
X164355783Y-103345959D01*
X164545294Y-103156778D01*
X164647983Y-102909475D01*
X164648217Y-102641699D01*
X164545959Y-102394217D01*
X164476929Y-102325067D01*
X164520294Y-102281778D01*
X164622983Y-102034475D01*
X164623217Y-101766699D01*
X164520959Y-101519217D01*
X164353599Y-101351565D01*
X164422981Y-101184475D01*
X164423215Y-100916699D01*
X164320957Y-100669217D01*
X164131776Y-100479706D01*
X163884473Y-100377017D01*
X163616697Y-100376783D01*
X163369215Y-100479041D01*
X163204369Y-100643600D01*
X163100102Y-100643600D01*
X162944579Y-100674535D01*
X162812734Y-100762632D01*
X161876463Y-101698903D01*
X161857162Y-101596329D01*
X161876669Y-101500000D01*
X161876669Y-101300000D01*
X161857162Y-101196329D01*
X161876669Y-101100000D01*
X161876669Y-100900000D01*
X161857162Y-100796329D01*
X161876669Y-100700000D01*
X161876669Y-100500000D01*
X161857162Y-100396329D01*
X161876669Y-100300000D01*
X161876669Y-100100000D01*
X161853644Y-99977635D01*
X161781327Y-99865251D01*
X161670983Y-99789856D01*
X161540000Y-99763331D01*
X160840000Y-99763331D01*
X160717635Y-99786356D01*
X160605251Y-99858673D01*
X160529856Y-99969017D01*
X160503331Y-100100000D01*
X160503331Y-100300000D01*
X160522838Y-100403671D01*
X160503331Y-100500000D01*
X160503331Y-100700000D01*
X160522838Y-100803671D01*
X160503331Y-100900000D01*
X160503331Y-101100000D01*
X160522838Y-101203671D01*
X160503331Y-101300000D01*
X160503331Y-101500000D01*
X160522838Y-101603671D01*
X160503331Y-101700000D01*
X160503331Y-101900000D01*
X160522838Y-102003671D01*
X160503331Y-102100000D01*
X160503331Y-102300000D01*
X160522838Y-102403671D01*
X160503331Y-102500000D01*
X160503331Y-102700000D01*
X160522838Y-102803671D01*
X160503331Y-102900000D01*
X160503331Y-103100000D01*
X160522838Y-103203671D01*
X160503331Y-103300000D01*
X160503331Y-103500000D01*
X160522838Y-103603671D01*
X160503331Y-103700000D01*
X160503331Y-103900000D01*
X160522838Y-104003671D01*
X160503331Y-104100000D01*
X160503331Y-104300000D01*
X160522838Y-104403671D01*
X160503331Y-104500000D01*
X160503331Y-104700000D01*
X160522838Y-104803671D01*
X160503331Y-104900000D01*
X160503331Y-105100000D01*
X160522838Y-105203671D01*
X160503331Y-105300000D01*
X160503331Y-105500000D01*
X160522838Y-105603671D01*
X160503331Y-105700000D01*
X160503331Y-105900000D01*
X160522030Y-105999374D01*
X160509077Y-106004739D01*
X160344739Y-106169078D01*
X160255800Y-106383796D01*
X160255800Y-106403950D01*
X160382833Y-106530983D01*
X160344739Y-106569078D01*
X160255800Y-106783796D01*
X160255800Y-106816204D01*
X160331931Y-107000000D01*
X160255800Y-107183796D01*
X160255800Y-107216204D01*
X160331931Y-107400000D01*
X160255800Y-107583796D01*
X160255800Y-107616204D01*
X160331931Y-107800000D01*
X160255800Y-107983796D01*
X160255800Y-108016204D01*
X160331931Y-108200000D01*
X160255800Y-108383796D01*
X160255800Y-108416204D01*
X160331931Y-108600000D01*
X160255800Y-108783796D01*
X160255800Y-108816204D01*
X160331931Y-109000000D01*
X160255800Y-109183796D01*
X160255800Y-109216204D01*
X160344739Y-109430922D01*
X160382833Y-109469017D01*
X160255800Y-109596050D01*
X160255800Y-109616204D01*
X160344739Y-109830922D01*
X160509077Y-109995261D01*
X160522285Y-110000732D01*
X160522838Y-110003671D01*
X160503331Y-110100000D01*
X160503331Y-110300000D01*
X160522838Y-110403671D01*
X160503331Y-110500000D01*
X160503331Y-110700000D01*
X160522838Y-110803671D01*
X160503331Y-110900000D01*
X160503331Y-111100000D01*
X160522838Y-111203671D01*
X160503331Y-111300000D01*
X160503331Y-111500000D01*
X160522838Y-111603671D01*
X160503331Y-111700000D01*
X160503331Y-111900000D01*
X160522838Y-112003671D01*
X160503331Y-112100000D01*
X160503331Y-112300000D01*
X160522838Y-112403671D01*
X160503331Y-112500000D01*
X160503331Y-112700000D01*
X160522838Y-112803671D01*
X160503331Y-112900000D01*
X160503331Y-113100000D01*
X160522838Y-113203671D01*
X160503331Y-113300000D01*
X160503331Y-113500000D01*
X160522838Y-113603671D01*
X160503331Y-113700000D01*
X160503331Y-113900000D01*
X160522838Y-114003671D01*
X160503331Y-114100000D01*
X160503331Y-114300000D01*
X160522838Y-114403671D01*
X160503331Y-114500000D01*
X160503331Y-114700000D01*
X160522838Y-114803671D01*
X160503331Y-114900000D01*
X160503331Y-115100000D01*
X160522838Y-115203671D01*
X160503331Y-115300000D01*
X160503331Y-115500000D01*
X160522838Y-115603671D01*
X160503331Y-115700000D01*
X160503331Y-115900000D01*
X160526356Y-116022365D01*
X160598673Y-116134749D01*
X160638615Y-116162040D01*
X160638615Y-116400114D01*
X160474721Y-116563723D01*
X160372032Y-116811026D01*
X160371798Y-117078802D01*
X160474056Y-117326284D01*
X160663237Y-117515795D01*
X160910540Y-117618484D01*
X161178316Y-117618718D01*
X161425798Y-117516460D01*
X161615309Y-117327279D01*
X161717998Y-117079976D01*
X161718232Y-116812200D01*
X161684394Y-116730305D01*
X161838744Y-116794397D01*
X161838593Y-116967746D01*
X161940851Y-117215228D01*
X162130032Y-117404739D01*
X162377335Y-117507428D01*
X162645111Y-117507662D01*
X162892593Y-117405404D01*
X163027879Y-117270353D01*
X163071608Y-117376184D01*
X163260789Y-117565695D01*
X163508092Y-117668384D01*
X163775868Y-117668618D01*
X164023350Y-117566360D01*
X164212861Y-117377179D01*
X164315550Y-117129876D01*
X164315784Y-116862100D01*
X164213526Y-116614618D01*
X164122694Y-116523627D01*
X164125216Y-116506470D01*
X164169713Y-116544285D01*
X164244827Y-116619530D01*
X164492130Y-116722219D01*
X164759906Y-116722453D01*
X165007388Y-116620195D01*
X165196899Y-116431014D01*
X165299588Y-116183711D01*
X165299798Y-115943131D01*
X165422112Y-115892592D01*
X165594800Y-115720205D01*
X165594800Y-123210093D01*
X165408979Y-124144277D01*
X164902410Y-124902412D01*
X164144277Y-125408979D01*
X163210092Y-125594800D01*
X159414008Y-125594800D01*
X159458924Y-125529063D01*
X159485449Y-125398080D01*
X159485449Y-124600520D01*
X159462424Y-124478155D01*
X159390107Y-124365771D01*
X159279763Y-124290376D01*
X159148780Y-124263851D01*
X158351220Y-124263851D01*
X158228855Y-124286876D01*
X158126802Y-124352546D01*
X157906400Y-124132144D01*
X157906400Y-121150000D01*
X157876564Y-121000000D01*
X157963331Y-121000000D01*
X157963331Y-122200000D01*
X157986356Y-122322365D01*
X158058673Y-122434749D01*
X158169017Y-122510144D01*
X158300000Y-122536669D01*
X158343600Y-122536669D01*
X158343600Y-122766685D01*
X158228855Y-122788276D01*
X158116471Y-122860593D01*
X158041076Y-122970937D01*
X158014551Y-123101920D01*
X158014551Y-123899480D01*
X158037576Y-124021845D01*
X158109893Y-124134229D01*
X158220237Y-124209624D01*
X158351220Y-124236149D01*
X159148780Y-124236149D01*
X159271145Y-124213124D01*
X159383529Y-124140807D01*
X159458924Y-124030463D01*
X159485449Y-123899480D01*
X159485449Y-123101920D01*
X159462424Y-122979555D01*
X159390107Y-122867171D01*
X159279763Y-122791776D01*
X159156400Y-122766794D01*
X159156400Y-122538130D01*
X159573614Y-122538130D01*
X159737110Y-122933822D01*
X160039586Y-123236826D01*
X160434991Y-123401013D01*
X160863130Y-123401386D01*
X161258822Y-123237890D01*
X161419950Y-123077043D01*
X161419483Y-123612452D01*
X161697527Y-124285371D01*
X162211921Y-124800664D01*
X162884354Y-125079882D01*
X163612452Y-125080517D01*
X164285371Y-124802473D01*
X164800664Y-124288079D01*
X165079882Y-123615646D01*
X165080517Y-122887548D01*
X164802473Y-122214629D01*
X164288079Y-121699336D01*
X163615646Y-121420118D01*
X162887548Y-121419483D01*
X162214629Y-121697527D01*
X161726322Y-122184982D01*
X161726386Y-122111870D01*
X161562890Y-121716178D01*
X161260414Y-121413174D01*
X160865009Y-121248987D01*
X160436870Y-121248614D01*
X160041178Y-121412110D01*
X159738174Y-121714586D01*
X159573987Y-122109991D01*
X159573614Y-122538130D01*
X159156400Y-122538130D01*
X159156400Y-122536669D01*
X159200000Y-122536669D01*
X159322365Y-122513644D01*
X159434749Y-122441327D01*
X159510144Y-122330983D01*
X159536669Y-122200000D01*
X159536669Y-121000000D01*
X159513644Y-120877635D01*
X159441327Y-120765251D01*
X159330983Y-120689856D01*
X159200000Y-120663331D01*
X158300000Y-120663331D01*
X158177635Y-120686356D01*
X158065251Y-120758673D01*
X157989856Y-120869017D01*
X157963331Y-121000000D01*
X157876564Y-121000000D01*
X157875465Y-120994477D01*
X157787368Y-120862632D01*
X157137368Y-120212632D01*
X157067845Y-120166178D01*
X157025281Y-120137737D01*
X157034200Y-120116205D01*
X157034200Y-119723850D01*
X157715800Y-119723850D01*
X157715800Y-120116205D01*
X157804739Y-120330923D01*
X157969078Y-120495261D01*
X158183796Y-120584200D01*
X158426150Y-120584200D01*
X158572200Y-120438150D01*
X158572200Y-119577800D01*
X158927800Y-119577800D01*
X158927800Y-120438150D01*
X159073850Y-120584200D01*
X159316204Y-120584200D01*
X159530922Y-120495261D01*
X159695261Y-120330923D01*
X159784200Y-120116205D01*
X159784200Y-119723850D01*
X159638150Y-119577800D01*
X158927800Y-119577800D01*
X158572200Y-119577800D01*
X157861850Y-119577800D01*
X157715800Y-119723850D01*
X157034200Y-119723850D01*
X156888150Y-119577800D01*
X156177800Y-119577800D01*
X156177800Y-119597800D01*
X155822200Y-119597800D01*
X155822200Y-119577800D01*
X155111850Y-119577800D01*
X154965800Y-119723850D01*
X154965800Y-120093600D01*
X154284200Y-120093600D01*
X154284200Y-119723850D01*
X154138150Y-119577800D01*
X153427800Y-119577800D01*
X153427800Y-119597800D01*
X153072200Y-119597800D01*
X153072200Y-119577800D01*
X152361850Y-119577800D01*
X152215800Y-119723850D01*
X152215800Y-119827001D01*
X151966699Y-119826783D01*
X151719217Y-119929041D01*
X151529706Y-120118222D01*
X151427017Y-120365525D01*
X151426783Y-120633301D01*
X151529041Y-120880783D01*
X151718222Y-121070294D01*
X151965525Y-121172983D01*
X152233301Y-121173217D01*
X152463331Y-121078170D01*
X152463331Y-122200000D01*
X152486356Y-122322365D01*
X152558673Y-122434749D01*
X152669017Y-122510144D01*
X152800000Y-122536669D01*
X152843600Y-122536669D01*
X152843600Y-122766685D01*
X152728855Y-122788276D01*
X152616471Y-122860593D01*
X152541076Y-122970937D01*
X152514551Y-123101920D01*
X152514551Y-123899480D01*
X152537576Y-124021845D01*
X152609893Y-124134229D01*
X152720237Y-124209624D01*
X152851220Y-124236149D01*
X153648780Y-124236149D01*
X153771145Y-124213124D01*
X153883529Y-124140807D01*
X153958924Y-124030463D01*
X153985449Y-123899480D01*
X153985449Y-123101920D01*
X153962424Y-122979555D01*
X153890107Y-122867171D01*
X153779763Y-122791776D01*
X153656400Y-122766794D01*
X153656400Y-122536669D01*
X153700000Y-122536669D01*
X153822365Y-122513644D01*
X153934749Y-122441327D01*
X154010144Y-122330983D01*
X154036669Y-122200000D01*
X154036669Y-121000000D01*
X154019057Y-120906400D01*
X155232286Y-120906400D01*
X155213331Y-121000000D01*
X155213331Y-122200000D01*
X155236356Y-122322365D01*
X155308673Y-122434749D01*
X155419017Y-122510144D01*
X155550000Y-122536669D01*
X155593600Y-122536669D01*
X155593600Y-122765985D01*
X155478855Y-122787576D01*
X155366471Y-122859893D01*
X155291076Y-122970237D01*
X155264551Y-123101220D01*
X155264551Y-123898780D01*
X155287576Y-124021145D01*
X155359893Y-124133529D01*
X155470237Y-124208924D01*
X155601220Y-124235449D01*
X156398780Y-124235449D01*
X156521145Y-124212424D01*
X156633529Y-124140107D01*
X156708924Y-124029763D01*
X156735449Y-123898780D01*
X156735449Y-123101220D01*
X156712424Y-122978855D01*
X156640107Y-122866471D01*
X156529763Y-122791076D01*
X156406400Y-122766094D01*
X156406400Y-122536669D01*
X156450000Y-122536669D01*
X156572365Y-122513644D01*
X156684749Y-122441327D01*
X156760144Y-122330983D01*
X156786669Y-122200000D01*
X156786669Y-121011405D01*
X157093600Y-121318336D01*
X157093600Y-124300480D01*
X157124535Y-124456003D01*
X157138869Y-124477455D01*
X157212632Y-124587848D01*
X157911452Y-125286668D01*
X158014551Y-125355557D01*
X158014551Y-125398080D01*
X158037576Y-125520445D01*
X158085422Y-125594800D01*
X156663529Y-125594800D01*
X156708924Y-125528363D01*
X156735449Y-125397380D01*
X156735449Y-124599820D01*
X156712424Y-124477455D01*
X156640107Y-124365071D01*
X156529763Y-124289676D01*
X156398780Y-124263151D01*
X155601220Y-124263151D01*
X155478855Y-124286176D01*
X155366471Y-124358493D01*
X155291076Y-124468837D01*
X155264551Y-124599820D01*
X155264551Y-124837493D01*
X155256778Y-124829706D01*
X155009475Y-124727017D01*
X154741699Y-124726783D01*
X154494217Y-124829041D01*
X154304706Y-125018222D01*
X154202017Y-125265525D01*
X154201783Y-125533301D01*
X154227194Y-125594800D01*
X153914008Y-125594800D01*
X153958924Y-125529063D01*
X153985449Y-125398080D01*
X153985449Y-124600520D01*
X153962424Y-124478155D01*
X153890107Y-124365771D01*
X153779763Y-124290376D01*
X153648780Y-124263851D01*
X152851220Y-124263851D01*
X152728855Y-124286876D01*
X152616471Y-124359193D01*
X152541076Y-124469537D01*
X152514551Y-124600520D01*
X152514551Y-124737172D01*
X152309475Y-124652017D01*
X152041699Y-124651783D01*
X151794217Y-124754041D01*
X151604706Y-124943222D01*
X151502017Y-125190525D01*
X151501783Y-125458301D01*
X151558184Y-125594800D01*
X138737215Y-125594800D01*
X139078281Y-125366907D01*
X139370101Y-124930168D01*
X139472574Y-124415000D01*
X139370101Y-123899832D01*
X139078281Y-123463093D01*
X138725944Y-123227669D01*
X139116000Y-123227669D01*
X139238365Y-123204644D01*
X139350749Y-123132327D01*
X139426144Y-123021983D01*
X139452669Y-122891000D01*
X139452669Y-120859000D01*
X139429644Y-120736635D01*
X139357327Y-120624251D01*
X139246983Y-120548856D01*
X139116000Y-120522331D01*
X137084000Y-120522331D01*
X136961635Y-120545356D01*
X136849251Y-120617673D01*
X136773856Y-120728017D01*
X136747331Y-120859000D01*
X136747331Y-122891000D01*
X136770356Y-123013365D01*
X136842673Y-123125749D01*
X136953017Y-123201144D01*
X137084000Y-123227669D01*
X137474056Y-123227669D01*
X137121719Y-123463093D01*
X136829899Y-123899832D01*
X136727426Y-124415000D01*
X136829899Y-124930168D01*
X137121719Y-125366907D01*
X137462785Y-125594800D01*
X132789907Y-125594800D01*
X131855723Y-125408979D01*
X131097588Y-124902410D01*
X130591021Y-124144277D01*
X130485235Y-123612452D01*
X130919483Y-123612452D01*
X131197527Y-124285371D01*
X131711921Y-124800664D01*
X132384354Y-125079882D01*
X133112452Y-125080517D01*
X133785371Y-124802473D01*
X134300664Y-124288079D01*
X134579882Y-123615646D01*
X134580517Y-122887548D01*
X134302473Y-122214629D01*
X133788079Y-121699336D01*
X133115646Y-121420118D01*
X132387548Y-121419483D01*
X131714629Y-121697527D01*
X131199336Y-122211921D01*
X130920118Y-122884354D01*
X130919483Y-123612452D01*
X130485235Y-123612452D01*
X130405200Y-123210092D01*
X130405200Y-120988130D01*
X133698614Y-120988130D01*
X133862110Y-121383822D01*
X134164586Y-121686826D01*
X134559991Y-121851013D01*
X134988130Y-121851386D01*
X135383822Y-121687890D01*
X135686826Y-121385414D01*
X135851013Y-120990009D01*
X135851386Y-120561870D01*
X135687890Y-120166178D01*
X135385414Y-119863174D01*
X134990009Y-119698987D01*
X134561870Y-119698614D01*
X134166178Y-119862110D01*
X133863174Y-120164586D01*
X133698987Y-120559991D01*
X133698614Y-120988130D01*
X130405200Y-120988130D01*
X130405200Y-118707809D01*
X130497646Y-118817220D01*
X130999615Y-119076351D01*
X131222200Y-118975805D01*
X131222200Y-117862800D01*
X131202200Y-117862800D01*
X131202200Y-117507200D01*
X131222200Y-117507200D01*
X131222200Y-117487200D01*
X131577800Y-117487200D01*
X131577800Y-117507200D01*
X131597800Y-117507200D01*
X131597800Y-117862800D01*
X131577800Y-117862800D01*
X131577800Y-118975805D01*
X131800385Y-119076351D01*
X132302354Y-118817220D01*
X132666948Y-118385719D01*
X132739731Y-118209985D01*
X132739731Y-118548600D01*
X132762756Y-118670965D01*
X132835073Y-118783349D01*
X132945417Y-118858744D01*
X133076400Y-118885269D01*
X134803600Y-118885269D01*
X134925965Y-118862244D01*
X135038349Y-118789927D01*
X135113744Y-118679583D01*
X135140269Y-118548600D01*
X135140269Y-118008301D01*
X145751783Y-118008301D01*
X145854041Y-118255783D01*
X146043222Y-118445294D01*
X146290525Y-118547983D01*
X146523450Y-118548187D01*
X146751985Y-118776722D01*
X146751783Y-119008301D01*
X146854041Y-119255783D01*
X147043222Y-119445294D01*
X147290525Y-119547983D01*
X147558301Y-119548217D01*
X147805783Y-119445959D01*
X147995294Y-119256778D01*
X148097983Y-119009475D01*
X148098217Y-118741699D01*
X148074292Y-118683795D01*
X152215800Y-118683795D01*
X152215800Y-119076150D01*
X152361850Y-119222200D01*
X153072200Y-119222200D01*
X153072200Y-118361850D01*
X153427800Y-118361850D01*
X153427800Y-119222200D01*
X154138150Y-119222200D01*
X154284200Y-119076150D01*
X154284200Y-118683795D01*
X154965800Y-118683795D01*
X154965800Y-119076150D01*
X155111850Y-119222200D01*
X155822200Y-119222200D01*
X155822200Y-118361850D01*
X156177800Y-118361850D01*
X156177800Y-119222200D01*
X156888150Y-119222200D01*
X157034200Y-119076150D01*
X157034200Y-118683795D01*
X157715800Y-118683795D01*
X157715800Y-119076150D01*
X157861850Y-119222200D01*
X158572200Y-119222200D01*
X158572200Y-118361850D01*
X158927800Y-118361850D01*
X158927800Y-119222200D01*
X159638150Y-119222200D01*
X159784200Y-119076150D01*
X159784200Y-118683795D01*
X159695261Y-118469077D01*
X159530922Y-118304739D01*
X159316204Y-118215800D01*
X159073850Y-118215800D01*
X158927800Y-118361850D01*
X158572200Y-118361850D01*
X158426150Y-118215800D01*
X158183796Y-118215800D01*
X157969078Y-118304739D01*
X157804739Y-118469077D01*
X157715800Y-118683795D01*
X157034200Y-118683795D01*
X156945261Y-118469077D01*
X156780922Y-118304739D01*
X156566204Y-118215800D01*
X156323850Y-118215800D01*
X156177800Y-118361850D01*
X155822200Y-118361850D01*
X155676150Y-118215800D01*
X155433796Y-118215800D01*
X155219078Y-118304739D01*
X155054739Y-118469077D01*
X154965800Y-118683795D01*
X154284200Y-118683795D01*
X154195261Y-118469077D01*
X154030922Y-118304739D01*
X153816204Y-118215800D01*
X153573850Y-118215800D01*
X153427800Y-118361850D01*
X153072200Y-118361850D01*
X152926150Y-118215800D01*
X152683796Y-118215800D01*
X152469078Y-118304739D01*
X152304739Y-118469077D01*
X152215800Y-118683795D01*
X148074292Y-118683795D01*
X147995959Y-118494217D01*
X147806778Y-118304706D01*
X147559475Y-118202017D01*
X147326550Y-118201813D01*
X147098015Y-117973278D01*
X147098217Y-117741699D01*
X146995959Y-117494217D01*
X146806778Y-117304706D01*
X146559475Y-117202017D01*
X146291699Y-117201783D01*
X146044217Y-117304041D01*
X145854706Y-117493222D01*
X145752017Y-117740525D01*
X145751783Y-118008301D01*
X135140269Y-118008301D01*
X135140269Y-116821400D01*
X135117244Y-116699035D01*
X135044927Y-116586651D01*
X134934583Y-116511256D01*
X134803600Y-116484731D01*
X134440379Y-116484731D01*
X134842354Y-116277220D01*
X135206948Y-115845719D01*
X135331337Y-115545382D01*
X135229550Y-115322800D01*
X134117800Y-115322800D01*
X134117800Y-115342800D01*
X133762200Y-115342800D01*
X133762200Y-115322800D01*
X133742200Y-115322800D01*
X133742200Y-115267899D01*
X137150701Y-115267899D01*
X137150701Y-116732101D01*
X137181636Y-116887624D01*
X137235472Y-116968194D01*
X137269733Y-117019469D01*
X137689521Y-117439257D01*
X137821366Y-117527354D01*
X137976889Y-117558289D01*
X140952698Y-117558289D01*
X141116307Y-117722183D01*
X141363610Y-117824872D01*
X141631386Y-117825106D01*
X141878868Y-117722848D01*
X142068379Y-117533667D01*
X142171068Y-117286364D01*
X142171172Y-117167899D01*
X142405783Y-117070959D01*
X142595294Y-116881778D01*
X142697983Y-116634475D01*
X142698217Y-116366699D01*
X142595959Y-116119217D01*
X142406778Y-115929706D01*
X142159475Y-115827017D01*
X142085771Y-115826953D01*
X142085842Y-115745197D01*
X141983584Y-115497715D01*
X141819025Y-115332869D01*
X141819025Y-113930711D01*
X141937310Y-113812426D01*
X147922658Y-113812426D01*
X148024916Y-114059908D01*
X148214097Y-114249419D01*
X148461400Y-114352108D01*
X148622797Y-114352249D01*
X148622657Y-114512427D01*
X148724915Y-114759909D01*
X148914096Y-114949420D01*
X149161399Y-115052109D01*
X149429175Y-115052343D01*
X149546801Y-115003741D01*
X149546598Y-115236367D01*
X149648856Y-115483849D01*
X149838037Y-115673360D01*
X150085340Y-115776049D01*
X150353116Y-115776283D01*
X150600598Y-115674025D01*
X150790109Y-115484844D01*
X150892798Y-115237541D01*
X150893032Y-114969765D01*
X150822504Y-114799074D01*
X151635163Y-113986415D01*
X151711733Y-114018209D01*
X151979509Y-114018443D01*
X152226991Y-113916185D01*
X152416502Y-113727004D01*
X152519191Y-113479701D01*
X152519425Y-113211925D01*
X152417167Y-112964443D01*
X152227986Y-112774932D01*
X151980683Y-112672243D01*
X151712907Y-112672009D01*
X151465425Y-112774267D01*
X151290857Y-112948531D01*
X151274146Y-112908086D01*
X151084965Y-112718575D01*
X150837662Y-112615886D01*
X150742987Y-112615803D01*
X150750510Y-112597685D01*
X150750744Y-112329909D01*
X150648486Y-112082427D01*
X150459305Y-111892916D01*
X150212002Y-111790227D01*
X149944226Y-111789993D01*
X149696744Y-111892251D01*
X149507233Y-112081432D01*
X149404544Y-112328735D01*
X149404340Y-112561660D01*
X148892520Y-113073481D01*
X148730350Y-113006142D01*
X148462574Y-113005908D01*
X148215092Y-113108166D01*
X148025581Y-113297347D01*
X147922892Y-113544650D01*
X147922658Y-113812426D01*
X141937310Y-113812426D01*
X142737368Y-113012368D01*
X142757124Y-112982801D01*
X142825465Y-112880523D01*
X142856400Y-112725000D01*
X142856400Y-111025000D01*
X142825465Y-110869477D01*
X142737368Y-110737632D01*
X142498015Y-110498279D01*
X142498217Y-110266699D01*
X142395959Y-110019217D01*
X142206778Y-109829706D01*
X141959475Y-109727017D01*
X141691699Y-109726783D01*
X141444217Y-109829041D01*
X141254706Y-110018222D01*
X141152017Y-110265525D01*
X141151783Y-110533301D01*
X141254041Y-110780783D01*
X141443222Y-110970294D01*
X141484454Y-110987415D01*
X141444217Y-111004041D01*
X141254706Y-111193222D01*
X141152017Y-111440525D01*
X141151783Y-111708301D01*
X141254041Y-111955783D01*
X141367800Y-112069740D01*
X141367800Y-112473336D01*
X138453234Y-115387902D01*
X138389085Y-115387846D01*
X138470294Y-115306778D01*
X138572983Y-115059475D01*
X138573217Y-114791699D01*
X138470959Y-114544217D01*
X138281778Y-114354706D01*
X138034475Y-114252017D01*
X137766699Y-114251783D01*
X137519217Y-114354041D01*
X137329706Y-114543222D01*
X137227017Y-114790525D01*
X137226795Y-115044792D01*
X137181636Y-115112376D01*
X137150701Y-115267899D01*
X133742200Y-115267899D01*
X133742200Y-114967200D01*
X133762200Y-114967200D01*
X133762200Y-114947200D01*
X134117800Y-114947200D01*
X134117800Y-114967200D01*
X135229550Y-114967200D01*
X135331337Y-114744618D01*
X135206948Y-114444281D01*
X134842354Y-114012780D01*
X134340385Y-113753649D01*
X134117802Y-113854194D01*
X134117802Y-113768085D01*
X134420235Y-113707927D01*
X134807532Y-113449144D01*
X135066315Y-113061847D01*
X135157188Y-112605000D01*
X135066315Y-112148153D01*
X134807532Y-111760856D01*
X134420235Y-111502073D01*
X134117802Y-111441915D01*
X134117802Y-111355806D01*
X134340385Y-111456351D01*
X134842354Y-111197220D01*
X135206948Y-110765719D01*
X135331337Y-110465382D01*
X135229550Y-110242800D01*
X134117800Y-110242800D01*
X134117800Y-110262800D01*
X133762200Y-110262800D01*
X133762200Y-110242800D01*
X131577800Y-110242800D01*
X131577800Y-110262800D01*
X131222200Y-110262800D01*
X131222200Y-110242800D01*
X131202200Y-110242800D01*
X131202200Y-109887200D01*
X131222200Y-109887200D01*
X131222200Y-109867200D01*
X131577800Y-109867200D01*
X131577800Y-109887200D01*
X133762200Y-109887200D01*
X133762200Y-109867200D01*
X134117800Y-109867200D01*
X134117800Y-109887200D01*
X135229550Y-109887200D01*
X135331337Y-109664618D01*
X135206948Y-109364281D01*
X134842354Y-108932780D01*
X134351811Y-108679547D01*
X135427620Y-108679547D01*
X135529878Y-108927029D01*
X135579535Y-108976773D01*
X135553909Y-109002354D01*
X135451220Y-109249657D01*
X135450986Y-109517433D01*
X135553244Y-109764915D01*
X135742425Y-109954426D01*
X135989728Y-110057115D01*
X136257504Y-110057349D01*
X136504986Y-109955091D01*
X136669832Y-109790532D01*
X137118397Y-109790532D01*
X137273920Y-109759597D01*
X137405765Y-109671500D01*
X137755201Y-109322064D01*
X137986781Y-109322266D01*
X138234263Y-109220008D01*
X138423774Y-109030827D01*
X138526463Y-108783524D01*
X138526697Y-108515748D01*
X138490399Y-108427901D01*
X138534981Y-108427901D01*
X138666511Y-108559431D01*
X138798356Y-108647528D01*
X138878447Y-108663459D01*
X139057034Y-108842357D01*
X139304337Y-108945046D01*
X139572113Y-108945280D01*
X139819595Y-108843022D01*
X140009106Y-108653841D01*
X140111795Y-108406538D01*
X140112029Y-108138762D01*
X140009771Y-107891280D01*
X139820590Y-107701769D01*
X139573287Y-107599080D01*
X139305511Y-107598846D01*
X139108155Y-107680392D01*
X139147983Y-107584475D01*
X139148187Y-107351549D01*
X139476720Y-107023015D01*
X139708299Y-107023217D01*
X139955781Y-106920959D01*
X140145292Y-106731778D01*
X140247981Y-106484475D01*
X140248215Y-106216699D01*
X140145957Y-105969217D01*
X139956776Y-105779706D01*
X139709473Y-105677017D01*
X139441697Y-105676783D01*
X139194215Y-105779041D01*
X139004704Y-105968222D01*
X138902015Y-106215525D01*
X138901811Y-106448450D01*
X138573277Y-106776985D01*
X138341699Y-106776783D01*
X138094217Y-106879041D01*
X137904706Y-107068222D01*
X137802017Y-107315525D01*
X137801783Y-107583301D01*
X137814923Y-107615101D01*
X136625582Y-107615101D01*
X136470059Y-107646036D01*
X136338213Y-107734133D01*
X136199115Y-107873231D01*
X135967536Y-107873029D01*
X135720054Y-107975287D01*
X135530543Y-108164468D01*
X135427854Y-108411771D01*
X135427620Y-108679547D01*
X134351811Y-108679547D01*
X134340385Y-108673649D01*
X134117802Y-108774194D01*
X134117802Y-108688085D01*
X134420235Y-108627927D01*
X134807532Y-108369144D01*
X135066315Y-107981847D01*
X135157188Y-107525000D01*
X135066315Y-107068153D01*
X134807532Y-106680856D01*
X134420235Y-106422073D01*
X134117802Y-106361915D01*
X134117802Y-106275806D01*
X134340385Y-106376351D01*
X134842354Y-106117220D01*
X135206948Y-105685719D01*
X135331337Y-105385382D01*
X135265335Y-105241051D01*
X140055794Y-105241051D01*
X140158052Y-105488533D01*
X140347233Y-105678044D01*
X140594536Y-105780733D01*
X140862312Y-105780967D01*
X140895624Y-105767202D01*
X141376923Y-106248501D01*
X141376855Y-106326326D01*
X141327602Y-106400037D01*
X141292800Y-106575000D01*
X141292800Y-108280325D01*
X141179706Y-108393222D01*
X141077017Y-108640525D01*
X141076783Y-108908301D01*
X141179041Y-109155783D01*
X141368222Y-109345294D01*
X141615525Y-109447983D01*
X141883301Y-109448217D01*
X142130783Y-109345959D01*
X142320294Y-109156778D01*
X142371566Y-109033301D01*
X143151783Y-109033301D01*
X143254041Y-109280783D01*
X143443222Y-109470294D01*
X143690525Y-109572983D01*
X143958301Y-109573217D01*
X144205783Y-109470959D01*
X144395294Y-109281778D01*
X144497983Y-109034475D01*
X144497986Y-109031398D01*
X145504613Y-109031398D01*
X145668222Y-109195292D01*
X145915525Y-109297981D01*
X146183301Y-109298215D01*
X146430783Y-109195957D01*
X146620294Y-109006776D01*
X146722983Y-108759473D01*
X146723217Y-108491697D01*
X146620959Y-108244215D01*
X146431778Y-108054704D01*
X146184475Y-107952015D01*
X145916699Y-107951781D01*
X145669217Y-108054039D01*
X145504371Y-108218598D01*
X144100002Y-108218598D01*
X143991280Y-108240223D01*
X143959475Y-108227017D01*
X143691699Y-108226783D01*
X143444217Y-108329041D01*
X143254706Y-108518222D01*
X143152017Y-108765525D01*
X143151783Y-109033301D01*
X142371566Y-109033301D01*
X142422983Y-108909475D01*
X142423217Y-108641699D01*
X142320959Y-108394217D01*
X142207200Y-108280260D01*
X142207200Y-106938342D01*
X142430783Y-106845959D01*
X142620294Y-106656778D01*
X142722983Y-106409475D01*
X142723217Y-106141699D01*
X142620959Y-105894217D01*
X142431778Y-105704706D01*
X142184475Y-105602017D01*
X142023454Y-105601876D01*
X141402223Y-104980645D01*
X141402228Y-104974449D01*
X141299970Y-104726967D01*
X141110789Y-104537456D01*
X140863486Y-104434767D01*
X140595710Y-104434533D01*
X140348228Y-104536791D01*
X140158717Y-104725972D01*
X140056028Y-104973275D01*
X140055794Y-105241051D01*
X135265335Y-105241051D01*
X135229550Y-105162800D01*
X134117800Y-105162800D01*
X134117800Y-105182800D01*
X133762200Y-105182800D01*
X133762200Y-105162800D01*
X133742200Y-105162800D01*
X133742200Y-104807200D01*
X133762200Y-104807200D01*
X133762200Y-104787200D01*
X134117800Y-104787200D01*
X134117800Y-104807200D01*
X135229550Y-104807200D01*
X135331337Y-104584618D01*
X135206948Y-104284281D01*
X134842354Y-103852780D01*
X134340385Y-103593649D01*
X134117802Y-103694194D01*
X134117802Y-103608085D01*
X134420235Y-103547927D01*
X134807532Y-103289144D01*
X135066315Y-102901847D01*
X135157188Y-102445000D01*
X135066315Y-101988153D01*
X134807532Y-101600856D01*
X134420235Y-101342073D01*
X134117802Y-101281915D01*
X134117802Y-101195806D01*
X134340385Y-101296351D01*
X134722969Y-101098850D01*
X147240800Y-101098850D01*
X147240800Y-101266204D01*
X147329739Y-101480922D01*
X147494077Y-101645261D01*
X147708795Y-101734200D01*
X148101150Y-101734200D01*
X148247200Y-101588150D01*
X148247200Y-100952800D01*
X147386850Y-100952800D01*
X147240800Y-101098850D01*
X134722969Y-101098850D01*
X134842354Y-101037220D01*
X135206948Y-100605719D01*
X135331337Y-100305382D01*
X135321466Y-100283796D01*
X147240800Y-100283796D01*
X147240800Y-100451150D01*
X147386850Y-100597200D01*
X148247200Y-100597200D01*
X148247200Y-99961850D01*
X148602800Y-99961850D01*
X148602800Y-100597200D01*
X148622800Y-100597200D01*
X148622800Y-100952800D01*
X148602800Y-100952800D01*
X148602800Y-101588150D01*
X148748850Y-101734200D01*
X149141205Y-101734200D01*
X149355923Y-101645261D01*
X149520261Y-101480922D01*
X149543239Y-101425449D01*
X149594017Y-101460144D01*
X149665208Y-101474561D01*
X149613081Y-101526597D01*
X149510392Y-101773900D01*
X149510158Y-102041676D01*
X149612416Y-102289158D01*
X149801597Y-102478669D01*
X150048900Y-102581358D01*
X150316676Y-102581592D01*
X150564158Y-102479334D01*
X150753669Y-102290153D01*
X150856358Y-102042850D01*
X150856592Y-101775074D01*
X150782200Y-101595033D01*
X150782200Y-101486669D01*
X150925000Y-101486669D01*
X151047365Y-101463644D01*
X151159749Y-101391327D01*
X151235144Y-101280983D01*
X151261669Y-101150000D01*
X151261669Y-100400000D01*
X151238644Y-100277635D01*
X151166327Y-100165251D01*
X151055983Y-100089856D01*
X150925000Y-100063331D01*
X150782200Y-100063331D01*
X150782200Y-99737315D01*
X150884749Y-99671327D01*
X150960144Y-99560983D01*
X150986669Y-99430000D01*
X150986669Y-98370000D01*
X150963644Y-98247635D01*
X150891327Y-98135251D01*
X150780983Y-98059856D01*
X150650000Y-98033331D01*
X150000000Y-98033331D01*
X149877635Y-98056356D01*
X149765251Y-98128673D01*
X149689856Y-98239017D01*
X149663331Y-98370000D01*
X149663331Y-99430000D01*
X149686356Y-99552365D01*
X149758673Y-99664749D01*
X149867800Y-99739312D01*
X149867800Y-100063331D01*
X149725000Y-100063331D01*
X149602635Y-100086356D01*
X149543247Y-100124571D01*
X149520261Y-100069078D01*
X149355923Y-99904739D01*
X149141205Y-99815800D01*
X148748850Y-99815800D01*
X148602800Y-99961850D01*
X148247200Y-99961850D01*
X148101150Y-99815800D01*
X147708795Y-99815800D01*
X147494077Y-99904739D01*
X147329739Y-100069078D01*
X147240800Y-100283796D01*
X135321466Y-100283796D01*
X135229550Y-100082800D01*
X134117800Y-100082800D01*
X134117800Y-100102800D01*
X133762200Y-100102800D01*
X133762200Y-100082800D01*
X131577800Y-100082800D01*
X131577800Y-100102800D01*
X131222200Y-100102800D01*
X131222200Y-100082800D01*
X131202200Y-100082800D01*
X131202200Y-99727200D01*
X131222200Y-99727200D01*
X131222200Y-98614195D01*
X131577800Y-98614195D01*
X131577800Y-99727200D01*
X133762200Y-99727200D01*
X133762200Y-98614195D01*
X134117800Y-98614195D01*
X134117800Y-99727200D01*
X135229550Y-99727200D01*
X135331337Y-99504618D01*
X135206948Y-99204281D01*
X134842354Y-98772780D01*
X134340385Y-98513649D01*
X134117800Y-98614195D01*
X133762200Y-98614195D01*
X133539615Y-98513649D01*
X133037646Y-98772780D01*
X132673052Y-99204281D01*
X132670000Y-99211650D01*
X132666948Y-99204281D01*
X132302354Y-98772780D01*
X131800385Y-98513649D01*
X131577800Y-98614195D01*
X131222200Y-98614195D01*
X130999615Y-98513649D01*
X130497646Y-98772780D01*
X130405200Y-98882191D01*
X130405200Y-98370000D01*
X147763331Y-98370000D01*
X147763331Y-99430000D01*
X147786356Y-99552365D01*
X147858673Y-99664749D01*
X147969017Y-99740144D01*
X148100000Y-99766669D01*
X148750000Y-99766669D01*
X148872365Y-99743644D01*
X148984749Y-99671327D01*
X149060144Y-99560983D01*
X149086669Y-99430000D01*
X149086669Y-98370000D01*
X149063644Y-98247635D01*
X148991327Y-98135251D01*
X148880983Y-98059856D01*
X148750000Y-98033331D01*
X148100000Y-98033331D01*
X147977635Y-98056356D01*
X147865251Y-98128673D01*
X147789856Y-98239017D01*
X147763331Y-98370000D01*
X130405200Y-98370000D01*
X130405200Y-97097584D01*
X130409468Y-97100517D01*
X130416618Y-97103588D01*
X130418058Y-97103894D01*
X130419280Y-97104718D01*
X130430083Y-97109247D01*
X130430778Y-97109388D01*
X130431368Y-97109783D01*
X130445443Y-97115616D01*
X130445888Y-97115705D01*
X130446271Y-97115959D01*
X130463232Y-97122935D01*
X130463548Y-97122997D01*
X130463817Y-97123175D01*
X130483281Y-97131138D01*
X130483547Y-97131190D01*
X130483773Y-97131339D01*
X130505356Y-97140128D01*
X130505577Y-97140171D01*
X130505768Y-97140296D01*
X130529086Y-97149757D01*
X130529297Y-97149797D01*
X130529475Y-97149914D01*
X130544238Y-97155882D01*
X130545001Y-97157215D01*
X130545226Y-97158849D01*
X130557918Y-97195514D01*
X130559573Y-97198340D01*
X130560081Y-97201571D01*
X130572223Y-97234583D01*
X130574315Y-97238004D01*
X130575031Y-97241949D01*
X130586970Y-97272194D01*
X130589439Y-97276026D01*
X130590373Y-97280489D01*
X130602456Y-97308853D01*
X130605144Y-97312789D01*
X130606250Y-97317424D01*
X130618825Y-97344795D01*
X130621931Y-97349082D01*
X130623319Y-97354188D01*
X130654239Y-97416323D01*
X130658339Y-97421627D01*
X130660351Y-97428022D01*
X130699511Y-97499513D01*
X130704408Y-97505357D01*
X130707019Y-97512519D01*
X130748247Y-97580381D01*
X130753642Y-97586262D01*
X130756724Y-97593624D01*
X130799925Y-97657750D01*
X130805868Y-97663648D01*
X130809478Y-97671204D01*
X130854555Y-97731485D01*
X130861103Y-97737373D01*
X130865305Y-97745110D01*
X130912163Y-97801440D01*
X130919377Y-97807280D01*
X130924244Y-97815182D01*
X130972788Y-97867451D01*
X130980722Y-97873187D01*
X130986330Y-97881216D01*
X131036462Y-97929317D01*
X131045179Y-97934884D01*
X131051607Y-97942988D01*
X131103232Y-97986812D01*
X131112780Y-97992121D01*
X131120104Y-98000225D01*
X131173126Y-98039665D01*
X131183541Y-98044609D01*
X131191833Y-98052617D01*
X131246157Y-98087562D01*
X131257449Y-98092011D01*
X131266763Y-98099800D01*
X131322292Y-98130145D01*
X131330028Y-98132570D01*
X131336488Y-98137469D01*
X131348905Y-98143504D01*
X131356248Y-98145427D01*
X131362496Y-98149740D01*
X131408562Y-98169645D01*
X131418813Y-98171846D01*
X131427790Y-98177258D01*
X131477308Y-98195118D01*
X131486612Y-98196522D01*
X131494931Y-98200929D01*
X131547084Y-98216536D01*
X131555848Y-98217366D01*
X131563830Y-98221079D01*
X131617803Y-98234231D01*
X131626375Y-98234597D01*
X131634328Y-98237819D01*
X131689306Y-98248311D01*
X131698015Y-98248243D01*
X131706244Y-98251096D01*
X131761414Y-98258722D01*
X131770586Y-98258180D01*
X131779416Y-98260716D01*
X131833963Y-98265271D01*
X131840967Y-98264476D01*
X131847819Y-98266140D01*
X131868050Y-98266988D01*
X131872174Y-98266346D01*
X131876251Y-98267231D01*
X131907257Y-98267771D01*
X131910981Y-98267097D01*
X131914697Y-98267818D01*
X131947943Y-98267659D01*
X131951164Y-98267002D01*
X131954404Y-98267566D01*
X131988481Y-98266746D01*
X131991643Y-98266037D01*
X131994844Y-98266532D01*
X132028340Y-98265089D01*
X132031867Y-98264228D01*
X132035466Y-98264706D01*
X132066972Y-98262676D01*
X132071438Y-98261485D01*
X132076038Y-98261969D01*
X132104143Y-98259391D01*
X132108823Y-98258005D01*
X132113688Y-98258377D01*
X132158149Y-98253011D01*
X132162733Y-98251510D01*
X132167552Y-98251741D01*
X132215206Y-98244616D01*
X132221163Y-98242477D01*
X132227489Y-98242545D01*
X132272120Y-98234166D01*
X132278924Y-98231433D01*
X132286256Y-98231196D01*
X132328804Y-98221293D01*
X132336032Y-98218022D01*
X132343939Y-98217396D01*
X132385344Y-98205700D01*
X132392459Y-98202071D01*
X132400382Y-98201068D01*
X132441587Y-98187310D01*
X132448092Y-98183597D01*
X132455479Y-98182330D01*
X132497422Y-98166241D01*
X132502961Y-98162748D01*
X132509365Y-98161394D01*
X132552989Y-98142706D01*
X132557411Y-98139674D01*
X132562619Y-98138400D01*
X132608864Y-98116843D01*
X132610742Y-98115466D01*
X132612994Y-98114883D01*
X132614249Y-98114277D01*
X132614543Y-98114055D01*
X132614900Y-98113962D01*
X132629208Y-98107015D01*
X132629995Y-98106419D01*
X132630947Y-98106164D01*
X132644832Y-98099323D01*
X132645769Y-98098605D01*
X132646906Y-98098292D01*
X132660676Y-98091389D01*
X132661734Y-98090566D01*
X132663025Y-98090200D01*
X132676985Y-98083064D01*
X132678052Y-98082221D01*
X132679359Y-98081839D01*
X132693817Y-98074302D01*
X132694851Y-98073471D01*
X132696122Y-98073089D01*
X132711386Y-98064981D01*
X132712322Y-98064217D01*
X132713479Y-98063860D01*
X132729855Y-98055012D01*
X132730673Y-98054335D01*
X132731684Y-98054016D01*
X132749479Y-98044258D01*
X132750160Y-98043687D01*
X132751007Y-98043415D01*
X132770527Y-98032579D01*
X132771077Y-98032112D01*
X132771764Y-98031889D01*
X132793318Y-98019804D01*
X132793754Y-98019431D01*
X132794298Y-98019252D01*
X132818191Y-98005750D01*
X132818525Y-98005462D01*
X132818945Y-98005323D01*
X132845485Y-97990234D01*
X132845737Y-97990016D01*
X132846057Y-97989909D01*
X132875551Y-97973064D01*
X132875742Y-97972898D01*
X132875981Y-97972818D01*
X132908736Y-97954047D01*
X132908867Y-97953933D01*
X132909033Y-97953877D01*
X132945356Y-97933012D01*
X132945450Y-97932930D01*
X132945566Y-97932891D01*
X132985763Y-97909762D01*
X132985765Y-97909761D01*
X132999573Y-97901824D01*
X133043191Y-97876970D01*
X133082803Y-97854769D01*
X133118707Y-97835074D01*
X133151364Y-97817636D01*
X133181292Y-97802173D01*
X133208898Y-97788457D01*
X133234866Y-97776119D01*
X133259723Y-97764883D01*
X133284380Y-97754313D01*
X133309287Y-97744200D01*
X133335400Y-97734144D01*
X133363310Y-97723912D01*
X133393728Y-97713231D01*
X133462712Y-97689760D01*
X133549733Y-97661089D01*
X133632763Y-97634863D01*
X133712678Y-97610832D01*
X133789885Y-97588890D01*
X133865012Y-97568869D01*
X133938590Y-97550630D01*
X134011313Y-97533999D01*
X134083743Y-97518841D01*
X134156576Y-97505002D01*
X134230425Y-97492354D01*
X134305837Y-97480788D01*
X134383661Y-97470153D01*
X134464178Y-97460387D01*
X134548866Y-97451286D01*
X134565421Y-97449633D01*
X134618916Y-97444565D01*
X134672630Y-97439895D01*
X134727328Y-97435562D01*
X134783600Y-97431533D01*
X134841732Y-97427795D01*
X134902259Y-97424319D01*
X134965426Y-97421097D01*
X135031799Y-97418099D01*
X135101651Y-97415314D01*
X135175238Y-97412729D01*
X135253054Y-97410318D01*
X135336305Y-97408042D01*
X135336306Y-97408042D01*
X135345206Y-97407812D01*
X135345330Y-97407784D01*
X135345459Y-97407806D01*
X135396430Y-97406452D01*
X135396714Y-97406388D01*
X135396999Y-97406436D01*
X135443420Y-97405124D01*
X135443809Y-97405035D01*
X135444203Y-97405101D01*
X135486320Y-97403812D01*
X135486849Y-97403690D01*
X135487386Y-97403778D01*
X135525442Y-97402492D01*
X135526145Y-97402327D01*
X135526857Y-97402441D01*
X135561100Y-97401139D01*
X135562019Y-97400920D01*
X135562950Y-97401063D01*
X135593622Y-97399727D01*
X135594830Y-97399431D01*
X135596062Y-97399612D01*
X135623410Y-97398221D01*
X135624978Y-97397825D01*
X135626582Y-97398045D01*
X135650849Y-97396580D01*
X135652874Y-97396049D01*
X135654951Y-97396307D01*
X135676385Y-97394749D01*
X135678991Y-97394031D01*
X135681676Y-97394322D01*
X135700519Y-97392652D01*
X135703845Y-97391679D01*
X135707299Y-97391982D01*
X135723799Y-97390181D01*
X135728040Y-97388845D01*
X135732479Y-97389119D01*
X135746878Y-97387166D01*
X135752164Y-97385348D01*
X135757753Y-97385509D01*
X135770298Y-97383386D01*
X135776778Y-97380917D01*
X135783711Y-97380834D01*
X135794646Y-97378522D01*
X135802333Y-97375229D01*
X135810678Y-97374718D01*
X135820250Y-97372197D01*
X135828947Y-97367954D01*
X135838556Y-97366814D01*
X135847008Y-97364065D01*
X135856207Y-97358910D01*
X135866586Y-97357019D01*
X135874163Y-97354023D01*
X135883081Y-97348271D01*
X135893381Y-97345721D01*
X135900330Y-97342458D01*
X135911301Y-97334369D01*
X135924224Y-97330043D01*
X135931440Y-97325917D01*
X135947719Y-97311763D01*
X135952064Y-97310212D01*
X135959425Y-97303551D01*
X135979065Y-97292922D01*
X135993961Y-97280568D01*
X136014698Y-97255030D01*
X136021528Y-97250758D01*
X136027469Y-97242420D01*
X136030137Y-97240101D01*
X136030622Y-97239127D01*
X136049043Y-97222459D01*
X136060818Y-97206609D01*
X136070353Y-97186491D01*
X136076405Y-97179038D01*
X136079109Y-97169956D01*
X136097429Y-97144247D01*
X136106063Y-97125057D01*
X136112300Y-97097985D01*
X136116832Y-97088423D01*
X136116923Y-97086603D01*
X136125971Y-97067200D01*
X136131446Y-97044827D01*
X136132549Y-97019580D01*
X136139691Y-96995340D01*
X136141988Y-96969940D01*
X136139803Y-96949436D01*
X136143181Y-96929095D01*
X136142282Y-96900826D01*
X136138444Y-96884295D01*
X136139535Y-96867360D01*
X136135421Y-96836377D01*
X136130845Y-96822946D01*
X136130571Y-96808763D01*
X136123223Y-96775223D01*
X136118384Y-96764151D01*
X136117292Y-96752117D01*
X136106690Y-96716177D01*
X136102647Y-96708472D01*
X136101418Y-96699855D01*
X136091911Y-96672810D01*
X136088629Y-96667265D01*
X136087479Y-96660926D01*
X136072643Y-96623332D01*
X136069432Y-96618346D01*
X136068171Y-96612555D01*
X136050650Y-96572318D01*
X136047766Y-96568166D01*
X136046544Y-96563257D01*
X136026607Y-96520948D01*
X136023926Y-96517322D01*
X136022721Y-96512976D01*
X136000641Y-96469165D01*
X135998047Y-96465845D01*
X135996821Y-96461812D01*
X135972867Y-96417069D01*
X135970275Y-96413914D01*
X135968994Y-96410039D01*
X135943439Y-96364935D01*
X135942176Y-96363471D01*
X135941548Y-96361640D01*
X135938613Y-96356595D01*
X135938356Y-96356303D01*
X135938229Y-96355937D01*
X135929810Y-96341538D01*
X135927290Y-96338696D01*
X135925969Y-96335133D01*
X135918455Y-96322914D01*
X135911957Y-96315907D01*
X135908138Y-96307150D01*
X135901095Y-96297021D01*
X135888469Y-96284855D01*
X135879835Y-96269592D01*
X135872828Y-96261459D01*
X135851549Y-96244832D01*
X135834673Y-96223749D01*
X135827269Y-96217520D01*
X135814369Y-96210421D01*
X135811240Y-96206744D01*
X135792284Y-96197042D01*
X135769914Y-96178629D01*
X135761679Y-96174211D01*
X135751075Y-96170978D01*
X135750888Y-96170825D01*
X135732245Y-96165229D01*
X135719656Y-96158301D01*
X143301783Y-96158301D01*
X143404041Y-96405783D01*
X143593222Y-96595294D01*
X143840525Y-96697983D01*
X144108301Y-96698217D01*
X144355783Y-96595959D01*
X144545294Y-96406778D01*
X144590479Y-96297960D01*
X144604041Y-96330783D01*
X144793222Y-96520294D01*
X145040525Y-96622983D01*
X145308301Y-96623217D01*
X145555783Y-96520959D01*
X145745294Y-96331778D01*
X145847983Y-96084475D01*
X145848217Y-95816699D01*
X145745959Y-95569217D01*
X145581400Y-95404371D01*
X145581400Y-94970387D01*
X145745294Y-94806778D01*
X145845606Y-94565198D01*
X147151357Y-94565198D01*
X147176070Y-94696535D01*
X147249933Y-94807910D01*
X147967800Y-95525777D01*
X147967800Y-95862685D01*
X147865251Y-95928673D01*
X147789856Y-96039017D01*
X147763331Y-96170000D01*
X147763331Y-97230000D01*
X147786356Y-97352365D01*
X147858673Y-97464749D01*
X147969017Y-97540144D01*
X148100000Y-97566669D01*
X148560485Y-97566669D01*
X148719078Y-97725261D01*
X148933796Y-97814200D01*
X149066450Y-97814200D01*
X149212500Y-97668150D01*
X149212500Y-96877800D01*
X149177200Y-96877800D01*
X149177200Y-96522200D01*
X149212500Y-96522200D01*
X149212500Y-96502200D01*
X149537500Y-96502200D01*
X149537500Y-96522200D01*
X149572800Y-96522200D01*
X149572800Y-96877800D01*
X149537500Y-96877800D01*
X149537500Y-97668150D01*
X149683550Y-97814200D01*
X149816204Y-97814200D01*
X150030922Y-97725261D01*
X150189515Y-97566669D01*
X150650000Y-97566669D01*
X150772365Y-97543644D01*
X150884749Y-97471327D01*
X150960144Y-97360983D01*
X150974731Y-97288952D01*
X151292800Y-97607021D01*
X151292800Y-101825000D01*
X151327602Y-101999963D01*
X151426711Y-102148289D01*
X152376711Y-103098289D01*
X152525037Y-103197398D01*
X152700000Y-103232200D01*
X152883830Y-103232200D01*
X153846802Y-104195171D01*
X153746640Y-104236557D01*
X153557129Y-104425738D01*
X153454440Y-104673041D01*
X153454289Y-104845975D01*
X151948279Y-106351985D01*
X151716699Y-106351783D01*
X151469217Y-106454041D01*
X151279706Y-106643222D01*
X151177017Y-106890525D01*
X151176783Y-107158301D01*
X151279041Y-107405783D01*
X151468222Y-107595294D01*
X151715525Y-107697983D01*
X151983301Y-107698217D01*
X152230783Y-107595959D01*
X152420294Y-107406778D01*
X152522983Y-107159475D01*
X152523187Y-106926549D01*
X153446103Y-106003633D01*
X153467892Y-106056365D01*
X153632451Y-106221211D01*
X153632451Y-106536260D01*
X153663386Y-106691783D01*
X153738862Y-106804739D01*
X153751483Y-106823628D01*
X154105465Y-107177610D01*
X154105263Y-107409190D01*
X154207521Y-107656672D01*
X154396702Y-107846183D01*
X154644005Y-107948872D01*
X154911781Y-107949106D01*
X155159263Y-107846848D01*
X155348774Y-107657667D01*
X155405786Y-107520368D01*
X155476042Y-107590624D01*
X155475902Y-107750424D01*
X155578160Y-107997906D01*
X155767341Y-108187417D01*
X155895822Y-108240767D01*
X155736400Y-108399911D01*
X155633711Y-108647214D01*
X155633477Y-108914990D01*
X155735735Y-109162472D01*
X155789330Y-109216160D01*
X155584679Y-109300721D01*
X155395168Y-109489902D01*
X155292479Y-109737205D01*
X155292245Y-110004981D01*
X155394503Y-110252463D01*
X155448098Y-110306151D01*
X155243448Y-110390711D01*
X155053937Y-110579892D01*
X154951248Y-110827195D01*
X154951014Y-111094971D01*
X155053272Y-111342453D01*
X155106867Y-111396141D01*
X154902216Y-111480702D01*
X154712705Y-111669883D01*
X154610016Y-111917186D01*
X154609782Y-112184962D01*
X154712040Y-112432444D01*
X154765634Y-112486132D01*
X154560984Y-112570692D01*
X154371473Y-112759873D01*
X154268784Y-113007176D01*
X154268550Y-113274952D01*
X154370808Y-113522434D01*
X154424403Y-113576122D01*
X154219752Y-113660683D01*
X154030241Y-113849864D01*
X153927552Y-114097167D01*
X153927318Y-114364943D01*
X154029576Y-114612425D01*
X154083171Y-114666113D01*
X153878520Y-114750674D01*
X153689009Y-114939855D01*
X153586320Y-115187158D01*
X153586086Y-115454934D01*
X153688344Y-115702416D01*
X153877525Y-115891927D01*
X154001019Y-115943206D01*
X154000810Y-116182537D01*
X154103068Y-116430019D01*
X154292249Y-116619530D01*
X154539552Y-116722219D01*
X154793819Y-116722441D01*
X154861403Y-116767600D01*
X154877221Y-116770746D01*
X154854706Y-116793222D01*
X154752017Y-117040525D01*
X154751783Y-117308301D01*
X154854041Y-117555783D01*
X155043222Y-117745294D01*
X155290525Y-117847983D01*
X155558301Y-117848217D01*
X155805783Y-117745959D01*
X155970629Y-117581400D01*
X156425000Y-117581400D01*
X156580523Y-117550465D01*
X156712368Y-117462368D01*
X157938067Y-116236669D01*
X158460000Y-116236669D01*
X158582365Y-116213644D01*
X158694749Y-116141327D01*
X158770144Y-116030983D01*
X158796669Y-115900000D01*
X158796669Y-115700000D01*
X158777162Y-115596329D01*
X158796669Y-115500000D01*
X158796669Y-115300000D01*
X158777162Y-115196329D01*
X158796669Y-115100000D01*
X158796669Y-114900000D01*
X158777162Y-114796329D01*
X158796669Y-114700000D01*
X158796669Y-114500000D01*
X158777162Y-114396329D01*
X158796669Y-114300000D01*
X158796669Y-114100000D01*
X158777162Y-113996329D01*
X158796669Y-113900000D01*
X158796669Y-113700000D01*
X158777162Y-113596329D01*
X158796669Y-113500000D01*
X158796669Y-113300000D01*
X158777162Y-113196329D01*
X158796669Y-113100000D01*
X158796669Y-112900000D01*
X158777162Y-112796329D01*
X158796669Y-112700000D01*
X158796669Y-112500000D01*
X158777162Y-112396329D01*
X158796669Y-112300000D01*
X158796669Y-112100000D01*
X158777162Y-111996329D01*
X158796669Y-111900000D01*
X158796669Y-111700000D01*
X158777162Y-111596329D01*
X158796669Y-111500000D01*
X158796669Y-111300000D01*
X158777162Y-111196329D01*
X158796669Y-111100000D01*
X158796669Y-110900000D01*
X158777162Y-110796329D01*
X158796669Y-110700000D01*
X158796669Y-110500000D01*
X158777162Y-110396329D01*
X158796669Y-110300000D01*
X158796669Y-110100000D01*
X158777162Y-109996329D01*
X158796669Y-109900000D01*
X158796669Y-109700000D01*
X158777162Y-109596329D01*
X158796669Y-109500000D01*
X158796669Y-109300000D01*
X158777162Y-109196329D01*
X158796669Y-109100000D01*
X158796669Y-108900000D01*
X158777162Y-108796329D01*
X158796669Y-108700000D01*
X158796669Y-108500000D01*
X158777162Y-108396329D01*
X158796669Y-108300000D01*
X158796669Y-108100000D01*
X158777162Y-107996329D01*
X158796669Y-107900000D01*
X158796669Y-107700000D01*
X158777162Y-107596329D01*
X158796669Y-107500000D01*
X158796669Y-107300000D01*
X158777162Y-107196329D01*
X158796669Y-107100000D01*
X158796669Y-106900000D01*
X158777162Y-106796329D01*
X158796669Y-106700000D01*
X158796669Y-106606400D01*
X159531067Y-106606400D01*
X159686590Y-106575465D01*
X159818435Y-106487368D01*
X160346988Y-105958815D01*
X160368421Y-105926739D01*
X160435085Y-105826970D01*
X160466020Y-105671447D01*
X160466020Y-104997487D01*
X160435085Y-104841964D01*
X160346988Y-104710119D01*
X160306400Y-104669531D01*
X160306400Y-99089179D01*
X160404041Y-99325487D01*
X160593222Y-99514998D01*
X160840525Y-99617687D01*
X161108301Y-99617921D01*
X161355783Y-99515663D01*
X161520629Y-99351104D01*
X161930296Y-99351104D01*
X162085819Y-99320169D01*
X162217664Y-99232072D01*
X162551874Y-98897862D01*
X162664473Y-98875465D01*
X162796318Y-98787368D01*
X162816778Y-98766908D01*
X162911350Y-98786059D01*
X164412490Y-98786059D01*
X164534855Y-98763034D01*
X164647239Y-98690717D01*
X164722634Y-98580373D01*
X164749159Y-98449390D01*
X164749159Y-98288664D01*
X164907751Y-98130073D01*
X164996690Y-97915355D01*
X164996690Y-97845505D01*
X164850640Y-97699455D01*
X164609944Y-97699455D01*
X164743412Y-97644171D01*
X164907751Y-97479833D01*
X164933828Y-97416877D01*
X164996690Y-97354015D01*
X164996690Y-97284165D01*
X164992745Y-97274640D01*
X164996690Y-97265115D01*
X164996690Y-97195265D01*
X164933828Y-97132403D01*
X164907751Y-97069447D01*
X164743412Y-96905109D01*
X164609944Y-96849825D01*
X164850640Y-96849825D01*
X164996690Y-96703775D01*
X164996690Y-96633925D01*
X164907751Y-96419207D01*
X164743412Y-96254869D01*
X164528694Y-96165930D01*
X163985770Y-96165930D01*
X163839720Y-96311980D01*
X163839720Y-96849825D01*
X163952115Y-96849825D01*
X163839720Y-96962220D01*
X163839720Y-97147320D01*
X163484120Y-97147320D01*
X163484120Y-96962220D01*
X163464120Y-96942220D01*
X163464120Y-96849825D01*
X163484120Y-96849825D01*
X163484120Y-96311980D01*
X163338070Y-96165930D01*
X162795146Y-96165930D01*
X162580428Y-96254869D01*
X162416089Y-96419207D01*
X162413094Y-96426436D01*
X161895792Y-95909134D01*
X161869271Y-95891413D01*
X161763947Y-95821037D01*
X161608424Y-95790102D01*
X160790318Y-95790102D01*
X160790134Y-95789979D01*
X160826748Y-95701802D01*
X160826982Y-95434026D01*
X160724724Y-95186544D01*
X160559878Y-95021410D01*
X160559878Y-93738108D01*
X160528943Y-93582585D01*
X160440846Y-93450740D01*
X160102558Y-93112452D01*
X161419483Y-93112452D01*
X161697527Y-93785371D01*
X162211921Y-94300664D01*
X162884354Y-94579882D01*
X163612452Y-94580517D01*
X164285371Y-94302473D01*
X164800664Y-93788079D01*
X165079882Y-93115646D01*
X165080517Y-92387548D01*
X164802473Y-91714629D01*
X164288079Y-91199336D01*
X163615646Y-90920118D01*
X162887548Y-90919483D01*
X162214629Y-91197527D01*
X161699336Y-91711921D01*
X161420118Y-92384354D01*
X161419483Y-93112452D01*
X160102558Y-93112452D01*
X159652258Y-92662152D01*
X159625806Y-92644477D01*
X159520413Y-92574055D01*
X159364890Y-92543120D01*
X159090707Y-92543120D01*
X159072857Y-92515381D01*
X158962513Y-92439986D01*
X158831530Y-92413461D01*
X157330390Y-92413461D01*
X157208025Y-92436486D01*
X157095641Y-92508803D01*
X157020246Y-92619147D01*
X156993721Y-92750130D01*
X156993721Y-92910856D01*
X156835129Y-93069447D01*
X156746190Y-93284165D01*
X156746190Y-93354015D01*
X156814133Y-93421958D01*
X156746190Y-93421958D01*
X156746190Y-93449203D01*
X156609378Y-93312392D01*
X156489406Y-93232229D01*
X156506279Y-93148910D01*
X156506279Y-92750130D01*
X156483254Y-92627765D01*
X156410937Y-92515381D01*
X156300593Y-92439986D01*
X156169610Y-92413461D01*
X154668470Y-92413461D01*
X154546105Y-92436486D01*
X154433721Y-92508803D01*
X154402098Y-92555084D01*
X154345959Y-92419217D01*
X154156778Y-92229706D01*
X153909475Y-92127017D01*
X153641699Y-92126783D01*
X153394217Y-92229041D01*
X153204706Y-92418222D01*
X153102017Y-92665525D01*
X153101813Y-92898451D01*
X152912632Y-93087632D01*
X152824535Y-93219477D01*
X152793600Y-93375000D01*
X152793600Y-96396731D01*
X152587632Y-96602699D01*
X152499535Y-96734544D01*
X152483604Y-96814635D01*
X152304706Y-96993222D01*
X152202017Y-97240525D01*
X152201886Y-97390924D01*
X152172398Y-97242679D01*
X152167166Y-97234849D01*
X152073290Y-97094353D01*
X150754208Y-95775271D01*
X150747398Y-95741037D01*
X150739952Y-95729893D01*
X150648289Y-95592710D01*
X149926143Y-94870564D01*
X150271639Y-94525068D01*
X150341883Y-94422262D01*
X150370215Y-94291658D01*
X150345502Y-94160321D01*
X150271639Y-94048946D01*
X149140268Y-92917575D01*
X149037462Y-92847331D01*
X148906858Y-92818999D01*
X148775521Y-92843712D01*
X148664146Y-92917575D01*
X147249933Y-94331788D01*
X147179689Y-94434594D01*
X147151357Y-94565198D01*
X145845606Y-94565198D01*
X145847983Y-94559475D01*
X145848217Y-94291699D01*
X145745959Y-94044217D01*
X145556778Y-93854706D01*
X145309475Y-93752017D01*
X145041699Y-93751783D01*
X144794217Y-93854041D01*
X144612849Y-94035093D01*
X144595959Y-93994217D01*
X144406778Y-93804706D01*
X144159475Y-93702017D01*
X143891699Y-93701783D01*
X143644217Y-93804041D01*
X143454706Y-93993222D01*
X143352017Y-94240525D01*
X143351783Y-94508301D01*
X143454041Y-94755783D01*
X143568600Y-94870542D01*
X143568600Y-95479613D01*
X143404706Y-95643222D01*
X143302017Y-95890525D01*
X143301783Y-96158301D01*
X135719656Y-96158301D01*
X135712684Y-96154465D01*
X135708107Y-96153958D01*
X135694816Y-96147155D01*
X135685315Y-96144457D01*
X135656484Y-96142135D01*
X135636577Y-96136065D01*
X135635448Y-96136175D01*
X135625621Y-96133225D01*
X135614422Y-96132155D01*
X135592554Y-96134373D01*
X135570858Y-96130839D01*
X135557525Y-96131304D01*
X135543571Y-96134589D01*
X135529273Y-96133487D01*
X135513372Y-96135395D01*
X135505084Y-96138103D01*
X135496368Y-96137879D01*
X135477467Y-96141137D01*
X135472880Y-96142900D01*
X135467966Y-96142916D01*
X135445630Y-96147433D01*
X135443422Y-96148356D01*
X135441032Y-96148397D01*
X135414825Y-96154080D01*
X135414135Y-96154380D01*
X135413382Y-96154396D01*
X135383037Y-96161116D01*
X135279561Y-96183805D01*
X135170932Y-96207143D01*
X135063779Y-96229666D01*
X134958750Y-96251246D01*
X134855696Y-96271918D01*
X134754832Y-96291646D01*
X134656625Y-96310343D01*
X134561057Y-96328018D01*
X134468237Y-96344654D01*
X134378479Y-96360196D01*
X134292020Y-96374608D01*
X134208743Y-96387910D01*
X134129412Y-96399982D01*
X134053759Y-96410867D01*
X133982337Y-96420487D01*
X133915251Y-96428837D01*
X133852724Y-96435892D01*
X133795308Y-96441602D01*
X133742338Y-96446043D01*
X133739808Y-96446221D01*
X133684238Y-96448050D01*
X133634306Y-96446402D01*
X133584988Y-96441466D01*
X133529928Y-96432215D01*
X133520338Y-96430361D01*
X133512010Y-96430406D01*
X133504154Y-96427642D01*
X133498004Y-96426763D01*
X133482880Y-96427586D01*
X133465782Y-96414066D01*
X133461269Y-96411758D01*
X133458474Y-96410965D01*
X133457368Y-96410144D01*
X133452548Y-96408934D01*
X133446672Y-96404732D01*
X133438477Y-96401029D01*
X133435355Y-96400304D01*
X133432714Y-96398490D01*
X133421386Y-96393625D01*
X133419521Y-96393229D01*
X133417939Y-96392168D01*
X133404019Y-96386374D01*
X133402657Y-96386101D01*
X133401495Y-96385335D01*
X133385534Y-96378843D01*
X133384331Y-96378612D01*
X133383303Y-96377945D01*
X133365847Y-96370990D01*
X133365375Y-96370903D01*
X133364972Y-96370643D01*
X133359485Y-96368475D01*
X133331895Y-96357477D01*
X133305602Y-96346817D01*
X133280253Y-96336342D01*
X133255114Y-96325734D01*
X133230066Y-96314935D01*
X133204448Y-96303651D01*
X133177735Y-96291640D01*
X133149824Y-96278849D01*
X133120091Y-96264985D01*
X133088384Y-96249977D01*
X133053757Y-96233372D01*
X133016956Y-96215531D01*
X132976490Y-96195738D01*
X132932663Y-96174146D01*
X132885481Y-96150769D01*
X132833666Y-96124985D01*
X132833665Y-96124985D01*
X132818282Y-96117318D01*
X132818165Y-96117286D01*
X132818065Y-96117209D01*
X132757710Y-96087181D01*
X132757497Y-96087123D01*
X132757324Y-96086990D01*
X132700938Y-96059027D01*
X132700672Y-96058955D01*
X132700452Y-96058786D01*
X132647766Y-96032764D01*
X132647445Y-96032678D01*
X132647180Y-96032475D01*
X132597931Y-96008270D01*
X132597537Y-96008165D01*
X132597214Y-96007919D01*
X132551135Y-95985408D01*
X132550668Y-95985285D01*
X132550281Y-95984992D01*
X132507106Y-95964051D01*
X132506557Y-95963908D01*
X132506104Y-95963567D01*
X132465568Y-95944072D01*
X132464926Y-95943907D01*
X132464394Y-95943510D01*
X132426229Y-95925338D01*
X132425495Y-95925152D01*
X132424886Y-95924702D01*
X132388829Y-95907729D01*
X132388003Y-95907524D01*
X132387318Y-95907023D01*
X132353103Y-95891124D01*
X132352180Y-95890899D01*
X132351410Y-95890343D01*
X132318769Y-95875396D01*
X132317767Y-95875158D01*
X132316927Y-95874559D01*
X132285596Y-95860440D01*
X132284523Y-95860192D01*
X132283625Y-95859560D01*
X132253337Y-95846145D01*
X132252224Y-95845895D01*
X132251284Y-95845243D01*
X132221774Y-95832409D01*
X132220643Y-95832163D01*
X132219685Y-95831508D01*
X132190687Y-95819129D01*
X132189565Y-95818893D01*
X132188615Y-95818253D01*
X132159863Y-95806207D01*
X132158784Y-95805988D01*
X132157865Y-95805377D01*
X132129092Y-95793540D01*
X132128087Y-95793343D01*
X132127231Y-95792781D01*
X132098174Y-95781030D01*
X132097278Y-95780860D01*
X132096511Y-95780362D01*
X132066903Y-95768572D01*
X132065528Y-95768318D01*
X132064349Y-95767567D01*
X132056546Y-95764534D01*
X132051477Y-95763641D01*
X132047052Y-95761007D01*
X132008018Y-95747175D01*
X132000772Y-95746123D01*
X131994327Y-95742653D01*
X131952874Y-95729942D01*
X131946040Y-95729248D01*
X131939862Y-95726237D01*
X131897966Y-95715219D01*
X131890554Y-95714768D01*
X131883742Y-95711808D01*
X131843383Y-95703057D01*
X131838266Y-95702969D01*
X131833517Y-95701073D01*
X131818458Y-95698278D01*
X131815585Y-95698315D01*
X131812897Y-95697294D01*
X131794705Y-95694234D01*
X131789937Y-95694376D01*
X131785434Y-95692808D01*
X131768603Y-95690459D01*
X131762701Y-95690800D01*
X131757054Y-95689051D01*
X131740548Y-95687329D01*
X131734519Y-95687888D01*
X131728674Y-95686303D01*
X131711465Y-95685124D01*
X131706316Y-95685786D01*
X131701266Y-95684581D01*
X131682317Y-95683862D01*
X131678607Y-95684455D01*
X131674932Y-95683663D01*
X131653214Y-95683318D01*
X131650895Y-95683741D01*
X131648586Y-95683277D01*
X131623067Y-95683224D01*
X131622075Y-95683419D01*
X131621079Y-95683225D01*
X131602919Y-95683295D01*
X131601865Y-95683509D01*
X131600810Y-95683310D01*
X131583169Y-95683489D01*
X131580978Y-95683948D01*
X131578776Y-95683563D01*
X131564201Y-95683902D01*
X131560667Y-95684691D01*
X131557087Y-95684143D01*
X131544620Y-95684698D01*
X131539852Y-95685869D01*
X131534976Y-95685266D01*
X131523661Y-95686097D01*
X131518587Y-95687499D01*
X131513346Y-95687015D01*
X131502226Y-95688178D01*
X131498017Y-95689483D01*
X131493624Y-95689191D01*
X131481742Y-95690745D01*
X131479143Y-95691625D01*
X131476401Y-95691487D01*
X131462799Y-95693489D01*
X131460518Y-95694302D01*
X131458096Y-95694215D01*
X131426232Y-95699368D01*
X131421470Y-95701142D01*
X131416391Y-95701111D01*
X131361438Y-95711688D01*
X131354475Y-95714522D01*
X131346962Y-95714807D01*
X131295352Y-95727127D01*
X131287722Y-95730632D01*
X131279357Y-95731365D01*
X131230245Y-95745684D01*
X131222350Y-95749795D01*
X131213536Y-95751034D01*
X131166084Y-95767609D01*
X131158405Y-95772133D01*
X131149656Y-95773835D01*
X131103018Y-95792922D01*
X131095994Y-95797572D01*
X131087815Y-95799588D01*
X131041149Y-95821443D01*
X131036974Y-95824515D01*
X131031980Y-95825908D01*
X131017590Y-95833189D01*
X131012795Y-95836947D01*
X131006992Y-95838792D01*
X130959120Y-95865205D01*
X130951036Y-95872021D01*
X130941177Y-95875846D01*
X130896995Y-95903943D01*
X130888711Y-95911861D01*
X130878330Y-95916717D01*
X130837012Y-95947091D01*
X130829163Y-95955678D01*
X130818988Y-95961317D01*
X130779711Y-95994563D01*
X130772848Y-96003190D01*
X130763574Y-96009147D01*
X130725510Y-96045860D01*
X130721905Y-96051050D01*
X130716719Y-96054660D01*
X130707706Y-96064022D01*
X130704216Y-96069467D01*
X130699052Y-96073361D01*
X130665567Y-96110901D01*
X130659704Y-96120862D01*
X130650972Y-96128430D01*
X130621699Y-96166124D01*
X130616032Y-96177450D01*
X130607105Y-96186437D01*
X130581577Y-96224923D01*
X130576609Y-96237033D01*
X130568130Y-96247000D01*
X130545879Y-96286915D01*
X130543378Y-96294666D01*
X130538404Y-96301114D01*
X130533882Y-96310226D01*
X130532790Y-96314261D01*
X130530319Y-96317632D01*
X130521520Y-96336511D01*
X130520403Y-96341080D01*
X130517730Y-96344946D01*
X130509287Y-96364449D01*
X130509013Y-96365720D01*
X130506982Y-96367550D01*
X130489265Y-96383422D01*
X130467930Y-96402480D01*
X130443397Y-96424366D01*
X130443346Y-96424434D01*
X130443271Y-96424478D01*
X130425869Y-96440019D01*
X130425709Y-96440232D01*
X130425477Y-96440369D01*
X130405200Y-96458534D01*
X130405200Y-93112452D01*
X130919483Y-93112452D01*
X131197527Y-93785371D01*
X131711921Y-94300664D01*
X132384354Y-94579882D01*
X133112452Y-94580517D01*
X133772581Y-94307758D01*
X133698987Y-94484991D01*
X133698614Y-94913130D01*
X133862110Y-95308822D01*
X134164586Y-95611826D01*
X134559991Y-95776013D01*
X134988130Y-95776386D01*
X135383822Y-95612890D01*
X135686826Y-95310414D01*
X135851013Y-94915009D01*
X135851386Y-94486870D01*
X135687890Y-94091178D01*
X135385414Y-93788174D01*
X134990009Y-93623987D01*
X134561870Y-93623614D01*
X134329002Y-93719833D01*
X134579882Y-93115646D01*
X134580517Y-92387548D01*
X134378592Y-91898850D01*
X136427200Y-91898850D01*
X136427200Y-92707205D01*
X136516139Y-92921923D01*
X136680478Y-93086261D01*
X136895196Y-93175200D01*
X137551150Y-93175200D01*
X137697200Y-93029150D01*
X137697200Y-91752800D01*
X136573250Y-91752800D01*
X136427200Y-91898850D01*
X134378592Y-91898850D01*
X134302473Y-91714629D01*
X133788079Y-91199336D01*
X133115646Y-90920118D01*
X132387548Y-90919483D01*
X131714629Y-91197527D01*
X131199336Y-91711921D01*
X130920118Y-92384354D01*
X130919483Y-93112452D01*
X130405200Y-93112452D01*
X130405200Y-92789908D01*
X130591021Y-91855723D01*
X131097588Y-91097590D01*
X131855723Y-90591021D01*
X132789907Y-90405200D01*
X136442772Y-90405200D01*
X136427200Y-90442795D01*
G36*
X158258760Y-95950065D02*
X158278760Y-95950065D01*
X158278760Y-96149455D01*
X158258760Y-96149455D01*
X158258760Y-96163941D01*
X157903160Y-96163941D01*
X157903160Y-96149455D01*
X157883160Y-96149455D01*
X157883160Y-95950065D01*
X157903160Y-95950065D01*
X157903160Y-95935579D01*
X158258760Y-95935579D01*
X158258760Y-95950065D01*
X158258760Y-95950065D01*
G37*
X158258760Y-95950065D02*
X158278760Y-95950065D01*
X158278760Y-96149455D01*
X158258760Y-96149455D01*
X158258760Y-96163941D01*
X157903160Y-96163941D01*
X157903160Y-96149455D01*
X157883160Y-96149455D01*
X157883160Y-95950065D01*
X157903160Y-95950065D01*
X157903160Y-95935579D01*
X158258760Y-95935579D01*
X158258760Y-95950065D01*
G36*
X159747078Y-93906444D02*
X159747078Y-95022227D01*
X159729522Y-95039752D01*
X159729522Y-94326878D01*
X159698587Y-94171355D01*
X159610490Y-94039510D01*
X159533612Y-93962632D01*
X159484974Y-93930133D01*
X159415730Y-93883865D01*
X159415730Y-93845505D01*
X159269680Y-93699455D01*
X158258760Y-93699455D01*
X158258760Y-93713941D01*
X157903160Y-93713941D01*
X157903160Y-93699455D01*
X157883160Y-93699455D01*
X157883160Y-93500065D01*
X157903160Y-93500065D01*
X157903160Y-93485579D01*
X158258760Y-93485579D01*
X158258760Y-93500065D01*
X159269680Y-93500065D01*
X159305190Y-93464556D01*
X159747078Y-93906444D01*
X159747078Y-93906444D01*
G37*
X159747078Y-93906444D02*
X159747078Y-95022227D01*
X159729522Y-95039752D01*
X159729522Y-94326878D01*
X159698587Y-94171355D01*
X159610490Y-94039510D01*
X159533612Y-93962632D01*
X159484974Y-93930133D01*
X159415730Y-93883865D01*
X159415730Y-93845505D01*
X159269680Y-93699455D01*
X158258760Y-93699455D01*
X158258760Y-93713941D01*
X157903160Y-93713941D01*
X157903160Y-93699455D01*
X157883160Y-93699455D01*
X157883160Y-93500065D01*
X157903160Y-93500065D01*
X157903160Y-93485579D01*
X158258760Y-93485579D01*
X158258760Y-93500065D01*
X159269680Y-93500065D01*
X159305190Y-93464556D01*
X159747078Y-93906444D01*
M02*
